<svg width="350" height="272" viewBox="0 0 350 272" fill="none" xmlns="http://www.w3.org/2000/svg">
<path d="M349.031 144.305C349.006 143.391 348.982 142.472 348.951 141.558C348.945 141.295 348.933 141.031 348.926 140.767C348.252 117.187 346.995 93.5579 346.958 70.0329C346.94 60.3703 347.13 50.628 345.659 41.1003C345.61 40.8367 345.573 40.5731 345.524 40.3033C345.383 39.4511 345.229 38.5927 345.058 37.7405C342.936 27.1644 338.179 16.7354 329.896 10.0893C319.301 1.59164 305.157 0.629035 291.497 0.794574C289.492 0.819099 287.499 0.862018 285.531 0.911067C284.654 0.935591 283.765 0.960138 282.876 0.9724C281.717 1.00306 280.571 1.02758 279.412 1.05211C279.155 1.05824 278.891 1.07049 278.634 1.07662C278.002 1.09501 277.377 1.10727 276.745 1.1134C274.422 1.16858 272.11 1.21149 269.786 1.26054C268.364 1.2912 266.954 1.31573 265.538 1.34025C263.539 1.37704 261.546 1.41995 259.547 1.45061C254.735 1.53031 249.916 1.59162 245.103 1.6468C243.184 1.67133 241.271 1.69584 239.364 1.7081C222.27 1.87364 205.183 1.91044 188.09 1.87365C187.826 1.87978 187.569 1.87365 187.311 1.87365C186.526 1.87365 185.748 1.87365 184.975 1.86751C182.296 1.86751 179.617 1.8614 176.937 1.843C171.487 1.82461 166.03 1.80623 160.579 1.77557C151.671 1.72652 142.756 1.67746 133.842 1.61002C126.313 1.55484 118.784 1.49966 111.255 1.45674C109.771 1.43835 108.287 1.43223 106.804 1.42609C92.598 1.328 78.3984 1.24827 64.1927 1.21148C51.6546 1.18083 38.528 1.29119 27.443 7.30579C22.8753 9.78274 18.9085 13.161 15.5303 17.1401C13.8197 19.1572 12.2624 21.3276 10.8522 23.6084C9.8406 25.2454 8.90868 26.9375 8.06259 28.691C7.17971 30.4874 6.38267 32.3329 5.6776 34.2029C5.56724 34.4726 5.46914 34.7363 5.36491 35.0122C4.574 37.1948 3.88119 39.4143 3.30487 41.6521C3.12706 42.3327 2.96153 43.0133 2.80212 43.6938C2.1277 46.6367 1.60655 49.6041 1.20803 52.5961C0.895349 54.9443 0.656237 57.2925 0.484566 59.6591C0.300634 62.1054 0.171881 64.5579 0.104439 67.0226C0.00634148 70.2291 -0.0120518 73.4479 0.00634143 76.6606C0.0124725 78.3835 0.0308657 80.1063 0.0553901 81.8353C0.0737833 82.8898 0.0860456 83.9505 0.104439 85.0051C0.680761 121.828 1.24482 158.664 1.81501 195.487C1.87019 199.301 1.93763 203.145 2.09704 206.983C2.44038 215.708 3.23742 224.395 5.46301 232.691C6.24166 235.609 7.20424 238.485 8.37527 241.286C11.5205 248.785 15.8552 254.26 21.036 258.263C21.551 258.662 22.066 259.042 22.5871 259.41C29.1719 263.99 36.9891 266.43 45.3764 267.736C46.9092 267.975 48.4664 268.177 50.036 268.349C51.1089 268.466 52.188 268.564 53.2732 268.662C53.7882 268.699 54.3032 268.741 54.8244 268.778C61.9058 269.281 69.214 269.293 76.4181 269.342C77.0312 269.348 77.6382 269.348 78.2513 269.361C78.7724 269.361 79.2813 269.367 79.8024 269.379C99.9737 269.545 120.133 269.704 140.292 269.87C146.496 269.925 152.713 269.968 158.918 270.023C162.419 270.053 165.914 270.084 169.421 270.109C169.427 270.109 169.439 270.115 169.445 270.109C170.935 270.127 172.437 270.139 173.927 270.145C180.174 270.201 186.41 270.244 192.651 270.299H192.811C193.178 270.299 193.54 270.305 193.914 270.317C226.139 270.63 259.425 273.021 291.681 269.612C296.653 269.091 301.601 268.429 306.505 267.607C308.688 267.233 310.895 266.81 313.09 266.289C314.66 265.921 316.223 265.504 317.75 265.032C321.196 263.978 324.537 262.647 327.59 260.924C331.772 258.588 335.426 255.511 338.154 251.433C341.876 245.842 343.341 239.012 344.494 232.341C344.806 230.514 345.101 228.693 345.37 226.866C345.524 225.867 345.671 224.855 345.812 223.843C346.18 221.287 346.505 218.73 346.793 216.18C346.909 215.15 347.026 214.113 347.136 213.083C347.289 211.63 347.437 210.177 347.571 208.724C349.57 187.37 349.595 165.856 349.031 144.305Z" fill="#F5D6C1"/>
<path d="M342.348 216.155C342.097 218.393 341.814 220.619 341.502 222.856C341.465 223.175 341.416 223.5 341.367 223.819L106.816 171.404V1.40161C108.3 1.40774 109.783 1.42004 111.267 1.4323C118.796 1.48135 126.325 1.5304 133.854 1.58558C183.534 1.91665 233.221 2.1864 282.882 0.954055C275.819 1.10733 268.34 1.1625 260.565 1.13798C267.72 1.13185 274.587 1.05216 281.086 0.886622C284.513 0.800787 288.008 0.721081 291.503 0.77013C303.734 0.911145 316.009 2.48682 325.451 10.0648C333.728 16.7109 338.491 27.1399 340.613 37.7161C342.728 48.3045 342.495 59.2055 342.507 70.0146C342.538 94.7229 343.93 119.542 344.573 144.293C345.205 168.37 345.101 192.379 342.348 216.155Z" fill="#C7916D"/>
<path d="M347.572 208.7C347.437 210.153 347.29 211.606 347.136 213.059C347.026 214.089 346.909 215.125 346.793 216.155C346.505 218.712 346.18 221.268 345.812 223.819L341.496 222.856L279.418 208.982L278.64 208.81L202.289 191.747L188.096 188.577L187.317 188.4L115.712 172.398L111.261 171.404V1.43831C118.79 1.48736 126.313 1.05207 133.842 1.10725C151.665 1.22374 169.494 1.30343 187.317 1.28503C187.575 1.29116 187.838 1.29116 188.096 1.28503C218.279 1.26664 248.463 0.996907 278.64 0.285701C278.897 0.285701 279.161 0.285683 279.418 0.267289C280.577 0.242765 281.724 0.218238 282.882 0.187582C283.778 0.169189 284.661 0.150811 285.537 0.126286C287.505 0.0772378 289.498 0.0343187 291.503 0.00979431C299.387 -0.082172 307.683 0.451216 315.334 2.56031C320.944 4.10534 326.199 6.49035 330.68 10.0893C331.876 11.0458 332.998 12.088 334.046 13.1855C340.282 19.7396 344.028 28.6787 345.843 37.7405C346.02 38.6234 346.186 39.5124 346.327 40.4075C346.376 40.6712 346.413 40.9348 346.462 41.1984C347.915 50.6955 347.731 60.4071 347.743 70.0391C347.774 93.6131 349.043 117.297 349.717 140.914C349.724 141.178 349.736 141.442 349.736 141.705C349.767 142.576 349.791 143.447 349.816 144.317C350.367 165.856 349.699 187.351 347.572 208.7Z" fill="white"/>
<path d="M330.686 10.0832C326.205 6.48424 320.944 4.10536 315.34 2.5542C311.343 3.97048 307.339 5.38676 303.348 6.80304C296.745 9.13898 290.044 11.3033 283.557 13.9335C278.168 16.1223 273.134 18.9365 268.928 23.0075C264.802 26.9989 261.571 31.8669 259.18 37.0845C258.033 39.586 257.077 42.1733 256.292 44.8158C255.268 48.2614 254.71 51.8359 253.545 55.2448C249.413 67.323 236.268 71.3634 225.827 76.397C219.965 79.2234 214.214 82.2768 208.592 85.5446C202.939 88.8309 197.164 92.2091 192.087 96.3537C187.575 100.045 183.97 104.514 181.64 109.885C179.224 115.464 178.127 121.522 177.483 127.53C176.821 133.643 177.17 140.13 175.454 146.077C173.528 152.735 168.225 155.776 161.916 157.536C155.742 159.259 149.513 160.736 143.37 162.6C137.14 164.488 130.972 166.567 124.866 168.835C121.8 169.976 118.753 171.165 115.724 172.398L187.329 188.4L188.108 188.578L202.302 191.747C204.742 188.547 207.452 185.555 210.707 183.158C215.741 179.454 221.657 177.26 227.414 174.96C232.687 172.857 237.807 170.515 242.528 167.333C247.212 164.188 251.467 160.442 255.311 156.322C263.392 147.646 269.535 137.365 274.342 126.568C279.878 114.146 283.741 101.081 287.64 88.0829C289.645 81.3877 291.515 74.5884 294.427 68.2243C297.186 62.1913 301.098 57.127 305.715 52.4C310.08 47.9243 314.764 43.6999 318.443 38.6111C321.711 34.0802 324.089 29.0037 326.714 24.0927C328.786 20.2301 331.06 16.3859 334.052 13.1794C333.004 12.0758 331.882 11.0335 330.686 10.0832Z" fill="#FFF1E6"/>
<path d="M188.102 1.27893V214.248H187.323V1.27893C187.581 1.28506 187.845 1.28506 188.102 1.27893Z" fill="#C7916D"/>
<path d="M346.462 41.1864L345.671 41.0944L341.128 40.561L279.425 33.2344L278.646 33.1424L188.102 22.4068L187.323 22.3149L111.267 13.2899L107.589 12.8546L107.681 12.0883L111.267 12.5174L187.323 21.5362L188.102 21.6282L278.646 32.3637L279.425 32.4557L340.993 39.7578L345.536 40.2913L346.327 40.3893C346.376 40.6591 346.413 40.9227 346.462 41.1864Z" fill="#C7916D"/>
<path d="M349.73 141.699L348.951 141.558L344.488 140.767L279.425 129.228L278.646 129.094L188.102 113.042L187.323 112.901L111.267 99.4252L107.564 98.7631L107.705 98.0028L111.267 98.6343L187.323 112.117L188.102 112.258L278.646 128.303L279.425 128.444L344.469 139.97L348.933 140.761L349.717 140.902C349.724 141.166 349.73 141.429 349.73 141.699Z" fill="#C7916D"/>
<path d="M279.425 0.26123V214.248H278.646V0.273505C278.904 0.279636 279.167 0.279624 279.425 0.26123Z" fill="#C7916D"/>
<path d="M54.8428 165.408V268.76C54.3216 268.723 53.8005 268.68 53.2916 268.643V165.408H54.8428Z" fill="#706664"/>
<path d="M83.8414 130.118C83.8414 134.667 71.849 138.444 56.0369 139.216C54.0934 139.314 52.0885 139.363 50.0469 139.363C49.1149 139.363 48.1953 139.357 47.2879 139.333C29.9124 138.952 16.2523 134.973 16.2523 130.118C16.2523 129.707 16.3504 129.308 16.5405 128.916C18.6986 124.379 32.8798 120.878 50.0469 120.878C66.6376 120.878 80.4387 124.146 83.2958 128.468C83.6575 128.996 83.8414 129.547 83.8414 130.118Z" fill="white"/>
<path d="M50.0482 179.657C68.7158 179.657 83.8489 175.517 83.8489 170.411C83.8489 165.305 68.7158 161.166 50.0482 161.166C31.3806 161.166 16.2476 165.305 16.2476 170.411C16.2476 175.517 31.3806 179.657 50.0482 179.657Z" fill="white"/>
<path d="M83.8428 130.118H16.2537V170.411H83.8428V130.118Z" fill="white"/>
<path d="M83.8428 130.117V145.746L82.7453 150.264L76.418 140.375L70.2072 154.403L62.8254 142.606L54.3768 157.064L46.811 143.587L37.6818 155.396L30.6924 142.422L21.4344 151.19L16.2537 134.697V130.117C16.2537 129.707 16.3518 129.308 16.5418 128.916L20.0856 130.117L47.2954 139.332L51.9918 138.701L56.0383 139.216L79.0973 130.117L83.2971 128.462C83.6588 128.995 83.8428 129.547 83.8428 130.117Z" fill="#DEB9A0"/>
<path d="M83.8414 130.118C83.8414 134.667 71.849 138.444 56.0369 139.216C54.0934 139.314 52.0885 139.363 50.0469 139.363C49.1149 139.363 48.1953 139.357 47.2879 139.333C29.9124 138.952 16.2523 134.973 16.2523 130.118C16.2523 129.707 16.3504 129.308 16.5405 128.916C18.6986 124.379 32.8798 120.878 50.0469 120.878C66.6376 120.878 80.4387 124.146 83.2958 128.468C83.6575 128.996 83.8414 129.547 83.8414 130.118Z" fill="white"/>
<path d="M83.8428 152.944V154.624C82.6472 155.034 81.3045 155.457 79.8208 155.874C79.3242 156.009 78.803 156.144 78.2696 156.285C71.8442 157.947 63.1074 159.394 52.1144 159.394C38.6321 159.394 28.9205 157.383 22.5993 155.372C22.0537 155.2 21.5325 155.028 21.0482 154.857C19.0494 154.164 17.4615 153.495 16.2537 152.931V151.19C20.6558 153.324 32.311 157.836 52.1144 157.836C66.7799 157.836 77.4971 155.157 83.8428 152.944Z" fill="#706664"/>
<path d="M50.0483 137.788C66.9212 137.788 80.5995 134.354 80.5995 130.118C80.5995 125.882 66.9212 122.448 50.0483 122.448C33.1753 122.448 19.4971 125.882 19.4971 130.118C19.4971 134.354 33.1753 137.788 50.0483 137.788Z" fill="#C7916D"/>
<path d="M22.5994 154.403V259.391C22.0782 259.017 21.5571 258.637 21.0482 258.245V154.403H22.5994Z" fill="#706664"/>
<path d="M79.8208 155.39V269.361C79.2997 269.355 78.7908 269.343 78.2697 269.343V155.39H79.8208Z" fill="#706664"/>
<path d="M70.1031 95.4461C69.8762 93.5945 69.1957 91.8411 68.0246 90.3328C67.3809 89.499 66.6206 88.8246 65.7745 88.2053C63.9168 86.8442 63.2546 85.4831 62.3901 83.3679C61.0474 80.0877 59.6986 76.8076 58.3559 73.5275C57.1419 70.5662 56.1364 67.3658 54.6588 64.5271C53.917 63.1046 52.5375 62.4241 51.1396 63.5277C49.7111 64.6619 49.8766 66.4645 50.5388 67.985C51.8385 70.9647 53.9722 73.7543 55.6705 76.5256C57.4178 79.3827 59.1959 82.2275 60.9003 85.1214C62.8684 88.4628 64.5544 91.8656 66.0565 95.44C66.5041 96.4945 67.105 97.6043 67.8959 98.4381C68.325 98.8857 69.6984 99.6888 70.3054 99.1983C71.0779 98.5607 70.2809 96.237 70.1031 95.4461Z" fill="#366657"/>
<path d="M64.9039 104.306C64.7506 103.607 64.5422 102.957 64.5054 102.859C63.6961 100.615 62.899 97.9845 61.2743 96.1881C60.3424 95.1519 59.202 94.6614 57.9083 94.22C55.6214 93.4413 54.0396 92.068 52.3474 90.3942C49.8521 87.9233 46.7559 86.084 43.3899 85.0785C42.4273 84.7904 32.9916 83.9075 33.6783 85.1153C35.0149 87.4758 38.3072 88.3648 40.588 89.499C43.5309 90.9644 46.4432 92.5094 49.239 94.2445C52.1696 96.0593 54.9593 98.0887 57.5282 100.382C59.7599 102.38 61.6912 104.851 64.4318 106.176C65.2411 106.568 65.1369 105.372 64.9039 104.306Z" fill="#366657"/>
<path d="M60.0113 114.839C60.0113 114.839 59.1346 113.417 59.1101 113.38C58.405 112.209 57.749 110.989 56.9703 109.867C56.5657 109.278 55.1003 107.065 54.3094 107.065C53.4817 106.458 52.4456 106.072 51.7282 105.33C51.2194 104.802 50.9189 104.103 50.5817 103.466C49.8951 102.178 49.0919 101.056 48.0312 100.051C46.9767 99.0453 45.7627 98.2054 44.5304 97.4328C43.6536 96.8872 42.6052 96.0595 41.6058 95.8388C39.9566 95.4832 39.227 97.2183 39.9443 98.5426C40.4961 99.5603 41.6855 99.9282 42.5991 100.529C44.3342 101.663 45.6585 103.46 47.0257 104.992C49.5027 107.776 51.9428 110.59 54.3462 113.441C55.2475 114.508 58.7545 117.708 58.7545 117.708L60.0113 114.839Z" fill="#366657"/>
<path d="M76.5836 86.219C75.8847 84.7598 75.4249 83.4232 75.2716 81.7985C74.9957 78.9476 74.9405 76.066 74.8118 73.2027C74.5604 67.4947 74.3948 61.7805 74.3213 56.0664C74.2845 53.2706 74.2661 50.4809 74.2722 47.6852C74.2784 45.7845 74.2232 43.2646 71.9915 45.1346C70.3299 46.5325 69.4041 49.4019 68.9198 51.4313C67.8346 55.956 68.4109 60.7076 68.9014 65.2691C69.3428 69.3708 69.1037 73.7055 70.379 77.6662C71.0841 79.8611 72.2919 82.1357 73.0828 84.4042C73.5304 85.6917 73.5304 90.799 75.2593 90.7806C76.4733 90.7683 77.2581 89.3949 77.2458 88.3159C77.2397 87.5801 76.8963 86.8628 76.5836 86.219Z" fill="#366657"/>
<path d="M94.6642 114.416C94.4619 113.87 93.8304 113.318 93.5177 112.895C92.9966 112.19 92.4816 111.479 91.9175 110.823C90.8446 109.566 89.5386 108.401 87.8832 108.027C86.8164 107.788 85.6822 107.745 84.5663 107.727C83.99 107.721 83.4137 107.709 82.868 107.69C80.8999 107.598 78.938 107.512 76.9699 107.42C76.8902 107.42 76.8228 107.414 76.7431 107.414C73.3097 107.249 70.3361 107.12 67.3134 109.021C65.186 110.357 63.2301 112.013 61.397 113.772C60.839 114.189 60.3792 114.655 60.0052 115.17C59.7416 115.526 59.484 115.673 59.3614 116.139C59.2265 116.629 59.061 117.12 58.9629 117.622C58.9261 117.831 58.3621 119.069 58.3621 119.069C58.3621 119.069 64.1008 117.353 65.9278 115.587C67.3502 114.22 68.6991 112.754 70.6672 112.209C71.0105 112.117 71.36 112.043 71.7094 111.994C73.4568 111.73 75.29 111.908 77.0128 112.019C77.2642 112.037 77.5156 112.049 77.7731 112.068C81.5069 112.276 85.5657 112.411 88.7171 114.502C89.6674 115.121 90.7035 115.722 91.8317 115.894C92.5919 116.01 93.6894 115.93 94.3086 115.452C94.7317 115.115 94.7868 114.765 94.6642 114.416Z" fill="#4E8271"/>
<path d="M104.468 99.9219C103.701 98.0704 100.887 97.4266 99.1951 97.0649C98.0609 96.8258 96.9205 96.5989 95.7801 96.3905C94.3761 96.133 92.9598 95.9 91.5497 95.7099C90.8998 95.6241 90.2376 95.5382 89.5816 95.4708C84.1678 94.8638 71.4152 97.5615 71.4152 97.5615L69.5636 100.186C69.5636 100.186 79.5389 100.137 87.3131 100.21C89.4896 100.235 91.4822 100.265 93.0457 100.308H93.1928C95.0444 100.357 96.7917 100.676 98.5698 101.16C99.9431 101.541 101.372 102.025 102.812 101.982C104.063 101.951 105.026 101.277 104.468 99.9219Z" fill="#4E8271"/>
<path d="M87.4725 47.7832C86.7919 45.4166 86.8287 43.05 86.6509 40.6466C86.6264 40.2665 86.5957 39.8803 86.5528 39.4879C86.2892 37.0906 85.7067 34.7485 85.02 32.4432C84.3456 30.1747 83.7202 27.8817 82.8006 25.699C82.2181 24.3134 81.556 22.5538 80.4708 21.487C78.8154 19.8561 76.5162 21.0701 76.038 22.3698C74.0944 27.6181 77.0251 32.7314 79.0116 37.4217C79.8086 39.3162 80.5198 41.2536 81.1452 43.2155C81.2617 43.565 81.372 43.9145 81.4763 44.2701C83.0274 49.4202 84.0329 54.8094 84.364 60.2232C84.5908 63.8344 84.5111 67.464 84.1065 71.0261C84.0697 71.4001 84.1371 74.6864 84.1371 74.6864C84.1371 74.6864 84.8177 73.7729 85.394 72.9697C85.6454 72.6264 85.8661 72.3014 86.0255 72.0746C86.3443 71.6025 86.5099 71.0323 86.6141 70.4499C86.6938 70.0452 86.749 69.6283 86.8164 69.2482C87.2027 66.9797 87.0678 64.6682 86.9881 62.3752C86.9268 60.5052 86.9881 58.7333 87.215 56.9431C87.3253 56.0479 87.4725 55.1467 87.6748 54.2331C88.1837 51.9156 88.1408 50.0762 87.4725 47.7832Z" fill="#4E8271"/>
<path d="M138.784 22.3822C138.22 20.6287 134.032 21.3705 132.806 21.5177C130.274 21.8304 127.852 22.6274 125.583 23.7678C125.025 24.0376 124.474 24.3319 123.928 24.6507C121.8 25.9014 119.826 27.3852 117.938 28.9608C117.441 29.3778 116.951 29.8008 116.46 30.23C115.001 31.5052 113.548 32.7805 112.144 34.1048C111.427 34.7854 110.722 35.4782 110.041 36.1955C109.643 36.6124 108.447 38.5315 108.177 39.0526C107.993 39.4082 108.196 40.2543 109.054 39.7699C112.395 37.8754 115.639 35.8093 118.753 33.553C119.225 33.2097 119.704 32.8479 120.17 32.4801C122.291 30.8124 124.388 28.9977 126.883 28.0289C127 27.9799 127.122 27.937 127.239 27.894C129.918 26.956 132.836 26.8763 135.454 25.7482C136.497 25.3129 139.268 23.8966 138.784 22.3822Z" fill="#4E8271"/>
<path d="M110.538 7.41004C108.968 6.3371 106.902 10.3897 106.473 11.34C105.087 14.3688 104.462 17.8635 103.861 21.1191C103.597 22.5538 103.37 24.0008 103.186 25.4538C102.874 27.9001 102.684 30.3526 102.61 32.8173C102.604 32.9399 102.592 33.0748 102.592 33.1974C102.537 35.2452 102.555 37.2991 102.653 39.3468C102.708 40.5608 102.69 41.7686 102.776 42.9764C102.825 43.5528 102.8 44.2946 103.015 44.8342C103.101 45.0672 104.296 44.0433 104.296 44.0433C104.296 44.0433 106.191 35.6559 107.276 29.016C107.478 27.7591 107.656 26.5697 107.779 25.5151C107.926 24.3012 108.11 23.1179 108.337 21.9407C108.778 19.6354 109.354 17.3792 110.017 15.0923C110.452 13.5472 110.869 11.9716 110.973 10.3529C111.028 9.65401 111.298 7.93118 110.538 7.41004Z" fill="#4E8271"/>
<path d="M96.6445 36.7656C96.6078 36.0053 96.5587 35.2328 96.5035 34.4664C96.0682 28.1821 95.1976 21.7873 95.9885 15.5459C96.2154 13.7924 96.571 11.2725 94.5232 10.4142C92.6839 9.64776 91.5312 11.6097 90.912 13.0137C88.5515 18.403 89.9004 25.1594 90.587 30.7632C90.8813 33.1482 91.2063 35.5271 91.5496 37.8998C91.7826 39.5 92.0217 41.0941 92.2731 42.6821C92.4509 43.847 92.6409 45.0119 92.8249 46.1768V46.1829C92.9475 46.9984 93.0824 47.8138 93.205 48.6292C93.487 50.3766 93.8059 56.4219 93.8059 56.4219C93.8059 56.4219 95.6697 54.3802 95.8414 53.7977C96.4054 51.94 96.4238 48.9113 96.5771 46.9922C96.7242 45.0671 96.7794 43.1419 96.7733 41.2045C96.761 39.7269 96.712 38.2432 96.6445 36.7656Z" fill="#4E8271"/>
<path d="M138.416 38.8011C137.594 38.2187 136.184 38.2677 135.221 38.1696C133.59 37.998 131.953 37.9121 130.31 37.906C129.838 37.906 129.36 37.906 128.888 37.9244C126.16 37.9796 123.444 38.2494 120.758 38.7153C120.194 38.8134 119.624 38.9299 119.06 39.0832C114.572 40.1929 110.213 42.5166 106.166 44.595C105.265 45.0548 103.456 45.668 102.567 46.1462C101.519 46.7041 99.1399 50.0271 99.1399 50.0271C99.1399 50.0271 103.266 49.3834 103.879 49.0646C105.645 48.1388 107.319 48.151 109.256 48.0468C110.035 48.01 110.734 47.8813 111.384 47.6973C113.254 47.1639 114.768 46.1033 116.583 44.9629C119.581 43.0684 123.474 43.0132 126.981 42.6944C127.294 42.6637 127.6 42.6331 127.907 42.6024C129.685 42.4001 131.457 42.2039 133.235 42.0016C134.651 41.8483 136.343 41.9096 137.686 41.37C138.826 40.9347 139.666 39.684 138.416 38.8011Z" fill="#4E8271"/>
<path d="M127.521 55.8702C126.589 55.1038 125.338 54.8217 124.192 54.5336C122.646 54.1473 121.101 53.7672 119.526 53.4913C118.643 53.3441 117.729 53.2277 116.822 53.1664C114.455 52.9702 112.046 53.0744 109.753 53.5955C108.465 53.8898 107.245 54.3619 106.001 54.7972C105.418 54.9934 104.836 55.1835 104.247 55.3429C102.396 55.8334 100.489 56.0357 98.6249 56.4465C96.5587 56.894 93.4686 57.967 92.0585 59.6592C91.2615 60.6217 89.5815 63.4175 89.5815 63.4175C89.5815 63.4175 94.8849 62.8105 95.8659 62.5776C97.6317 62.1668 99.3913 61.707 101.163 61.3207C102.101 61.1184 103.045 60.9222 103.983 60.7321C106.614 60.211 109.256 59.7634 111.905 59.3465C112.481 59.2606 113.076 59.1503 113.677 59.0461C116.393 58.5556 119.299 57.9731 121.948 58.3778C123.566 58.6169 124.596 59.6469 126.043 60.1558C126.724 60.3949 127.41 60.3397 127.956 59.8309C129.152 58.7027 128.661 56.8082 127.521 55.8702Z" fill="#4E8271"/>
<path d="M128.453 71.4431C125.902 69.7938 122.978 68.6595 119.943 68.3836C117.852 68.1874 115.804 68.4756 113.738 68.7638C111.85 69.0274 109.961 69.291 108.042 69.1807C106.479 69.0948 104.75 69.2788 102.996 69.524H102.99C100.55 69.8551 98.0609 70.3149 95.8844 70.3394C93.0702 70.3701 87.9998 70.4498 86.6264 70.4621C86.3996 70.4682 86.277 70.4682 86.277 70.4682L85.4063 72.9758L84.8177 74.6925C84.8177 74.6925 89.1647 74.993 90.1211 75.0052C92.1812 75.0297 94.2351 75.0543 96.2951 75.0665C97.319 75.0726 98.3429 75.091 99.373 75.0972C102.512 75.1339 105.651 75.1585 108.784 75.1585C109.9 75.1585 111.034 75.134 112.162 75.1033C115.393 75.0359 118.649 74.9561 121.8 75.4711C124.308 75.8819 127.889 77.7519 130.206 75.8574C132.321 74.1284 130.004 72.4486 128.453 71.4431Z" fill="#4E8271"/>
<path d="M116.632 87.8865C115.608 86.4273 113.572 85.1214 111.972 84.3611C109.704 83.2821 107.172 82.8958 104.676 82.8652C104.296 82.8652 103.922 82.8345 103.56 82.7977C101.034 82.5157 98.8272 81.4489 96.3809 80.8296C95.9824 80.7316 95.5839 80.6335 95.167 80.566C92.4386 80.0939 89.7164 80.3085 87.0678 81.0687C87.031 81.0871 87.0003 81.1055 86.9697 81.1239C85.4185 81.3937 83.9041 82.4299 82.4511 83.1227C81.323 83.6561 79.8576 84.8884 79.8576 84.8884L78.754 86.5254C78.754 86.5254 84.2291 85.802 85.4798 85.4586C86.8287 85.0907 88.1959 84.821 89.5815 84.6432C91.5251 84.3857 93.6648 84.2079 95.7126 84.3795C96.4606 84.4408 97.1902 84.5512 97.8953 84.7106C99.3851 85.0539 100.452 86.0288 101.77 86.5254C102.236 86.6971 102.733 86.8136 103.291 86.8197C106.086 86.8504 108.073 87.721 110.648 88.7326C111.776 89.174 113.027 89.6461 114.259 89.7504C115.13 89.8301 116.871 89.5664 116.914 88.6406C116.914 88.4199 116.828 88.1747 116.632 87.8865Z" fill="#4E8271"/>
<path d="M108.287 39.1445C103.652 44.0861 99.0172 49.0523 94.9401 54.4783C90.6422 60.1986 87.4785 66.342 84.836 72.9697C82.028 80.0143 78.662 86.4213 74.2906 92.6198C70.2073 98.4198 65.7622 103.981 62.151 110.1C58.2884 116.635 55.4007 123.784 55.1064 131.448C55.088 131.951 55.8667 131.945 55.885 131.448C56.4368 117.064 65.9646 105.581 73.9656 94.4224C77.9324 88.886 81.4823 83.1902 84.0942 76.8875C86.8838 70.1617 89.4895 63.6136 93.6525 57.5868C98.1098 51.1369 103.493 45.3982 108.839 39.6901C109.183 39.3284 108.631 38.7766 108.287 39.1445Z" fill="#366657"/>
<path d="M87.4724 47.7832C86.7919 45.4166 86.8286 43.05 86.6508 40.6466C84.8483 41.5724 83.0028 42.4308 81.1451 43.2278C81.2616 43.5773 81.372 43.9267 81.4762 44.2824C83.0274 49.4325 84.0329 54.8217 84.3639 60.2355C85.2652 59.1073 86.2584 58.0467 87.2149 56.9553C87.3253 56.0602 87.4724 55.1589 87.6747 54.2454C88.1836 51.9156 88.1407 50.0762 87.4724 47.7832ZM107.913 22.0939C105.933 22.8235 104.419 23.9333 103.193 25.4477C102.88 27.894 102.69 30.3464 102.616 32.8111C103.107 32.2532 103.658 31.7382 104.241 31.2599C105.173 30.4935 106.197 29.6965 107.294 29.0098C107.497 27.753 107.674 26.5635 107.797 25.509C107.944 24.295 108.128 23.1117 108.355 21.9346C108.208 21.9898 108.061 22.0449 107.913 22.0939ZM109.747 53.5955C108.459 53.8898 107.239 54.3619 105.994 54.7972C105.271 56.1705 104.682 57.6114 104.284 59.1074C104.137 59.653 104.045 60.1925 103.971 60.7321C106.601 60.2109 109.244 59.7634 111.893 59.3464C112.469 59.2606 113.064 59.1502 113.664 59.046C114.014 58.2367 114.394 57.452 114.762 56.7224C115.375 55.4961 116.062 54.3067 116.81 53.1663C114.449 52.9701 112.04 53.0743 109.747 53.5955ZM96.3809 80.8237C96.0804 81.9886 95.8904 83.1841 95.7064 84.3735C96.4544 84.4348 97.184 84.5452 97.8891 84.7046C99.379 85.048 100.446 86.0228 101.764 86.5194C102.113 85.1583 102.751 83.9076 103.56 82.7856C101.034 82.5097 98.8272 81.4368 96.3809 80.8237ZM82.8618 107.684C80.8937 107.592 78.9318 107.506 76.9637 107.414C76.884 107.414 76.8166 107.408 76.7369 107.408C76.6204 107.488 76.51 107.561 76.3935 107.647C74.6707 108.904 73.046 110.345 71.7032 111.988C73.4506 111.724 75.2838 111.902 77.0066 112.012C77.258 112.031 77.5094 112.043 77.7669 112.062C80.066 110.67 82.3284 109.235 84.554 107.727C83.9899 107.715 83.4136 107.708 82.8618 107.684ZM91.5434 95.7038C90.3234 97.4511 88.8764 98.9042 87.313 100.204C89.4895 100.229 91.4821 100.259 93.0456 100.302C93.9775 99.0146 94.842 97.6719 95.78 96.3905C94.3699 96.133 92.9536 95.9 91.5434 95.7038ZM113.732 68.7638C111.843 69.0275 109.955 69.2911 108.036 69.1807C106.473 69.0949 104.744 69.2788 102.99 69.5241H102.984C102.138 71.5289 100.703 73.2824 99.3667 75.1033C102.506 75.1401 105.645 75.1646 108.778 75.1646C109.894 75.1646 111.028 75.1401 112.156 75.1095C112.616 74.6251 113.021 74.1162 113.352 73.5338C114.345 71.8048 114.345 70.3334 113.732 68.7638ZM128.894 37.9244C126.166 37.9796 123.45 38.2494 120.764 38.7154C120.2 38.8134 119.63 38.9299 119.066 39.0832C118.747 39.6595 118.391 40.199 117.999 40.7202C116.068 43.3014 113.652 45.4289 111.39 47.7035C113.26 47.1701 114.774 46.1094 116.589 44.969C119.587 43.0745 123.48 43.0194 126.987 42.7006C128.287 41.3762 129.152 39.7821 128.894 37.9244ZM125.577 23.7739C125.019 24.0437 124.467 24.338 123.922 24.6568C121.794 25.9075 119.82 27.3912 117.932 28.9669C118.612 29.5739 119.189 30.3035 119.624 31.1251C119.857 31.5665 120.035 32.0263 120.157 32.4861C122.279 30.8185 124.375 29.0037 126.871 28.035C126.76 26.4715 126.393 25.0062 125.577 23.7739ZM96.6445 36.7657C96.6077 36.0054 96.5587 35.2329 96.5035 34.4665C96.0375 34.8773 95.5348 35.2758 94.9891 35.6559C93.8733 36.4407 92.7206 37.1887 91.5496 37.8999C91.7826 39.5001 92.0217 41.0942 92.273 42.6821C92.4508 43.8471 92.6409 45.012 92.8248 46.1769C93.1988 45.3614 93.6403 44.5766 94.1982 43.8225C94.9278 42.8293 95.8536 42.0139 96.7671 41.2046C96.761 39.727 96.7119 38.2433 96.6445 36.7657Z" fill="#366657"/>
<path d="M42.0533 118.941C41.9307 118.628 41.7897 118.34 41.6242 118.07C40.1711 115.624 37.173 114.575 34.3772 114.49C32.7831 114.441 31.281 114.146 29.7789 113.938C28.1296 113.686 26.4865 113.552 24.733 113.932C24.7269 113.932 24.7085 113.938 24.7024 113.938C23.1573 114.281 21.6368 114.686 20.104 115.054C18.9207 115.342 17.578 115.514 16.5909 116.298C15.1869 117.426 12.3053 119.48 15.4015 120.584C17.1734 121.215 19.5032 119.879 21.1892 119.425C22.7649 119.008 24.3345 118.426 25.9347 118.076C26.7992 117.892 27.6882 117.849 28.5772 117.862C29.362 117.868 30.1406 117.917 30.907 117.941C31.5508 117.966 32.1884 117.972 32.8199 117.997C34.1933 118.058 35.536 118.199 36.8726 118.665C37.6328 118.929 42.5377 120.878 42.5377 120.878C42.5377 120.878 42.1637 119.211 42.0533 118.941Z" fill="#4E8271"/>
<path d="M31.4527 116.274C30.8457 115.52 30.2878 114.741 29.785 113.938C28.1358 113.686 26.4926 113.552 24.7392 113.932C24.733 113.932 24.7146 113.938 24.7085 113.938C25.9838 115.256 27.3816 116.476 28.5833 117.862C29.3681 117.868 30.1468 117.917 30.9132 117.941C31.5569 117.966 32.1946 117.972 32.8261 117.997C32.3907 117.396 31.9125 116.844 31.4527 116.274Z" fill="#366657"/>
<path d="M63.083 69.3156C61.6851 68.0097 58.2578 69.8306 57.0316 70.6154C54.4995 72.2218 52.7766 74.4903 51.3236 76.9918C50.4713 78.4571 49.705 80.0144 48.9324 81.541C47.9086 83.5888 46.8601 85.6182 45.5297 87.4146C43.2244 90.5476 40.9007 93.4169 39.5028 97.1017C38.7058 99.1986 38.1969 101.406 37.8474 103.619C37.6329 104.992 37.4428 106.304 37.5041 107.629C37.5102 107.954 37.5409 108.291 37.5899 108.616C37.6512 109.027 37.7371 109.437 37.8597 109.861C37.9271 110.087 38.1785 110.173 38.387 110.112C38.4728 110.087 38.5525 110.044 38.5954 109.971C38.6016 109.952 38.62 109.946 38.6261 109.934C42.8933 104.612 45.6646 98.377 49.1041 92.5341C50.4039 90.3453 51.8018 88.2362 53.402 86.2742C54.1377 85.3484 54.9348 84.4594 55.7686 83.5949C55.7747 83.5888 55.7747 83.5888 55.787 83.5765C58.1168 81.1977 60.6796 78.9598 62.243 75.9556C62.9726 74.5332 64.5667 70.7135 63.083 69.3156Z" fill="#4E8271"/>
<path d="M38.3869 110.1C38.1907 109.542 37.9026 108.886 37.9026 108.886C37.9026 108.886 37.7861 108.788 37.5838 108.604C37.3876 108.432 37.1117 108.187 36.7683 107.886C35.4317 106.721 33.1939 104.827 31.5385 103.674C29.6195 102.356 27.5533 101.369 25.481 100.382C24.7453 100.032 24.0034 99.6768 23.2677 99.309C20.2144 97.7762 17.6148 95.5322 14.4818 94.1282C14.2427 94.0179 13.9975 93.9197 13.7584 93.8278C11.1404 92.7303 9.82219 92.3931 6.99576 92.1049C5.51204 91.9639 2.94925 91.4612 2.29935 93.3189C1.66785 95.1276 3.50104 97.0711 4.65369 98.187C8.65116 102.099 12.9307 103.135 18.277 104.073C18.4854 104.11 18.6877 104.14 18.8962 104.183C21.4283 104.625 23.985 105.023 26.4742 105.661C27.3142 105.863 28.1541 106.102 28.9757 106.378C30.8886 107.016 32.7095 107.868 34.3833 108.99C35.2478 109.566 37.3569 110.523 38.1907 110.817C38.3931 110.884 38.5157 110.915 38.5341 110.897C38.6138 110.848 38.5218 110.498 38.3869 110.1Z" fill="#4E8271"/>
<path d="M56.8355 49.1872C53.3898 50.2724 51.1029 53.154 49.3249 56.146C48.0987 58.2183 47.0503 60.3949 45.6278 62.3507C45.0638 63.1354 44.4384 63.8834 43.8008 64.6008C42.9363 65.5879 42.035 66.5321 41.1338 67.4824C40.4532 68.2059 39.7849 68.9477 39.135 69.7141C36.5661 72.749 34.3712 76.115 32.7832 79.7813C31.7103 82.246 30.2143 86.967 29.5705 89.0577C29.3682 89.7014 29.2517 90.1 29.2517 90.1L31.2688 95.0723C31.2688 95.0723 31.3485 94.9803 31.4773 94.8025C33.0162 92.816 42.5194 80.4496 43.9724 77.0162C44.0522 76.8323 44.1257 76.6422 44.1993 76.4583C44.935 74.6006 45.4194 72.7367 46.0815 70.9342C46.6885 69.2236 47.4549 67.5805 48.724 66.0477C51.0845 63.1967 54.1071 60.9834 56.7619 58.4268C58.7913 56.4709 61.1518 53.9633 61.8568 51.1246C62.5619 48.286 58.5522 48.6538 56.8355 49.1872Z" fill="#4E8271"/>
<path d="M30.2081 92.908C30.1162 92.8099 30.0058 92.7057 29.8832 92.5954C28.3504 91.2098 25.0703 89.2417 24.3039 88.8983C24.1016 88.8063 23.8931 88.7205 23.6846 88.6347C22.4216 88.1197 21.0973 87.7641 19.8527 87.2061C18.1299 86.4397 16.8056 85.2933 15.377 84.0916C14.7149 83.5336 14.0343 83.0063 13.3354 82.4975C11.4041 81.0934 9.31951 79.8979 7.13684 78.923C5.65312 78.2731 4.12035 77.7275 2.56305 77.2922C1.69857 77.0592 0.895395 76.7404 0.0247803 76.63C0.0309114 78.3528 0.0493047 80.0757 0.0738291 81.8046C0.625627 82.6446 1.34296 83.3803 2.17066 83.9567C3.56242 84.9192 5.19329 85.2074 6.76898 85.7286C8.77384 86.3907 10.607 87.4269 12.4709 88.4078C12.9736 88.6715 13.4825 88.9351 13.9914 89.1865C15.0766 89.7138 16.1925 90.1736 17.3696 90.4617C19.1109 90.8909 20.9011 90.6334 22.6485 90.989C23.1942 91.0994 23.7214 91.3691 24.2303 91.6941C25.1071 92.2398 25.947 92.9694 26.7379 93.4169C27.3265 93.748 29.877 95.011 30.9622 95.5444C31.2627 95.6916 31.4589 95.7835 31.4589 95.7835C31.4589 95.7835 30.5515 93.2575 30.2081 92.908Z" fill="#4E8271"/>
<path d="M55.2107 35.1593C52.7092 33.694 48.7976 34.7915 46.4739 36.0299C43.298 37.7099 40.9498 40.5301 38.81 43.332C38.7119 43.4669 38.6077 43.5957 38.5096 43.7306C35.5789 47.5932 32.8261 51.5845 30.2204 55.6678C29.9261 56.1337 29.6318 56.6058 29.3375 57.0841C28.6202 58.2244 27.9335 59.3894 27.3204 60.5849C26.603 61.9889 24.9538 66.1703 24.2855 67.887C24.1077 68.353 23.9973 68.6351 23.9973 68.6351L25.7999 74.2143C25.7999 74.2143 25.8612 74.1285 25.9777 73.9813C26.8483 72.8348 30.717 67.7154 31.6183 66.2685C32.1087 65.4898 32.5441 64.6682 32.9548 63.8344C34.1811 61.3636 35.2724 58.8069 37.2711 56.8756C37.9455 56.2257 38.669 55.6494 39.4231 55.1037C41.7162 53.4422 44.2728 52.1118 46.339 50.1253C49.1348 47.4399 51.4278 44.2762 53.5614 41.0513C54.4688 39.6595 57.5466 36.5327 55.2107 35.1593Z" fill="#4E8271"/>
<path d="M27.0568 80.0818C27.0568 80.0818 26.7993 79.7629 26.3946 79.2725C25.5608 78.2792 24.0955 76.5748 22.8754 75.508C21.6921 74.4657 20.5211 73.4357 19.35 72.3995C18.4978 71.2592 17.572 70.1617 16.591 69.1194C13.8259 66.1765 10.5948 63.6995 6.99587 61.9215C4.93583 60.9099 2.77155 60.1374 0.503052 59.6407C0.31912 62.0871 0.190367 64.5395 0.122925 67.0042C1.22652 67.7705 2.42208 68.4021 3.68509 68.8558C5.30982 69.4321 7.05718 69.5363 8.73097 69.8551C10.1963 70.1249 11.6065 70.5541 12.7959 71.6086C15.2299 73.7422 16.7934 76.6913 19.2887 78.8249C19.6872 79.1682 20.2881 79.5852 20.9993 80.0266C23.2065 81.4429 26.3946 83.1473 27.3817 83.6685C27.5657 83.7666 27.676 83.8218 27.676 83.8218L27.0568 80.0818Z" fill="#4E8271"/>
<path d="M43.4206 16.8212C42.0718 16.9193 40.9743 17.8758 39.9872 18.7157C38.5403 19.9665 37.124 21.2479 35.7445 22.5783C33.6599 24.5954 31.7532 26.7659 30.2388 29.2183C29.9384 29.6904 29.6625 30.1747 29.3988 30.6652C27.1916 34.8037 25.9654 39.4633 24.6043 43.939C24.2058 45.2204 23.8379 46.5018 23.4455 47.7893C23.2739 48.3718 23.0961 48.9542 22.9183 49.5367C22.1519 51.9891 20.1164 55.5881 19.399 56.8204C19.2273 57.1025 19.1354 57.2619 19.1354 57.2619L21.7534 62.2097C21.7534 62.2097 21.8147 62.0441 21.9312 61.7682C22.5994 60.119 24.9231 54.3987 25.3584 53.2767C25.5362 52.8352 25.7263 52.406 25.9164 51.9953C26.4314 50.953 27.0322 49.9965 27.8476 49.1136C28.9819 47.8813 30.202 46.7777 31.0971 45.3369C32.7648 42.6392 33.3411 39.4695 34.1627 36.4591C34.2424 36.1709 34.3282 35.8828 34.414 35.613C35.4931 32.0999 37.1608 29.4206 40.0792 26.9682C42.225 25.1595 45.3458 23.1178 46.2103 20.273C46.7988 18.3111 45.4868 16.6618 43.4206 16.8212Z" fill="#4E8271"/>
<path d="M18.7981 56.6365C18.7981 56.6365 18.5652 56.4955 18.1789 56.2564C17.1305 55.6065 14.9233 54.2209 13.1146 53.0437C12.4402 52.6023 11.8148 52.1915 11.3366 51.8482C9.87127 50.8181 8.5347 49.5551 7.23491 48.2124C5.76958 46.7103 4.3349 45.1224 2.82052 43.6754C2.1461 46.6183 1.62496 49.5858 1.22644 52.5778C3.10868 53.9389 5.47528 54.7237 7.54146 55.6556C7.55985 55.6617 7.57825 55.674 7.59664 55.6801C9.1662 56.3852 10.7603 57.0289 12.3053 57.7647C13.2924 58.2245 14.1998 58.7763 15.1685 59.181C15.7019 59.4139 16.2721 59.5917 16.8791 59.6959C17.995 59.8799 19.1231 59.9964 20.2512 60.0761C20.3677 60.0822 20.4781 60.0945 20.5945 60.1006L18.7981 56.6365Z" fill="#4E8271"/>
<path d="M39.6623 8.19481C39.6316 7.86986 39.5519 7.61237 39.4232 7.40391C37.872 4.84725 29.8096 9.91765 28.8287 11.0029C26.4743 13.6147 25.0703 16.9316 23.7337 20.175L23.6172 20.457C22.1826 23.9762 20.7417 27.4893 19.3009 31.0025C18.087 33.976 16.8669 36.9619 15.6529 39.9355C15.3219 40.7509 13.3477 44.9507 12.7529 46.1953C12.6548 46.4221 12.5874 46.5448 12.5874 46.5448L13.8443 48.4883C13.8443 48.4883 13.924 48.3964 14.0711 48.2247C15.2054 46.8636 20.4781 40.4627 22.8079 35.3617C22.8938 35.1777 22.9735 34.9877 23.047 34.8099C24.6166 31.0944 25.199 26.9866 27.0384 23.4244C27.1733 23.1669 27.302 22.9217 27.4492 22.6703C30.4657 17.4957 37.032 14.2769 39.4784 8.9796C39.5948 8.72823 39.6929 8.45844 39.6623 8.19481Z" fill="#4E8271"/>
<path d="M10.8706 23.59C9.85898 25.227 8.92706 26.9192 8.08097 28.6727C8.00126 31.8241 7.84799 36.4837 7.79894 38.1023C7.78055 38.4702 7.77441 38.6786 7.77441 38.6786L9.47272 41.4989C9.47272 41.4989 9.50951 41.3824 9.58308 41.174C10.141 39.5063 12.6793 31.7934 13.9975 26.7966C14.445 25.0799 14.7516 23.682 14.7761 22.9646C14.8436 20.9904 15.1256 19.0407 15.5425 17.1217C13.8381 19.1388 12.2746 21.3031 10.8706 23.59Z" fill="#4E8271"/>
<path d="M39.3741 55.0241C38.5035 53.3687 37.7985 51.6091 37.7555 49.7085C37.7188 47.7772 38.5219 45.9624 38.7549 44.0679C38.7856 43.8104 38.804 43.5651 38.804 43.3321C38.7059 43.467 38.6016 43.5958 38.5035 43.7307C35.5729 47.5933 32.82 51.5846 30.2143 55.6679C29.92 56.1338 29.6257 56.6059 29.3314 57.0842C29.7116 58.151 29.9384 59.2668 30.3615 60.3214C30.9071 61.658 31.79 62.7432 32.8323 63.7303C32.8691 63.7609 32.8997 63.7977 32.9426 63.8284C34.1689 61.3575 35.2602 58.8009 37.2589 56.8696C37.9333 56.2197 38.6568 55.6434 39.4109 55.0977C39.4048 55.0732 39.3925 55.0425 39.3741 55.0241ZM23.7337 20.1689L23.6173 20.4509C22.1826 23.9702 20.7418 27.4833 19.301 30.9964C20.5578 31.9099 21.7473 32.9154 22.434 34.3624C22.5872 34.6812 22.716 35.0122 22.8141 35.3556C22.8999 35.1717 22.9796 34.9816 23.0532 34.8038C24.6228 31.0884 25.2052 26.9805 27.0445 23.4184C26.0881 22.1983 24.9784 21.0947 23.7337 20.1689ZM10.8707 23.59C11.1282 23.8782 11.3857 24.1664 11.6494 24.4545C12.4035 25.2761 13.1883 26.0547 14.0037 26.7905C14.4513 25.0738 14.7578 23.6759 14.7824 22.9585C14.8498 20.9843 15.1318 19.0346 15.5487 17.1156C13.8382 19.1389 12.2747 21.3031 10.8707 23.59ZM31.3424 31.493C30.9378 30.745 30.5883 29.9848 30.2388 29.2184C29.9384 29.6905 29.6625 30.1748 29.3989 30.6653C27.1917 34.8038 25.9655 39.4634 24.6044 43.9391C24.2058 45.2205 23.838 46.5019 23.4456 47.7894C23.5253 48.0715 23.6173 48.3351 23.7276 48.6049C24.2426 49.8802 25.0581 50.9592 25.9164 52.0015C26.4314 50.9592 27.0323 50.0028 27.8477 49.1199C28.982 47.8875 30.202 46.784 31.0972 45.3431C32.7648 42.6455 33.3412 39.4757 34.1627 36.4653C34.2424 36.1771 34.3283 35.889 34.4141 35.6192C33.2553 34.3378 32.1763 33.0258 31.3424 31.493ZM45.5175 70.1066C44.4507 68.396 44.1993 66.5199 43.8008 64.607C42.9363 65.5941 42.035 66.5383 41.1338 67.4886C40.4532 68.2121 39.7849 68.954 39.135 69.7204C39.5336 70.1495 39.9137 70.5971 40.2754 71.0631C41.6733 72.835 42.875 74.6804 44.1993 76.4523C44.935 74.5946 45.4194 72.7307 46.0816 70.9282C45.8854 70.6645 45.7014 70.3825 45.5175 70.1066ZM51.3236 76.9857C50.4714 78.451 49.705 80.0083 48.9325 81.5349C50.5573 82.9941 52.1881 84.4717 53.4082 86.2559C54.1439 85.3301 54.941 84.4411 55.7748 83.5766C55.7809 83.5705 55.7809 83.5704 55.7932 83.5582C54.6773 81.3387 52.838 78.8618 51.3236 76.9857Z" fill="#366657"/>
<path d="M25.7263 101.902C25.6405 101.4 25.5608 100.891 25.4872 100.388C24.7514 100.038 24.0096 99.6829 23.2739 99.315C20.2206 97.7822 17.621 95.5382 14.488 94.1342C14.2489 94.0239 14.0037 93.9258 13.7645 93.8338C13.8197 95.1152 14.0527 96.3721 14.6781 97.6228C15.843 99.9588 17.5965 101.921 18.8963 104.183C21.4284 104.625 23.9851 105.023 26.4743 105.661C26.1861 104.416 25.9409 103.165 25.7263 101.902ZM17.1244 70.8606C16.9159 70.2782 16.7442 69.6957 16.5971 69.1194C13.832 66.1765 10.6009 63.6995 7.00195 61.9215C7.02035 62.4243 7.05713 62.9331 7.11844 63.442C7.40047 65.6431 8.00132 67.7706 8.74318 69.849C10.2085 70.1188 11.6187 70.5479 12.8081 71.6025C15.2421 73.7361 16.8056 76.6852 19.3009 78.8188C19.6994 79.1621 20.3003 79.579 21.0115 80.0205C19.6994 76.9733 18.2341 73.9875 17.1244 70.8606ZM13.1146 53.0437C12.4402 52.6023 11.8149 52.1915 11.3366 51.8481C9.8713 50.8181 8.53472 49.5551 7.23493 48.2124C7.73768 50.0395 7.93388 51.9708 7.73155 54.0063C7.67637 54.5581 7.60893 55.1099 7.54762 55.6556C7.56601 55.6617 7.58441 55.6739 7.6028 55.6801C9.17236 56.3851 10.7664 57.0289 12.3115 57.7646C13.2986 58.2245 14.206 58.7763 15.1747 59.1809C14.8497 57.0105 14.065 54.9934 13.1146 53.0437ZM23.6846 88.6408C22.4216 88.1258 21.0973 87.7702 19.8527 87.2122C18.1299 86.4459 16.8056 85.2993 15.377 84.0976C14.7149 83.5397 14.0343 83.0124 13.3354 82.5036C13.8565 84.6065 14.1447 86.7708 14.0037 88.9964C14.0037 89.0577 13.9975 89.1313 13.9853 89.1926C15.0705 89.7198 16.1863 90.1797 17.3635 90.4678C19.1047 90.897 20.895 90.6395 22.6424 90.9951C23.188 91.1055 23.7153 91.3752 24.2242 91.7002C24.077 90.6763 23.887 89.6586 23.6846 88.6408Z" fill="#366657"/>
<path d="M44.2238 130.853C44.2054 131.35 43.4329 131.35 43.4452 130.853C43.6965 123.692 41.2134 117.144 38.1969 110.811C37.7371 109.83 37.2589 108.861 36.7745 107.892C35.72 105.765 34.6409 103.65 33.6232 101.547C32.6667 99.5726 31.7838 97.58 30.9745 95.5506C30.5944 94.5696 30.2204 93.5947 29.8893 92.6015C29.4785 91.4366 29.1045 90.2533 28.7735 89.07C28.2707 87.2859 27.817 85.4833 27.4001 83.6747C27.0568 82.2155 26.7318 80.744 26.4069 79.2787C26.039 77.6233 25.6711 75.9801 25.2665 74.3309C24.0709 69.4138 22.5565 64.607 20.2635 60.07C20.2574 60.0393 20.239 60.0148 20.2267 59.9842C19.5891 58.7273 18.9085 57.4827 18.1912 56.2626C16.499 53.3319 14.6352 50.4994 12.7775 47.6668C10.092 43.5406 7.70705 39.2917 5.39563 35C5.49373 34.7302 5.59796 34.4666 5.70832 34.1907C6.31529 35.3556 6.9284 36.5205 7.56603 37.6731C7.64574 37.8203 7.73157 37.9674 7.81741 38.1084C8.39373 39.1385 8.98845 40.1685 9.60156 41.174C10.6193 42.8662 11.6923 44.5399 12.7652 46.2015C13.2005 46.8759 13.6419 47.5503 14.0834 48.2308C14.4942 48.8746 14.9172 49.5122 15.328 50.156C16.7443 52.3448 18.1299 54.5581 19.4236 56.8389C20.331 58.4575 21.1893 60.1007 21.9557 61.7867C22.1887 62.2895 22.4155 62.8044 22.6301 63.3256C23.2616 64.8277 23.8012 66.3543 24.2916 67.8994C24.9354 69.9042 25.4872 71.9459 25.9838 73.9875C26.2475 75.0605 26.4988 76.1396 26.7441 77.2186C27.6453 81.1793 28.4792 85.1645 29.5889 89.07C29.8587 90.0204 30.1407 90.9645 30.4534 91.8965C30.7783 92.8774 31.1278 93.8461 31.5018 94.8087C32.9365 98.4751 34.7084 102.007 36.4741 105.538C36.8236 106.237 37.1731 106.936 37.5225 107.635C37.9027 108.395 38.2767 109.168 38.6506 109.934C41.7898 116.525 44.4874 123.392 44.2238 130.853Z" fill="#366657"/>
<path d="M169.439 270.09C165.938 270.066 162.443 270.035 158.936 270.004C152.732 269.949 146.515 269.906 140.31 269.851C143.094 266.988 147.588 264.689 147.588 264.689C147.588 264.689 167.152 269.913 169.439 270.09Z" fill="#3B251D"/>
<path d="M50.0483 189.797V268.331C48.4787 268.159 46.9153 267.957 45.3887 267.717V189.797H50.0483Z" fill="#3B251D"/>
<path d="M329.54 245.174C326.566 252.942 316.861 260.054 306.512 267.589C301.601 268.41 296.653 269.073 291.687 269.594C259.431 273.003 226.145 270.612 193.92 270.299L223.135 116.298C223.135 116.298 226.243 90.8542 232.16 87.7457C238.089 84.6495 262.368 85.7347 282.944 86.5502C303.526 87.3656 335.199 94.7045 338.504 98.0092C341.79 101.308 332.514 237.406 329.54 245.174Z" fill="#FFC080"/>
<path d="M333.323 101.375L333.176 101.332C332.943 101.259 309.393 94.1955 287.744 91.6389C266.083 89.0822 233.552 89.4807 233.227 89.4869H233.221C233.006 89.4869 232.834 89.3152 232.834 89.1067C232.834 88.8921 233.006 88.7143 233.215 88.7143C233.546 88.7082 266.126 88.3097 287.836 90.8725C308.658 93.3311 331.214 99.9465 333.256 100.553L337.523 98.4444C337.713 98.3524 337.946 98.426 338.044 98.6222C338.142 98.8122 338.062 99.0452 337.866 99.1433L333.323 101.375Z" fill="#EDA458"/>
<path d="M326.628 222.225C326.616 222.225 326.609 222.225 326.597 222.225C326.383 222.207 326.223 222.023 326.242 221.808C326.284 221.232 330.846 164.096 331.612 152.073C332.379 140.056 332.9 101.351 332.906 100.958C332.906 100.744 333.084 100.578 333.292 100.578H333.298C333.513 100.584 333.685 100.756 333.679 100.97C333.672 101.363 333.151 140.087 332.385 152.122C331.619 164.157 327.057 221.299 327.014 221.869C326.996 222.072 326.824 222.225 326.628 222.225Z" fill="#EDA458"/>
<path d="M259.633 97.3654L250.897 99.2108C250.897 99.2108 248.469 112.803 251.773 121.154C255.072 129.505 254.98 131.932 264.98 132.221C274.979 132.515 286.727 111.154 288.474 107.169C290.221 103.19 290.319 101.344 290.319 101.344L275.562 96.6848L259.633 97.3654Z" fill="#C27353"/>
<path d="M317.756 233.218V265.008C316.223 265.48 314.666 265.903 313.096 266.264V233.212H317.756V233.218Z" fill="#3B251D"/>
<path d="M287.113 100.339C287.113 100.339 286.947 102.454 286.678 105.992C286.616 106.856 286.543 107.8 286.475 108.824C285.108 127.095 282.092 169.179 282.545 178.241C283.128 189.89 277.248 207.756 277.248 207.756L235.55 200.374C235.55 200.374 231.473 157.652 232.252 150.859C233.031 144.06 239.824 102.417 239.824 102.417L252.926 98.7816C252.926 98.7816 252.73 101.4 252.816 105.035C252.846 106.384 252.926 107.88 253.067 109.425C253.705 116.672 255.752 125.2 261.761 126.592C268.885 128.241 276.396 115.759 280.651 107.151L280.657 107.144C281.123 106.188 281.558 105.287 281.938 104.459C283.33 101.461 284.139 99.4009 284.139 99.4009L287.113 100.339Z" fill="white"/>
<path d="M253.754 127.31C253.184 127.303 252.619 127.322 252.055 127.377C251.307 127.444 250.498 127.592 250.014 128.168C249.462 128.824 249.542 129.805 249.775 130.633C250.185 132.073 250.976 133.398 252.049 134.44C252.196 134.581 252.35 134.716 252.534 134.789C255.06 135.795 254.03 131.847 253.79 131.013C253.748 130.866 253.717 130.712 253.754 130.565C253.821 130.302 254.097 130.142 254.367 130.099C254.637 130.056 254.912 130.093 255.182 130.069C256.034 129.989 256.776 129.051 256.433 128.266C256.126 127.561 255.225 127.377 254.459 127.334C254.232 127.322 253.993 127.31 253.754 127.31Z" fill="#D5E2ED"/>
<path d="M245.648 189.767C245.078 189.761 244.514 189.779 243.95 189.834C243.202 189.902 242.393 190.049 241.908 190.625C241.357 191.281 241.436 192.262 241.669 193.09C242.08 194.531 242.871 195.855 243.944 196.897C244.091 197.038 244.244 197.173 244.428 197.247C246.954 198.252 245.924 194.304 245.685 193.47C245.642 193.323 245.612 193.17 245.648 193.023C245.716 192.759 245.992 192.6 246.261 192.557C246.531 192.514 246.807 192.551 247.077 192.526C247.929 192.446 248.671 191.508 248.328 190.723C248.021 190.018 247.12 189.834 246.353 189.792C246.12 189.773 245.887 189.767 245.648 189.767Z" fill="#D5E2ED"/>
<path d="M274.324 166.781C274.005 166.315 273.655 165.862 273.293 165.426C272.809 164.856 272.221 164.28 271.473 164.213C270.614 164.139 269.86 164.77 269.321 165.439C268.383 166.604 267.751 168.014 267.518 169.491C267.487 169.688 267.463 169.896 267.512 170.092C268.143 172.735 270.78 169.62 271.319 168.946C271.417 168.829 271.522 168.713 271.663 168.658C271.914 168.559 272.208 168.694 272.398 168.891C272.588 169.087 272.717 169.332 272.895 169.54C273.447 170.19 274.648 170.258 275.09 169.528C275.488 168.872 275.121 168.032 274.716 167.382C274.587 167.174 274.458 166.978 274.324 166.781Z" fill="#D5E2ED"/>
<path d="M253.067 109.425C252.068 110.118 249.223 111.865 249.309 109.364C249.315 109.161 249.394 108.978 249.48 108.788C250.093 107.426 251.081 106.231 252.294 105.36C252.46 105.244 252.638 105.127 252.822 105.035C252.852 106.384 252.926 107.88 253.067 109.425Z" fill="#D5E2ED"/>
<path d="M272.84 197.504C272.656 196.965 272.441 196.438 272.202 195.923C271.889 195.242 271.473 194.531 270.767 194.267C269.958 193.967 269.069 194.371 268.37 194.874C267.156 195.745 266.175 196.94 265.556 198.301C265.47 198.485 265.397 198.675 265.391 198.878C265.292 201.594 268.665 199.289 269.37 198.786C269.492 198.7 269.627 198.614 269.78 198.602C270.05 198.577 270.295 198.786 270.43 199.019C270.565 199.258 270.62 199.528 270.737 199.773C271.099 200.545 272.233 200.932 272.858 200.343C273.416 199.816 273.287 198.908 273.067 198.173C272.993 197.958 272.919 197.731 272.84 197.504Z" fill="#D5E2ED"/>
<path d="M276.617 136.163C276.856 135.648 277.076 135.127 277.266 134.587C277.518 133.882 277.714 133.079 277.395 132.405C277.027 131.626 276.102 131.295 275.255 131.166C273.778 130.939 272.239 131.111 270.847 131.651C270.657 131.724 270.473 131.804 270.326 131.945C268.358 133.821 272.38 134.526 273.232 134.661C273.379 134.685 273.539 134.716 273.655 134.814C273.87 134.986 273.894 135.305 273.827 135.568C273.753 135.832 273.606 136.065 273.52 136.322C273.238 137.126 273.784 138.199 274.636 138.211C275.403 138.223 275.948 137.481 276.304 136.807C276.414 136.592 276.518 136.378 276.617 136.163Z" fill="#D5E2ED"/>
<path d="M262.999 148.02C262.54 147.689 262.061 147.383 261.571 147.095C260.921 146.721 260.173 146.377 259.45 146.567C258.622 146.788 258.125 147.634 257.837 148.45C257.347 149.86 257.236 151.405 257.512 152.87C257.549 153.066 257.598 153.269 257.708 153.434C259.192 155.709 260.621 151.883 260.909 151.067C260.958 150.926 261.019 150.779 261.136 150.681C261.344 150.503 261.663 150.534 261.908 150.651C262.153 150.767 262.356 150.957 262.595 151.092C263.337 151.515 264.489 151.172 264.655 150.338C264.808 149.584 264.177 148.915 263.576 148.443C263.38 148.302 263.189 148.161 262.999 148.02Z" fill="#D5E2ED"/>
<path d="M248.15 164.997C248.303 164.452 248.432 163.9 248.53 163.336C248.665 162.6 248.726 161.779 248.303 161.159C247.813 160.454 246.85 160.276 245.986 160.283C244.49 160.301 243 160.718 241.718 161.484C241.547 161.589 241.375 161.699 241.252 161.858C239.622 164.029 243.699 164.072 244.563 164.059C244.716 164.059 244.876 164.066 245.005 164.139C245.244 164.274 245.323 164.581 245.293 164.85C245.268 165.12 245.158 165.378 245.109 165.647C244.962 166.487 245.673 167.456 246.519 167.327C247.279 167.217 247.69 166.395 247.935 165.666C248.015 165.451 248.089 165.224 248.15 164.997Z" fill="#D5E2ED"/>
<path d="M287.775 107.893C287.653 108.469 287.076 108.8 286.475 108.824C286.212 108.831 285.942 108.775 285.709 108.647C285.476 108.506 285.274 108.322 285.028 108.205C284.777 108.089 284.464 108.058 284.262 108.236C284.146 108.334 284.084 108.475 284.035 108.622C283.747 109.438 282.318 113.257 280.835 110.989C280.724 110.817 280.681 110.615 280.639 110.425C280.436 109.339 280.436 108.224 280.657 107.145L280.663 107.138C281.129 106.182 281.564 105.281 281.944 104.453C282.128 104.3 282.343 104.183 282.576 104.122C283.299 103.926 284.054 104.269 284.697 104.649C285.194 104.931 285.666 105.238 286.126 105.575C286.31 105.71 286.506 105.845 286.684 105.992C286.69 105.992 286.69 105.992 286.702 105.998C287.291 106.47 287.922 107.138 287.775 107.893Z" fill="#D5E2ED"/>
<path d="M260.418 175.285C259.86 175.383 259.302 175.506 258.757 175.659C258.033 175.862 257.267 176.156 256.899 176.812C256.476 177.56 256.733 178.51 257.113 179.277C257.776 180.613 258.8 181.778 260.044 182.606C260.21 182.716 260.388 182.827 260.584 182.863C263.251 183.391 261.516 179.7 261.129 178.921C261.062 178.786 261.001 178.639 261.013 178.486C261.031 178.216 261.276 178.008 261.528 177.916C261.785 177.824 262.061 177.811 262.325 177.738C263.146 177.505 263.704 176.444 263.226 175.739C262.797 175.101 261.877 175.083 261.117 175.187C260.884 175.212 260.651 175.249 260.418 175.285Z" fill="#D5E2ED"/>
<path d="M327.823 178.167C327.891 170.687 328.044 146.923 326.039 140.166C324.322 134.373 321.747 125.679 318.467 120.571C310.313 107.886 285.733 99.3518 285.617 99.8361C285.605 99.8974 281.478 116.133 280.289 124.219C279.118 132.202 279.198 140.191 278.542 148.204C278.198 152.41 277.315 156.359 275.979 160.356C274.759 164.016 274.041 167.529 274.121 171.404C274.207 175.402 274.838 179.362 274.9 183.366C274.967 187.646 273.986 191.637 272.717 195.696C271.436 199.785 270.338 203.832 269.793 208.093C269.412 211.085 269.229 214.095 269.118 217.112C268.744 216.909 268.37 216.707 268.002 216.505C267.561 216.265 267.168 216.94 267.61 217.173C268.107 217.443 268.597 217.7 269.094 217.964C269.045 219.454 269.014 220.943 268.977 222.433C268.965 222.936 269.744 222.936 269.756 222.433C269.786 221.072 269.823 219.717 269.878 218.368C275.059 221.035 280.246 223.126 286.212 223.598C293.17 224.15 300.27 223.641 307.137 222.433C310.675 221.808 314.212 221.005 317.633 219.901C320.141 219.086 322.643 217.97 324.445 215.983C328.167 211.888 328.056 205.8 327.995 200.625C327.909 193.139 327.756 185.653 327.823 178.167Z" fill="#EB755E"/>
<path d="M311.999 124.109C305.402 130.21 301.797 138.468 301.312 147.389C301.171 150.025 301.135 152.735 300.19 155.243C299.338 157.505 297.812 159.418 297.057 161.736C296.224 164.292 295.972 166.953 295.972 169.626C294.795 170.705 293.642 171.809 292.766 173.158C291.356 175.322 290.804 178.026 289.835 180.399C288.67 183.256 287.254 185.978 285.721 188.651C285.224 189.516 284.697 190.362 284.605 191.373C284.483 192.759 285.108 194.028 284.709 195.432C283.827 198.553 280.559 199.908 277.745 200.754C275.317 201.483 272.864 202.152 270.418 202.826C270.357 202.734 270.295 202.654 270.24 202.556C269.989 202.127 269.314 202.513 269.572 202.949C269.59 202.986 269.615 203.01 269.639 203.041C269.21 203.157 268.781 203.274 268.352 203.396C267.873 203.531 268.076 204.279 268.56 204.144C269.075 203.997 269.59 203.862 270.105 203.715C273.109 207.492 278.652 205.223 282.416 203.832C283.863 203.298 285.378 203.053 286.678 202.195C288.192 201.195 289.228 200.374 291.104 200.196C292.674 200.049 295.813 201.03 296.788 199.466C297.523 198.289 297.701 196.321 298.008 194.886C297.977 194.488 297.946 194.083 297.928 193.691C297.763 190.564 298.308 187.345 297.671 184.267C297.137 181.705 296.426 179.651 296.806 177.014C296.831 176.836 296.837 168.842 296.757 168.909C296.8 166.542 297.076 164.194 297.818 161.938C298.547 159.725 299.951 157.898 300.822 155.758C301.637 153.747 301.864 151.576 301.999 149.424C302.287 144.759 302.759 140.369 304.58 136.01C306.389 131.681 309.123 127.843 312.563 124.661C312.919 124.318 312.367 123.772 311.999 124.109Z" fill="#D4553D"/>
<path d="M251.92 98.8857C252.092 98.4136 233.38 102.295 227.28 108.879C220.695 115.979 220.296 125.072 220.382 134.287C220.431 139.657 220.523 145.108 219.131 150.338C217.893 154.985 215.784 159.228 215.98 164.151C216.084 166.781 216.513 169.369 216.354 172.011C216.164 175.022 215.465 177.971 214.784 180.901C214.226 183.299 213.675 185.702 213.117 188.099C212.663 190.067 212.013 192.189 212.602 194.2C213.767 198.191 218.285 199.307 221.903 199.687C226.998 200.226 231.958 200.974 236.875 202.287C236.623 204.592 236.452 206.903 236.427 209.233C236.421 209.73 237.2 209.773 237.206 209.27C237.23 206.995 237.39 204.733 237.623 202.483C238.248 202.654 238.873 202.838 239.499 203.028C239.977 203.176 240.222 202.44 239.744 202.293C239.07 202.084 238.389 201.894 237.709 201.704C239.051 189.791 242.662 178.161 242.748 166.076C242.773 162.416 242.669 158.75 243.006 155.102C243.349 151.362 244.49 147.928 245.44 144.329C246.274 141.16 246.359 138.149 245.894 134.912C245.348 131.123 245.029 127.42 245.354 123.594C246.059 115.047 249.014 106.887 251.92 98.8857Z" fill="#EB755E"/>
<path d="M346.799 216.155C346.394 219.717 345.922 223.286 345.377 226.842L291.681 269.594C259.057 273.039 225.379 270.556 192.811 270.287H192.67C186.422 270.231 180.187 270.188 173.945 270.133C168.942 270.096 163.939 270.054 158.936 270.011L5.46912 232.672C3.24966 224.377 2.44649 215.683 2.10315 206.965L90.6912 162.324L346.799 216.155Z" fill="#964A35"/>
<path d="M282.545 268.987C282.429 268.987 282.318 268.938 282.239 268.84C282.104 268.674 282.134 268.429 282.306 268.294L345.609 218.387C345.781 218.252 346.02 218.283 346.155 218.454C346.29 218.62 346.259 218.865 346.088 219L282.784 268.907C282.717 268.962 282.631 268.987 282.545 268.987Z" fill="#73301E"/>
<path d="M176.717 269.312C176.686 269.312 176.655 269.306 176.625 269.299L5.16262 226.774C4.95416 226.725 4.82541 226.511 4.88059 226.302C4.92964 226.094 5.14423 225.965 5.35268 226.02L176.815 268.545C177.023 268.594 177.152 268.809 177.097 269.017C177.048 269.195 176.888 269.312 176.717 269.312Z" fill="#73301E"/>
<path d="M114.425 178.106C114.425 174.176 106.969 170.987 97.7787 170.987C93.7997 170.987 89.6428 171.502 85.9641 173.09C84.6398 173.661 83.291 174.384 82.3223 175.482C81.2616 176.689 81.1267 178.13 81.1267 179.663C81.1267 183.593 88.5821 186.781 97.7726 186.781C106.963 186.781 114.419 183.593 114.419 179.663C114.419 179.399 114.382 179.142 114.314 178.884C114.388 178.627 114.425 178.369 114.425 178.106Z" fill="#C7916D"/>
<path d="M109.753 182.03C106.276 185.555 99.5015 184.574 94.9952 184.5C93.6279 184.482 92.4508 184.31 91.1632 183.869C90.1148 183.513 89.1216 183.581 88.0793 183.293C86.5649 182.87 86.4239 181.741 85.3448 180.963C84.1248 180.086 82.7943 180.27 82.5245 178.265C82.4571 177.775 81.6846 177.768 81.7459 178.265C82.0647 180.687 84.1615 181.208 85.7679 182.661C86.7059 183.507 87.2823 183.912 88.5514 184.151C89.3607 184.304 90.1455 184.365 90.9548 184.611C91.6476 184.825 92.2423 185.064 92.9658 185.169C96.2582 185.635 100.108 185.481 103.395 185.163C105.896 184.923 108.471 184.421 110.292 182.569C110.654 182.22 110.108 181.668 109.753 182.03Z" fill="#AB7652"/>
<path d="M98.4715 175.905C98.2569 175.739 97.9319 175.721 97.6438 175.727C97.3372 175.733 97.0307 175.739 96.718 175.745C96.5954 175.745 96.4666 175.751 96.3563 175.813C96.1539 175.923 96.0926 176.199 96.1539 176.42C96.3379 177.082 96.9019 177.039 97.4782 177.076C97.7909 177.094 98.122 177.063 98.3734 176.873C98.6248 176.689 98.7596 176.321 98.6002 176.052C98.5634 175.99 98.5205 175.941 98.4715 175.905Z" fill="#AB7652"/>
<path d="M108.576 174.145C107.282 174.053 106.258 173.875 105.075 174.329C104.345 174.605 103.56 174.703 102.825 174.936C101.966 175.212 101.249 175.758 100.299 175.66C99.802 175.604 99.8081 176.383 100.299 176.438C100.838 176.493 101.243 176.408 101.764 176.224C102.592 175.935 103.211 175.721 104.088 175.598C104.603 175.525 104.756 175.384 105.21 175.206C106.399 174.74 107.349 174.832 108.582 174.924C109.078 174.954 109.072 174.176 108.576 174.145Z" fill="#AB7652"/>
<path d="M100.807 173.52C100.078 173.832 99.3544 174.151 98.6248 174.464C98.165 174.66 98.5635 175.334 99.0172 175.132C99.7468 174.819 100.47 174.501 101.2 174.188C101.654 173.992 101.261 173.323 100.807 173.52Z" fill="#AB7652"/>
<path d="M96.1356 174.409C95.2221 173.973 94.5293 173.372 93.5299 173.158C92.3405 172.907 91.3166 172.275 90.0658 172.152C89.5692 172.103 89.5692 172.882 90.0658 172.931C91.1326 173.035 91.8868 173.673 92.88 173.906C93.5176 174.053 93.9713 174.035 94.566 174.384C94.9646 174.617 95.3263 174.887 95.7493 175.083C96.1908 175.298 96.5832 174.623 96.1356 174.409Z" fill="#AB7652"/>
<path d="M95.3262 176.898C93.6402 176.647 92.3465 176.689 90.7708 177.309C89.704 177.726 88.8027 177.395 87.7359 177.517C86.9879 177.603 86.4177 177.916 85.7862 178.314C85.3632 178.578 85.7495 179.252 86.1786 178.983C87.5397 178.136 88.6924 178.664 90.1025 178.376C90.4643 178.302 90.826 178.112 91.1632 177.977C92.5611 177.425 93.6586 177.425 95.1239 177.646C95.6082 177.72 95.8167 176.972 95.3262 176.898Z" fill="#AB7652"/>
<path d="M96.5341 177.793C95.9087 177.866 95.2772 177.952 94.6948 178.216C94.0694 178.504 93.6525 179.178 92.9965 179.375C92.5183 179.516 92.7206 180.264 93.2049 180.123C93.7199 179.969 94.0449 179.638 94.4495 179.301C95.0504 178.792 95.7739 178.657 96.5341 178.571C97.0307 178.51 97.0307 177.731 96.5341 177.793Z" fill="#AB7652"/>
<path d="M105.479 182.961C104.958 181.514 104.02 180.944 102.641 180.478C101.519 180.098 101.414 179.448 100.709 178.645C100.243 178.112 99.6671 177.805 98.9865 177.615C98.5022 177.48 98.2999 178.228 98.7781 178.363C100.213 178.761 100.342 180.024 101.39 180.809C101.758 181.085 102.181 181.146 102.61 181.263C103.646 181.539 104.357 182.127 104.731 183.17C104.897 183.636 105.645 183.433 105.479 182.961Z" fill="#AB7652"/>
<path d="M301.276 231.354L284.127 232.74L285.648 249.441L303.906 246.823L301.276 231.354Z" fill="white"/>
<path d="M285.543 245.265C285.059 245.265 284.568 245.247 284.09 245.216C278.352 244.842 272.073 243.34 264.9 240.637L264.55 240.502C264.348 240.428 264.226 240.189 264.305 239.993C264.385 239.79 264.581 239.686 264.783 239.76L265.176 239.913C272.276 242.592 278.48 244.076 284.139 244.45C287.303 244.659 290.638 244.156 293.52 243.034C297.223 241.593 299.718 239.012 300.381 235.94C300.926 233.396 299.516 230.98 296.187 228.754C293.875 227.209 290.877 225.91 287.708 224.53C279.688 221.048 270.602 217.105 270.479 207.762C270.369 199.503 271.27 195.089 272.214 190.417C272.674 188.142 273.152 185.788 273.551 182.857C274.219 177.928 274.133 164.715 274.054 151.944C273.986 141.423 273.913 130.541 274.274 124.495C275.059 111.314 276.843 77.0591 276.862 76.7158C276.874 76.5012 277.052 76.3357 277.272 76.3479C277.487 76.3602 277.653 76.5441 277.64 76.7587C277.622 77.102 275.838 111.363 275.053 124.544C274.697 130.565 274.765 141.436 274.832 151.944C274.912 164.746 274.998 177.983 274.323 182.968C273.925 185.923 273.441 188.289 272.975 190.576C272.037 195.211 271.148 199.583 271.252 207.755C271.368 216.597 279.829 220.269 288.014 223.819C291.221 225.211 294.243 226.523 296.616 228.105C300.184 230.49 301.748 233.255 301.135 236.1C300.417 239.429 297.744 242.218 293.796 243.751C291.251 244.744 288.37 245.265 285.543 245.265Z" fill="#FFE1C7"/>
<path d="M289.173 54.9996C289.038 53.945 288.302 53.2644 288.063 52.2528C287.597 50.297 289.424 47.7587 287.8 45.9868C286.61 44.6871 284.268 44.73 282.361 44.9384C282.355 44.871 282.343 44.8097 282.337 44.7422C282.318 43.4424 282.57 42.1488 282.006 40.9164C280.565 37.7712 276.8 37.5627 273.281 38.5437C271.883 36.6308 269.952 35.7111 267.064 36.1219C265.715 36.312 264.373 36.6921 263.061 37.1826C261.485 36.0852 259.235 36.3794 257.598 37.1274C255.949 37.8815 254.692 39.1384 253.625 40.5547C253.214 39.9355 252.583 39.5369 251.602 39.6166C249.082 39.8312 246.917 42.5657 245.728 44.5338C244.073 47.2805 242.932 50.4503 243.325 53.6875C243.766 57.3416 244.588 60.9835 245.225 64.607C245.311 65.0974 246.059 64.889 245.973 64.3985C245.955 64.2943 245.937 64.1901 245.918 64.0858C247.923 64.1962 249.211 65.729 250.449 67.1452C251.706 68.586 252.993 69.9962 254.324 71.3696C256.752 73.8772 259.229 76.3664 261.792 78.733C264.348 81.0873 267.077 83.1229 270.136 84.7782C271.742 85.6489 273.398 86.5072 275.078 87.2307C275.826 87.5495 276.629 87.9296 277.45 87.6476C278.278 87.3656 278.664 86.6237 279.001 85.8757C279.799 84.1099 280.307 82.1541 280.945 80.3209L284.838 69.1317C285.69 66.6793 286.886 64.0674 287.131 61.4188C287.671 60.493 288.167 59.5427 288.535 58.5311C288.946 57.4581 289.326 56.1583 289.173 54.9996Z" fill="#3B251D"/>
<path d="M281.767 104.159C281.767 104.159 276.911 112.607 271.669 113.092C266.427 113.582 260.314 108.634 260.314 108.634L259.131 100.284L258.597 96.4887L258.168 93.4844L263.637 86.7525L276.144 71.3573L278.756 68.1447L278.958 70.5112L280.093 84.1039L281.767 104.159Z" fill="#C27353"/>
<path d="M274.838 90.2777C273.477 93.1287 269.921 98.0458 265.458 99.5356C262.926 100.376 260.645 100.406 259.137 100.284L258.174 93.4904L263.643 86.7585C269.008 82.9449 277.738 77.9481 278.02 77.8561C278.407 77.7151 276.199 87.4268 274.838 90.2777Z" fill="#944C2F"/>
<path d="M278.296 57.3293C278.468 57.1638 278.523 56.8327 278.266 56.6488C276.12 55.067 274.011 53.6752 271.344 53.1602C268.72 52.6575 265.979 52.5164 263.306 52.3386C257.512 51.934 251.694 52.0505 246.053 53.5403C245.93 53.571 245.851 53.6384 245.802 53.7365C245.795 53.7427 245.783 53.7426 245.777 53.7549C245.017 54.8646 244.845 56.0295 244.827 57.36C244.821 57.6788 244.821 58.0038 244.833 58.3287C244.839 60.3274 244.974 62.3262 245.072 64.3249C245.287 68.5676 246.55 80.6888 247.635 84.7292C249.676 92.3256 255.152 95.7038 258.585 96.4947C259.149 96.6357 259.664 96.6909 260.099 96.6909C263.251 96.6664 268.487 94.3243 270.786 92.1233C274.299 88.7573 277.009 84.7966 278.131 81.4797C278.499 80.4006 278.689 79.389 278.689 78.4877C278.695 76.7404 278.836 73.7484 278.94 70.5112C279.106 65.4592 279.13 59.8124 278.296 57.3293Z" fill="#C27353"/>
<path d="M252.803 70.9404C252.779 70.8423 252.754 70.7442 252.724 70.6461C252.546 70.0882 252.117 69.3525 251.485 69.4751C250.976 69.5732 250.731 70.2415 250.682 70.8362C250.639 71.3818 250.694 71.9582 250.909 72.4609C251.209 73.1721 252.135 74.0366 252.687 73.166C252.846 72.9146 252.901 72.602 252.92 72.2893C252.95 71.8417 252.908 71.3819 252.803 70.9404Z" fill="#3B251D"/>
<path d="M266.739 70.3885C266.715 70.2904 266.69 70.1984 266.66 70.1065C266.494 69.5731 266.083 68.8742 265.482 68.9906C264.998 69.0826 264.765 69.7202 264.716 70.2843C264.673 70.8054 264.728 71.3511 264.931 71.8293C265.219 72.5038 266.102 73.3314 266.629 72.4976C266.776 72.2585 266.831 71.9581 266.85 71.6638C266.874 71.2407 266.837 70.8054 266.739 70.3885Z" fill="#3B251D"/>
<path d="M261.295 81.4552C260.381 81.7985 259.137 82.3564 258.143 82.0438C256.096 81.3939 256.654 79.622 256.782 78.2241C256.972 76.1702 257.205 74.1224 257.457 72.0807C257.518 71.5841 256.739 71.5903 256.678 72.0807C256.427 74.1285 256.194 76.1763 256.004 78.2241C255.906 79.2603 255.581 80.5661 256.126 81.5287C257.242 83.5029 259.823 82.8408 261.497 82.2093C261.963 82.0254 261.761 81.2774 261.295 81.4552Z" fill="#944C2F"/>
<path d="M257.402 85.5201C257.212 85.5078 253.913 85.2503 253.913 85.2503C253.913 85.2503 256.402 88.788 260.026 88.4324C264.98 87.948 266.181 84.6372 266.181 84.6372C266.181 84.6372 261.933 85.7653 257.402 85.5201Z" fill="#944C2F"/>
<path d="M255.335 66.5198C255.262 66.3542 255.152 66.201 255.017 66.0906C254.722 65.8453 254.348 65.7289 253.98 65.643C251.712 65.0912 249.223 65.2997 247.199 66.4646C246.899 66.6363 246.599 66.8447 246.464 67.1635C245.838 68.6656 248.886 68.0158 249.456 67.9115C250.792 67.6663 252.166 67.6111 253.521 67.7399C253.876 67.7705 254.238 67.8196 254.587 67.746C254.937 67.6724 255.274 67.4517 255.385 67.1084C255.44 66.9122 255.415 66.7098 255.335 66.5198Z" fill="#3B251D"/>
<path d="M262.374 66.667C262.478 67.0042 262.821 67.2311 263.171 67.3046C263.52 67.3782 263.882 67.3353 264.238 67.2985C265.593 67.1697 266.96 67.231 268.303 67.4701C268.873 67.5744 271.92 68.2243 271.295 66.7222C271.16 66.4033 270.859 66.1949 270.559 66.0232C268.536 64.8583 266.046 64.6498 263.778 65.2016C263.41 65.2936 263.03 65.404 262.742 65.6492C262.613 65.7596 262.497 65.9129 262.423 66.0784C262.343 66.2685 262.313 66.4769 262.374 66.667Z" fill="#3B251D"/>
<path d="M284.139 71.167C284.139 71.167 280.755 58.819 279.921 56.3359C280.093 56.1704 280.148 55.8393 279.89 55.6554C277.745 54.0735 274.851 52.2833 272.19 51.7744C269.566 51.2716 266.255 50.9835 263.582 50.8056C257.788 50.401 250.596 50.9957 244.956 52.4856C244.833 52.5162 244.753 52.5837 244.704 52.6818C244.698 52.6879 244.3 53.9019 244.287 53.9141C243.527 55.0238 244.845 56.0355 244.833 57.3659C244.827 57.6847 244.827 58.0097 244.839 58.3346C246.035 56.8693 247.635 56.3053 250.001 56.2317C252.785 56.1336 255.562 56.1458 258.346 56.1091C260.927 56.0723 263.508 56.0416 266.096 55.9987C269.032 55.9619 272.404 55.6308 274.244 58.4327C276.77 62.2463 274.992 67.1634 276.138 71.3754C276.169 71.4981 276.2 71.6146 276.236 71.7433C276.61 72.9082 277.26 74.0118 277.285 75.2748C277.315 76.4336 279.915 83.9503 280.081 84.122L284.139 71.167Z" fill="#3B251D"/>
<path d="M126.454 249.232C124.418 249.232 122.125 248.736 119.538 247.742C116.148 246.437 113.407 244.211 111.819 241.476C110.323 238.889 109.918 235.756 110.709 232.868C110.722 232.826 110.734 232.783 110.746 232.734C110.703 232.734 110.654 232.734 110.611 232.734C98.0669 232.734 83.8674 228.35 83.7202 228.307L83.9532 227.565C84.0942 227.608 98.1896 231.955 110.611 231.955C110.74 231.955 110.869 231.955 110.997 231.955C111.874 229.576 113.53 227.62 115.731 226.388C120.954 223.469 127.643 224.156 132.327 225.241L132.15 225.995C127.594 224.935 121.114 224.266 116.105 227.062C114.149 228.154 112.659 229.864 111.825 231.949C117.509 231.967 122.61 232.286 127.153 234.622C129.507 235.83 131.573 237.773 132.824 239.938C133.781 241.593 133.983 243.598 133.376 245.308C132.83 246.835 131.678 248 130.139 248.582C129.023 249.018 127.79 249.232 126.454 249.232ZM111.561 232.734C111.525 232.844 111.494 232.96 111.463 233.071C110.728 235.756 111.102 238.681 112.5 241.084C113.996 243.671 116.601 245.774 119.82 247.019C123.922 248.601 127.214 248.877 129.881 247.865C131.205 247.362 132.193 246.363 132.659 245.051C133.192 243.555 133.008 241.795 132.168 240.33C130.991 238.288 129.041 236.461 126.816 235.315C122.34 233.022 117.251 232.746 111.561 232.734Z" fill="#3B251D"/>
<path d="M122.683 205.395L84.3762 229.895C83.8551 230.226 83.2236 230.33 82.635 230.177L57.755 223.831L55.787 223.335L33.9909 217.774C33.6231 217.682 33.5618 217.191 33.8928 217.014L73.2544 194.801C73.7265 194.537 74.2722 194.451 74.7994 194.562L122.542 204.635C122.91 204.715 122.996 205.193 122.683 205.395Z" fill="#3B251D"/>
<path d="M37.5898 216.762L48.1414 210.668L93.1314 221.906L83.4136 228.215L37.5898 216.762Z" fill="#544743"/>
<path d="M73.984 212.152L57.755 223.825L55.7931 223.329L73.0828 210.889L73.984 212.152Z" fill="#3B251D"/>
<path d="M280.35 69.2236C279.946 67.6356 278.885 65.6185 276.929 65.9005C275.188 66.1519 274.544 67.8196 274.299 69.3707C274.127 69.3953 273.956 69.5117 273.937 69.7324C273.643 73.172 274.299 76.7893 274.605 80.2166C274.624 80.4067 274.771 80.6274 274.992 80.6029C276.61 80.4373 278.284 77.991 279.057 76.7342C280.436 74.5086 281.006 71.7803 280.35 69.2236Z" fill="#C27353"/>
<path d="M238.653 260.961L282.962 227.117C283.348 226.823 283.226 226.216 282.76 226.094L200.603 204.451C200.603 204.451 205.845 225.615 206.428 226.394C207.01 227.173 238.653 260.961 238.653 260.961Z" fill="white"/>
<path d="M278.462 227.602L273.232 231.52L272.441 232.12H272.435L265.311 237.473L264.514 238.061L257.389 243.414L256.598 244.002L249.468 249.355L248.677 249.943L237.623 258.233L234.385 249.668L234.097 248.913L232.981 245.946V245.94L232.65 245.063L231.148 241.102L230.86 240.348L229.646 237.136L229.315 236.253L227.733 232.059L227.445 231.305L226.317 228.325L225.986 227.442L224.318 223.022L224.03 222.268L222.988 219.509L222.657 218.626L220.903 213.979L220.615 213.224L219.922 211.397L222.277 212.01L223.245 212.262L233.92 215.045L234.888 215.303L245.562 218.086L246.531 218.338L257.212 221.121L258.174 221.373H258.18L268.254 223.997L269.216 224.254L278.266 226.609C278.732 226.701 278.848 227.314 278.462 227.602Z" fill="#FFE1C7"/>
<path d="M105.418 177.738L129.409 232.997L238.653 260.961L216.023 201.103C215.851 200.65 215.465 200.312 214.993 200.208L107.055 175.764C105.909 175.5 104.946 176.659 105.418 177.738Z" fill="white"/>
<path d="M235.685 256.559C235.655 256.559 235.618 256.553 235.587 256.547L128.011 228.81C127.803 228.755 127.68 228.546 127.729 228.338C127.784 228.129 127.999 228.007 128.201 228.056L235.777 255.793C235.986 255.848 236.108 256.056 236.059 256.265C236.016 256.443 235.857 256.559 235.685 256.559Z" fill="#FFE1C7"/>
<path d="M212.767 209.503C212.743 209.503 212.712 209.503 212.688 209.497L191.689 204.984C191.566 204.96 191.462 204.874 191.413 204.757L189.402 199.951C189.347 199.816 189.371 199.662 189.463 199.552C189.555 199.442 189.702 199.393 189.843 199.423L211.167 204.083C211.296 204.114 211.406 204.206 211.449 204.328L213.135 208.988C213.184 209.123 213.154 209.27 213.062 209.374C212.988 209.454 212.878 209.503 212.767 209.503ZM192.05 204.267L212.166 208.589L210.793 204.788L190.407 200.331L192.05 204.267Z" fill="#FFE1C7"/>
<path d="M326.904 205.469C326.511 203.09 325.788 200.729 324.525 198.663C321.6 193.869 315.671 191.551 310.595 189.755C308.713 189.086 305.249 187.829 303.336 189.019C302.631 189.454 302.349 190.184 302.079 190.926C300.564 190.87 299.154 191.484 298.179 192.569C294.421 193.991 290.368 195.634 287.72 198.737C286.561 200.098 283.312 203.733 281.374 203.782C280.099 203.813 274.605 206.21 273.109 207.762C270.547 210.416 275.482 213.936 277.138 216.333C279.492 219.742 279.596 222.433 283.508 223.819C285.488 224.524 298.431 224.107 300.791 223.292C305.745 221.575 310.282 220.005 315.359 218.736C319.191 217.78 325.261 215.799 326.904 211.734C327.67 209.84 327.222 207.406 326.904 205.469Z" fill="#EB755E"/>
<path d="M261.614 219.184C260.817 217.185 258.131 214.892 258.131 214.892C258.131 214.892 248.916 211.869 246.298 211.545C240.253 210.79 238.119 212.9 236.795 213.991C234.692 215.726 233 217.228 231.093 219.822C230.48 220.661 224.662 228.233 228.635 228.148C230.259 228.111 232.54 225.297 233.294 224.175C234.435 222.482 237.518 219.993 237.518 219.993C237.518 219.993 235.354 223.126 234.484 224.831C233.662 226.443 232.963 228.123 232.411 229.852C232.019 231.084 231.357 232.795 232.184 233.997C233.006 235.186 233.809 235.045 234.514 234.383C235.544 235.211 237.341 233.819 238.518 232.611C238.831 232.286 239.125 231.949 239.413 231.599C240.664 232.225 242.295 231.422 243.22 230.25C244.146 229.086 244.998 227.859 245.832 226.609C247.984 224.346 250.657 224.653 251.828 224.904C254.281 225.425 258.137 225.842 260.412 224.561C262.447 223.433 262.392 221.14 261.614 219.184Z" fill="#C27353"/>
<path d="M253.999 215.781C253.999 215.781 272.834 208.712 275.262 208.436C277.689 208.16 283.128 208.718 285.844 213.292C288.56 217.866 287.885 221.066 286.622 222.525C285.359 223.985 258.855 225.156 258.855 225.156L253.999 215.781Z" fill="#C27353"/>
<path d="M241.479 219.993C238.732 224.003 236.335 228.215 234.281 232.623C234.073 233.071 234.741 233.469 234.95 233.016C237.003 228.607 239.401 224.395 242.147 220.386C242.429 219.975 241.755 219.582 241.479 219.993Z" fill="#944C2F"/>
<path d="M244.281 222.636C242.227 224.493 240.633 226.719 239.53 229.263C239.333 229.717 240.002 230.116 240.198 229.656C241.277 227.173 242.822 225.002 244.827 223.187C245.201 222.844 244.649 222.298 244.281 222.636Z" fill="#944C2F"/>
<path d="M264.551 219.803C262.748 217.608 260.792 215.824 258.18 214.641C257.727 214.432 257.408 215.144 257.868 215.352C260.375 216.486 262.196 218.16 263.931 220.263C264.244 220.649 264.869 220.189 264.551 219.803Z" fill="#944C2F"/>
<path d="M234.238 104.232C228.365 107.255 221.063 112.736 216.814 117.904C213.656 121.748 212.203 126.144 208.132 129.412C202.761 133.723 199.181 139.976 195.245 145.647C194.147 147.229 193.485 149.069 192.621 150.791C191.701 152.612 189.855 156.26 189.855 156.26C189.855 156.26 185.987 151.092 184.19 149.4C182.756 148.051 174.546 138.597 172.639 138.431C168.556 138.063 162.014 141.184 159.359 144.17C156.564 147.309 154.117 152.453 156.318 156.107C156.987 157.217 157.71 158.179 158.158 159.418C158.587 160.601 169.089 178.731 172.639 182.385C175.834 185.671 178.2 188.418 182.547 189.791C185.306 190.662 188.163 191.189 191.039 191.502C193.546 191.778 203.319 188.528 206.207 186.603C208.157 185.303 212.136 180.46 214.049 179.123C220.076 174.911 220.701 166.548 223.681 159.988C227.089 152.471 229.566 144.568 229.199 136.23C228.806 127.389 234.686 104.005 234.238 104.232Z" fill="#EB755E"/>
<path d="M170.671 150.411C167.655 154.102 159.433 154.01 158.654 152.361C158.188 151.368 154.614 143.686 151.849 137.745C151.242 136.457 150.684 135.243 150.2 134.201C149.212 132.086 148.55 130.669 148.55 130.669L157.508 121.491C157.508 121.491 158.501 122.68 160.009 124.483C160.825 125.464 161.787 126.617 162.83 127.867C167.643 133.667 174.037 141.46 174.338 142.3C174.828 143.655 173.682 146.721 170.671 150.411Z" fill="#C27353"/>
<path d="M250.97 78.972C249.793 78.972 248.659 78.5184 247.739 77.6784C246.721 76.7403 246.084 75.4344 245.949 73.9875C245.673 70.9955 247.659 68.3591 250.388 68.1016C253.11 67.8503 255.556 70.0758 255.832 73.0678C255.967 74.5086 255.581 75.9126 254.753 77.0224C253.913 78.1443 252.724 78.831 251.393 78.9537C251.258 78.9659 251.111 78.972 250.97 78.972ZM250.811 68.8619C250.694 68.8619 250.578 68.868 250.461 68.8803C248.162 69.0948 246.488 71.3572 246.727 73.92C246.844 75.1708 247.389 76.305 248.266 77.1082C249.131 77.9052 250.216 78.2854 251.326 78.1811C252.429 78.0769 253.429 77.5006 254.134 76.5625C254.845 75.6061 255.176 74.3921 255.059 73.1475C254.839 70.7073 252.969 68.8619 250.811 68.8619Z" fill="white"/>
<path d="M265.139 78.6839C262.588 78.6839 260.375 76.5319 260.112 73.6994C259.836 70.7074 261.822 68.071 264.55 67.8135C265.881 67.6909 267.175 68.1446 268.211 69.0888C269.228 70.0268 269.866 71.3328 270.001 72.7797C270.277 75.7717 268.29 78.408 265.562 78.6655C265.415 78.6778 265.274 78.6839 265.139 78.6839ZM264.973 68.5737C264.857 68.5737 264.741 68.5799 264.618 68.5922C262.319 68.8067 260.645 71.063 260.884 73.6319C261.123 76.1947 263.183 78.1137 265.489 77.893C267.788 77.6784 269.461 75.4161 269.222 72.8533C269.106 71.6025 268.56 70.4683 267.683 69.6651C266.905 68.9539 265.961 68.5737 264.973 68.5737Z" fill="white"/>
<path d="M255.449 72.7436L255.428 73.522L260.454 73.6552L260.474 72.8769L255.449 72.7436Z" fill="white"/>
<path d="M269.32 71.8846C269.21 71.8846 269.106 71.8416 269.026 71.7558C268.885 71.5964 268.897 71.3512 269.063 71.2102L276.531 64.6254C276.69 64.4844 276.935 64.4966 277.076 64.6622C277.217 64.8216 277.205 65.0668 277.039 65.2078L269.572 71.7926C269.504 71.8539 269.412 71.8846 269.32 71.8846Z" fill="white"/>
<path d="M158.023 118.542L159.274 125.041L155.81 133.968L148.943 131.687L137.134 127.101L144.884 114.404L158.023 118.542Z" fill="#C27353"/>
<path d="M135.148 128.119C134.792 128.119 134.431 128.088 134.075 128.021C129.605 127.205 127.018 121.583 128.177 115.225C128.716 112.276 130.004 109.634 131.8 107.776C133.719 105.795 135.994 104.931 138.213 105.336C140.433 105.74 142.254 107.359 143.351 109.885C144.381 112.258 144.651 115.182 144.111 118.131C143.572 121.08 142.284 123.723 140.488 125.574C138.882 127.242 137.018 128.119 135.148 128.119ZM137.159 107.574C135.92 107.574 134.633 108.205 133.474 109.401C131.996 110.927 130.924 113.147 130.47 115.642C129.575 120.547 131.414 125.164 134.492 125.728C135.92 125.985 137.453 125.36 138.814 123.956C140.292 122.429 141.359 120.21 141.818 117.714C142.272 115.213 142.058 112.767 141.211 110.811C140.433 109.02 139.219 107.886 137.79 107.629C137.588 107.592 137.373 107.574 137.159 107.574Z" fill="#393578"/>
<path d="M126.135 110.143C133.012 110.143 138.587 107.947 138.587 105.238C138.587 102.529 133.012 100.333 126.135 100.333C119.258 100.333 113.683 102.529 113.683 105.238C113.683 107.947 119.258 110.143 126.135 110.143Z" fill="#393578"/>
<path d="M136.552 128.456C136.552 131.16 131.886 133.355 126.135 133.355C125.786 133.355 125.442 133.349 125.111 133.33C119.839 133.091 115.712 130.994 115.712 128.45C115.712 127.604 116.172 126.795 116.988 126.096C118.759 124.581 122.193 123.545 126.135 123.545C127.276 123.545 128.373 123.631 129.397 123.784V123.79C130.85 124.017 132.162 124.391 133.247 124.869C135.289 125.764 136.552 127.04 136.552 128.456Z" fill="#393578"/>
<path d="M138.587 105.238L138.557 105.563V105.587L138.416 107.181L138.269 108.886L137.386 119.014L137.067 122.564L136.552 128.456L132.499 129.014L121.997 128.665L115.712 128.456L115.449 125.415L114.547 115.188L114.088 109.922L113.707 105.587V105.563L113.677 105.238H138.587Z" fill="#393578"/>
<path d="M136.791 105.238C136.791 107.2 132.021 108.788 126.135 108.788C120.249 108.788 115.479 107.2 115.479 105.238C115.479 103.276 120.249 101.688 126.135 101.688C132.021 101.688 136.791 103.276 136.791 105.238Z" fill="#C7916D"/>
<path d="M155.638 68.7883C153.811 66.6669 150.592 68.1813 148.55 69.009C145.295 70.3333 142.419 71.9397 140.065 74.5883C137.557 77.4147 135.559 80.6029 133.37 83.6684C132.297 85.1767 130.69 84.1466 129.489 85.3974C128.397 86.5316 127.833 88.3771 127.275 89.8179C126.767 91.1422 123.303 102.718 125.117 103.135C125.35 103.19 125.559 102.981 125.657 102.761C127.073 99.4744 128.091 95.0171 131.199 92.8467C133.701 91.0993 136.791 91.0748 138.25 88.0828C138.912 86.7217 139.262 85.238 140.145 83.9872C141.352 82.2828 143.155 81.0995 144.97 80.1308C147.851 78.5919 151.033 77.5435 153.547 75.3915C155.258 73.9261 157.526 70.971 155.638 68.7883Z" fill="#FFF1E6"/>
<path d="M145.16 63.5218C145.141 63.5035 145.129 63.4789 145.111 63.4606C143.829 62.0259 139.973 64.135 138.869 64.9075C136.92 66.2808 135.528 68.2428 134.265 70.2477C133.1 71.4984 132.254 73.025 131.892 74.7479C131.579 76.2438 132.174 77.4272 133.64 76.158C136.086 74.0428 136.736 70.5726 139.752 68.9969C141.15 68.2673 142.395 67.7217 143.511 66.569C144.154 65.9069 145.975 64.558 145.16 63.5218Z" fill="#FFF1E6"/>
<path d="M149.501 117.2C149.237 116.875 150.635 111.798 150.365 111.491C149.918 110.983 144.767 108.978 142.493 107.788C142.284 107.678 142.094 107.782 142.002 107.935C141.175 107.647 140.329 107.5 139.574 107.696C138.152 108.064 137.478 109.646 137.288 110.976C137.153 111.933 137.355 112.816 137.41 113.76C137.459 114.698 137.386 115.949 136.944 116.826C136.693 117.328 136.356 117.665 136.147 118.211C135.865 118.947 135.785 119.719 135.859 120.504C135.957 121.546 136.196 121.694 135.706 123.122C135.595 123.447 135.332 123.735 135.252 124.079C134.896 125.544 135.957 126.464 137.147 127.107C138.814 128.002 141.463 129.1 143.388 128.763C144.467 128.573 145.08 127.708 145.043 126.629C145.043 126.592 145.031 126.568 145.031 126.531C145.767 126.611 146.509 126.439 147.202 125.85C147.999 125.17 147.894 124.557 148.078 123.631C148.348 122.264 150.046 121.687 150.328 120.167C150.506 119.094 150.175 118.027 149.501 117.2Z" fill="#C27353"/>
<path d="M157.373 115.366C156.165 111.16 153.541 106.544 149.378 105.483C147.937 105.115 146.38 105.25 144.994 104.649C143.762 104.116 142.769 103.184 141.598 102.54C140.555 101.97 138.839 101.289 138.348 102.847C137.913 104.22 138.992 105.808 139.93 106.685C141.806 108.444 144.387 109.241 146.257 111.05C148.612 113.325 148.244 116.157 149.433 118.935C150.218 120.774 151.843 122.288 153.78 122.84C157.207 123.821 158.421 120.768 157.949 117.88C157.814 117.089 157.624 116.237 157.373 115.366Z" fill="#C27353"/>
<path d="M148.213 112.239C146.552 110.651 144.528 109.523 142.389 108.72C141.923 108.542 141.714 109.296 142.18 109.468C143.823 110.081 145.313 110.878 146.68 111.957C147.416 112.54 148.201 113.177 148.716 113.974C149.537 115.244 148.661 116.175 147.177 115.82C145.699 115.47 144.363 114.551 142.983 113.95C141.641 113.361 140.255 112.865 138.869 112.362C138.397 112.19 138.195 112.944 138.661 113.11C141.279 114.054 143.737 115.489 146.355 116.378C146.435 116.408 146.674 116.549 146.711 116.586C147.753 117.224 147.876 118.536 147.441 119.033C147.005 119.529 145.589 120.161 144.522 119.578C143.94 119.449 143.363 119.278 142.787 119.106C141.322 118.671 139.899 118.144 138.495 117.549C138.042 117.353 137.643 118.021 138.103 118.217C139.679 118.885 141.273 119.486 142.922 119.958C143.676 120.173 144.565 120.473 145.436 120.565C145.423 120.663 145.454 120.768 145.534 120.866C146.067 122.49 145.748 123.361 144.577 123.471C144.197 123.643 143.799 123.68 143.394 123.6C142.652 123.582 141.757 123.367 141.015 123.245C139.746 123.036 138.495 122.766 137.257 122.405C136.779 122.264 136.57 123.012 137.048 123.153C138.606 123.606 140.188 123.901 141.788 124.146C141.806 124.183 141.818 124.219 141.849 124.256C142.37 124.863 143.014 125.581 142.934 126.445C142.861 127.248 142.18 127.696 141.414 127.628C140.917 127.585 140.917 128.358 141.414 128.407C142.376 128.493 143.357 127.91 143.639 126.96C143.934 125.979 143.474 125.09 142.891 124.324C143.658 124.434 144.449 124.495 145.172 124.189C146.711 123.539 147.165 121.871 146.263 120.584C146.545 120.559 146.821 120.51 147.085 120.406C148.955 119.67 148.704 118.027 147.815 116.733C148.648 116.838 149.519 116.758 149.893 116.083C150.635 114.778 149.053 113.049 148.213 112.239Z" fill="#944C2F"/>
<path d="M152.628 125.574C150.684 123.496 149.427 120.921 149.954 118.021C150.04 117.53 149.292 117.322 149.206 117.813C148.63 121.001 149.93 123.827 152.082 126.12C152.419 126.488 152.971 125.942 152.628 125.574Z" fill="#944C2F"/>
<path d="M202.075 179.706C200.665 174.543 199.757 169.203 195.784 165.316C195.723 165.255 195.655 165.23 195.594 165.218C194.251 162.41 192.363 159.878 190.401 157.468C190.082 157.082 189.537 157.634 189.849 158.02C192.584 161.374 195.159 164.985 196.238 169.24C197.366 173.679 197.409 178.486 197.82 183.029C197.863 183.525 198.641 183.525 198.598 183.029C198.157 178.197 198.163 173.035 196.802 168.345C196.686 167.946 196.551 167.56 196.41 167.174C199.285 170.803 200.107 175.457 201.327 179.908C201.462 180.398 202.21 180.19 202.075 179.706Z" fill="#D4553D"/>
<path d="M322.379 205.027C320.282 201.079 317.4 197.449 313.47 195.199C311.398 194.01 309.117 193.341 306.824 192.728C304.384 192.078 301.968 191.502 299.504 192.324C299.032 192.483 299.234 193.231 299.712 193.072C302.342 192.195 304.991 193.017 307.566 193.734C309.663 194.316 311.717 195.015 313.581 196.168C317.149 198.375 319.761 201.753 321.704 205.42C321.944 205.861 322.618 205.469 322.379 205.027Z" fill="#D4553D"/>
<path d="M316.836 207.915C314.243 201.355 309.228 196.088 302.772 193.231C302.318 193.029 301.926 193.697 302.379 193.899C308.645 196.67 313.569 201.747 316.088 208.117C316.266 208.577 317.02 208.381 316.836 207.915Z" fill="#D4553D"/>
<path d="M288.535 211.471C286.671 208.546 284.139 205.113 280.24 205.634C279.749 205.702 279.743 206.474 280.24 206.413C284.035 205.91 286.518 209.558 288.21 212.421C290.044 215.524 290.381 219.031 289.228 222.439C289.069 222.912 289.817 223.12 289.976 222.648C291.276 218.798 290.706 214.886 288.535 211.471Z" fill="#D4553D"/>
<path d="M176.6 145.016C173.976 152.907 165.907 157.407 157.808 155.531C157.324 155.421 157.115 156.169 157.6 156.279C166.128 158.253 174.589 153.526 177.348 145.225C177.507 144.746 176.753 144.544 176.6 145.016Z" fill="#D4553D"/>
<path d="M227.01 112.993C226.979 112.497 226.2 112.491 226.231 112.993C226.581 118.205 224.208 122.907 223.264 127.929C222.362 132.729 223.607 137.469 223.38 142.282C223.135 147.469 219.885 151.521 218.457 156.365C217.09 161 217.065 165.899 217.065 170.687C216.826 170.883 216.9 171.38 217.298 171.38C217.402 171.38 217.482 171.343 217.543 171.288C217.703 171.257 217.844 171.141 217.844 170.926C217.844 165.672 217.85 160.27 219.634 155.255C221.21 150.822 223.938 147.131 224.165 142.282C224.41 137.046 223.086 132.03 224.3 126.819C225.373 122.215 227.335 117.819 227.01 112.993Z" fill="#D4553D"/>
<path d="M280.473 147.818V149.89C280.473 150.393 281.252 150.393 281.252 149.89V147.818C281.252 147.321 280.473 147.321 280.473 147.818Z" fill="#D4553D"/>
<path d="M275.17 169.7V171.772C275.17 172.275 275.948 172.275 275.948 171.772V169.7C275.942 169.197 275.17 169.197 275.17 169.7Z" fill="#D4553D"/>
<path d="M273.894 196.137C273.674 196.867 273.453 197.602 273.232 198.332C273.085 198.81 273.839 199.019 273.98 198.54C274.201 197.811 274.421 197.075 274.642 196.345C274.789 195.861 274.041 195.659 273.894 196.137Z" fill="#D4553D"/>
<path d="M162.836 127.861C161.321 131.154 159.077 133.968 155.613 135.948C154.412 136.641 153.149 137.236 151.855 137.745C151.248 136.457 150.69 135.243 150.206 134.201C151.021 133.901 151.812 133.551 152.591 133.159C156.527 131.203 158.679 128.162 160.015 124.477C160.831 125.458 161.793 126.611 162.836 127.861Z" fill="#3B251D"/>
<path d="M280.945 45.3797C279.866 45.5514 278.891 45.9621 278.094 46.7347C277.843 46.9799 277.585 47.2926 277.395 47.5869C276.923 48.3042 276.672 48.5434 275.899 48.9909C273.845 50.1988 272.38 51.707 271.448 53.9387C271.258 54.3985 272.006 54.6009 272.196 54.1472C272.662 53.0313 273.299 52.0197 274.17 51.1736C275.047 50.3214 276.071 49.9596 277.046 49.2914C277.512 48.9725 277.616 48.6905 277.935 48.2C278.707 47.0106 279.756 46.3545 281.141 46.1338C281.644 46.0541 281.435 45.3061 280.945 45.3797Z" fill="#544743"/>
<path d="M271 47.7221C269.296 49.353 267.64 51.1493 267.622 53.6447C267.616 54.1475 268.395 54.1475 268.401 53.6447C268.419 51.3578 270.007 49.7515 271.552 48.2677C271.914 47.9244 271.362 47.3787 271 47.7221Z" fill="#544743"/>
<path d="M252.423 43.3381C250.449 46.2136 249.364 49.4447 249.192 52.9271C249.168 53.4237 249.946 53.4237 249.971 52.9271C250.142 49.5734 251.197 46.4956 253.098 43.7305C253.38 43.3197 252.705 42.9273 252.423 43.3381Z" fill="#544743"/>
<path d="M32.7464 193.66C37.0366 193.66 40.5144 192.255 40.5144 190.521C40.5144 188.787 37.0366 187.382 32.7464 187.382C28.4562 187.382 24.9783 188.787 24.9783 190.521C24.9783 192.255 28.4562 193.66 32.7464 193.66Z" fill="#3B251D"/>
<path d="M44.3954 205.536C44.3954 207.271 39.1779 209.901 32.7464 209.901C26.3148 209.901 21.0973 207.271 21.0973 205.536C21.0973 203.801 26.3148 202.397 32.7464 202.397C39.1779 202.397 44.3954 203.801 44.3954 205.536Z" fill="#3B251D"/>
<path d="M44.3708 205.334L32.0964 205.536L21.1156 205.334L21.7655 202.82L24.1076 193.764L24.9966 190.3L40.5021 190.362L41.4524 194.034L43.7822 203.053L44.3708 205.334Z" fill="#3B251D"/>
<path d="M43.7823 203.053C40.5758 204.016 37.1178 205.027 34.2362 205.113C33.5863 205.131 32.9548 205.119 32.3356 205.082C27.9641 204.8 24.7882 204.046 21.7717 202.82L24.1077 193.764C26.3823 194.5 28.6079 195.438 32.9119 195.567C35.2233 195.634 38.387 195.009 41.4525 194.034L43.7823 203.053Z" fill="#544743"/>
<path d="M32.7403 156.892C32.3111 156.892 31.9617 156.543 31.9617 156.113V151.907C31.9617 151.478 32.3111 151.129 32.7403 151.129C33.1695 151.129 33.519 151.478 33.519 151.907V156.113C33.519 156.543 33.1695 156.892 32.7403 156.892Z" fill="#3B251D"/>
<path d="M34.5919 189.902C34.6471 189.712 34.6839 189.509 34.6839 189.295V156.647C34.6839 155.494 33.8132 154.556 32.7403 154.556C31.6674 154.556 30.7968 155.494 30.7968 156.647V189.295C30.7968 189.509 30.8335 189.706 30.8887 189.902H34.5919Z" fill="#544743"/>
<path d="M34.6899 157.34V158.915C33.4024 159.087 32.1026 159.111 30.809 158.946V157.37C32.1026 157.548 33.3963 157.53 34.6899 157.34Z" fill="#EB755E"/>
<path d="M34.3589 185.579H31.1217C30.717 185.579 30.3921 185.255 30.3921 184.85V175.285C30.3921 174.881 30.717 174.556 31.1217 174.556H34.3589C34.7636 174.556 35.0885 174.881 35.0885 175.285V184.85C35.0885 185.255 34.7636 185.579 34.3589 185.579Z" fill="#3B251D"/>
<path d="M274.661 124.906C274.654 124.906 274.642 124.906 274.636 124.906C274.421 124.894 274.256 124.71 274.274 124.495C275.059 111.314 276.843 77.0591 276.862 76.7158C276.874 76.5012 277.052 76.3357 277.272 76.3479C277.487 76.3602 277.653 76.5441 277.64 76.7587C277.622 77.102 275.838 111.363 275.053 124.544C275.035 124.747 274.863 124.906 274.661 124.906Z" fill="#FFE1C7"/>
<path d="M279.106 73.068C278.867 73.908 277.99 74.3985 277.144 74.1594C276.298 73.9203 275.801 73.0435 276.04 72.2035C276.279 71.3636 277.156 70.8731 278.002 71.1122C278.848 71.3513 279.339 72.2281 279.106 73.068Z" fill="white"/>
<path d="M277.236 77.801L277.076 77.7887C276.727 77.7642 276.469 77.4638 276.494 77.1143L276.764 73.2088C276.788 72.8593 277.089 72.6018 277.438 72.6202L277.598 72.6325C277.947 72.657 278.204 72.9574 278.18 73.3069L277.91 77.2124C277.886 77.5618 277.585 77.8255 277.236 77.801Z" fill="white"/>
<path d="M274.845 153.268H273.808C273.201 153.268 272.711 152.778 272.711 152.171V144.004C272.711 143.397 273.201 142.907 273.808 142.907H274.845C275.452 142.907 275.942 143.397 275.942 144.004V152.171C275.942 152.778 275.452 153.268 274.845 153.268Z" fill="#FFE1C7"/>
<path d="M250.173 255.167L250.89 264.775L268.143 269.98L282.545 258.852V248.699L264.489 244.879L250.173 255.167Z" fill="#D5E2ED"/>
<path d="M267.426 260.507C267.395 260.507 267.359 260.501 267.328 260.495L250.541 256.093C250.332 256.038 250.21 255.829 250.265 255.621C250.32 255.413 250.535 255.29 250.737 255.345L267.346 259.698L281.865 249.085C282.036 248.956 282.282 248.999 282.41 249.171C282.539 249.343 282.496 249.588 282.324 249.711L267.653 260.434C267.585 260.483 267.506 260.507 267.426 260.507Z" fill="white"/>
<path d="M267.916 269.637C267.714 269.637 267.542 269.477 267.53 269.269L267.034 260.139C267.021 259.925 267.187 259.741 267.401 259.729C267.61 259.698 267.8 259.882 267.812 260.097L268.309 269.226C268.321 269.44 268.156 269.624 267.941 269.637C267.929 269.637 267.923 269.637 267.916 269.637Z" fill="white"/>
<path d="M268.536 262.457C268.432 262.457 268.327 262.414 268.248 262.334C268.107 262.181 268.107 261.948 268.254 261.801C268.382 261.672 276.672 255.437 281.595 251.734C281.767 251.605 282.012 251.642 282.141 251.807C282.269 251.979 282.233 252.224 282.061 252.353C277.591 255.713 269.063 262.132 268.781 262.365C268.714 262.426 268.622 262.457 268.536 262.457Z" fill="white"/>
<path d="M268.922 265.075C268.805 265.075 268.689 265.02 268.615 264.922C268.487 264.75 268.517 264.505 268.689 264.376L281.601 254.45C281.773 254.321 282.012 254.352 282.147 254.523C282.275 254.695 282.245 254.94 282.073 255.069L269.161 264.995C269.087 265.044 269.002 265.075 268.922 265.075Z" fill="white"/>
<path d="M268.922 267.681C268.805 267.681 268.689 267.625 268.615 267.527C268.487 267.356 268.517 267.11 268.689 266.982L281.601 257.117C281.773 256.988 282.012 257.019 282.147 257.19C282.275 257.362 282.245 257.607 282.073 257.736L269.161 267.601C269.087 267.65 269.002 267.681 268.922 267.681Z" fill="white"/>
</svg>
