<svg width="350" height="271" viewBox="0 0 350 271" fill="none" xmlns="http://www.w3.org/2000/svg">
<rect width="350" height="271" rx="40" fill="white"/>
<path d="M232.7 167.915C232.7 167.915 220.816 149.197 232.7 135.96C244.584 122.724 253.433 109.623 247.112 92.4081C240.79 75.1928 225.873 79.7348 225.873 79.7348C225.873 79.7348 223.281 60.0197 198.157 57.7453C173.032 55.4709 157.859 79.2977 157.859 92.794C157.859 106.29 152.043 121.238 135.105 124.762C118.166 128.287 110.328 149.272 119.177 161.915C128.025 174.557 132.578 195.037 108.303 209.449C84.0325 223.86 91.112 240.041 91.112 240.041L230.166 241.769L232.7 167.915Z" fill="#DA6844"/>
<path d="M223.725 154.583C223.725 154.583 239.213 158.503 245.09 192.066C250.967 225.629 250.779 239.115 233.523 239.115C216.267 239.115 191.238 239.115 191.238 239.115C191.238 239.115 195.79 216.34 192.566 211.788C189.343 207.236 173.138 205.72 180.388 176.33C187.638 146.936 198.164 150.351 198.164 150.351L223.725 154.583Z" fill="#3F434F"/>
<path d="M193.294 151.406C193.294 151.406 172.779 168.489 160.39 189.853C155.206 173.42 153.184 160.146 153.184 160.146L144.715 158.503C144.715 158.503 140.541 215.138 153.563 218.171C166.585 221.203 183.65 188.716 183.65 188.716C183.65 188.716 183.848 164.916 193.294 151.406Z" fill="#3F434F"/>
<path d="M183.523 88.088C183.523 88.088 174.675 124.622 186.682 127.528C194.646 129.929 196.794 128.413 196.794 128.413L193.635 150.662C193.635 150.662 183.018 172.406 196.794 173.037C210.574 173.669 223.722 154.579 223.722 154.579C223.722 154.579 214.621 149.269 214.874 137.64C215.126 126.009 216.39 116.15 216.39 116.15C216.39 116.15 222.332 120.323 225.996 115.265C229.661 110.207 227.26 103.381 223.848 102.496C220.437 101.612 216.516 103.254 216.516 103.254L217.78 88.0846C217.78 88.0846 209.269 92.1314 204.106 90.359C198.942 88.59 197.3 83.785 193.127 83.5323C188.953 83.2796 183.523 88.088 183.523 88.088Z" fill="#FFA592"/>
<path d="M176.393 135.96H157.88C157.88 135.96 157.33 154.801 167.134 154.801C176.946 154.804 176.393 135.96 176.393 135.96Z" fill="white"/>
<path d="M152.125 144.508C152.125 141.838 154.342 139.666 157.064 139.666C159.785 139.666 162.002 141.838 162.002 144.508C162.002 147.179 159.785 149.351 157.064 149.351C154.342 149.351 152.125 147.179 152.125 144.508ZM153.638 144.508C153.638 146.342 155.175 147.838 157.06 147.838C158.945 147.838 160.482 146.346 160.482 144.508C160.482 142.671 158.945 141.179 157.06 141.179C155.175 141.179 153.638 142.674 153.638 144.508Z" fill="white"/>
<path d="M156.944 136.649H177.469V135.437H156.944V136.649Z" fill="white"/>
<path d="M175.389 136.493H159.078V137.63H175.389V136.493Z" fill="#B5CFE5"/>
<path d="M169.621 152.598L168.839 151.772C172.896 147.951 172.404 139.171 172.401 139.082L173.538 139.013C173.562 139.392 174.06 148.415 169.621 152.598Z" fill="#B5CFE5"/>
<path d="M187.058 109.562C186.03 109.316 184.65 108.865 184.507 107.793C184.343 106.546 185.962 105.402 188.625 103.958C191.368 102.472 191.993 98.5348 192 98.4938L193.123 98.6611C193.096 98.8455 192.413 103.196 189.165 104.955C186.01 106.663 185.6 107.37 185.634 107.639C185.637 107.656 185.709 108.066 187.321 108.452L187.058 109.562Z" fill="#EA8D81"/>
<path d="M190.036 99.3372C189.769 99.3372 189.51 99.1972 189.37 98.9445C188.936 98.1556 188.4 97.7082 187.734 97.5716C186.276 97.2711 184.64 98.5313 184.623 98.545C184.292 98.8011 183.817 98.743 183.557 98.4152C183.301 98.0873 183.356 97.6092 183.684 97.3531C183.773 97.2814 185.88 95.649 188.028 96.0861C189.144 96.3115 190.043 97.0286 190.695 98.2137C190.896 98.5791 190.763 99.0401 190.398 99.245C190.285 99.3099 190.159 99.3372 190.036 99.3372Z" fill="#C96E67"/>
<path d="M203.689 102.373C203.443 102.373 203.204 102.254 203.057 102.035C202.299 100.898 201.456 100.259 200.554 100.143C199.27 99.9725 198.201 100.905 198.187 100.915C197.873 101.192 197.395 101.164 197.119 100.854C196.842 100.543 196.866 100.065 197.177 99.788C197.242 99.73 198.751 98.3913 200.732 98.6372C202.094 98.8079 203.303 99.6685 204.321 101.195C204.553 101.543 204.458 102.015 204.109 102.247C203.979 102.332 203.833 102.373 203.689 102.373Z" fill="#C96E67"/>
<path d="M205.018 93.5487C205.397 93.675 205.772 93.8253 206.073 94.0883C206.373 94.3478 206.589 94.7371 206.551 95.1332C205.537 94.7371 204.512 94.341 203.433 94.2146C202.59 94.1156 201.722 94.1907 200.906 94.4298C200.329 94.5971 199.752 94.8498 199.157 94.7815C198.659 94.7235 197.87 94.1497 198.266 93.6511C198.567 93.2755 199.998 93.1799 200.452 93.1218C201.978 92.9203 203.553 93.0638 205.018 93.5487Z" fill="#DA6844"/>
<path d="M192.775 92.0495C193.089 92.2647 193.4 92.5208 193.536 92.8793C193.673 93.2379 193.577 93.7058 193.236 93.8765C192.823 94.0815 192.358 93.7741 191.965 93.535C190.77 92.8179 189.346 92.7086 187.987 92.6779C187.481 92.6676 184.947 92.9408 185.729 91.6704C186.225 90.8611 188.455 90.844 189.257 90.8884C190.511 90.9567 191.726 91.3528 192.775 92.0495Z" fill="#DA6844"/>
<path d="M194.352 116.966C190.657 116.966 187.509 114.698 187.358 114.589L188.031 113.67C188.069 113.697 191.894 116.443 195.742 115.699C197.737 115.313 199.42 114.046 200.739 111.932L201.705 112.536C200.209 114.93 198.273 116.371 195.951 116.819C195.415 116.921 194.878 116.966 194.352 116.966Z" fill="#D36D66"/>
<path d="M196.692 232.002L197.177 239.115H181.949C181.949 239.115 184.083 228.898 196.692 232.002Z" fill="#FFA592"/>
<path d="M145.227 158.602C145.227 158.602 141.05 148.138 146.928 143.081C152.805 138.023 155.336 143.839 154.451 144.662C153.567 145.485 150.469 143.904 149.837 146.178C149.205 148.452 149.964 150.928 152.743 150.228C155.523 149.528 153.44 146.875 154.892 145.673C156.346 144.47 159.823 150.413 156.408 154.46C152.996 158.506 153.228 160.436 153.228 160.436L145.227 158.602Z" fill="#FFA592"/>
<path d="M216.335 112.745C216.335 112.67 216.359 105.3 224.214 104.842L224.258 105.6C217.117 106.017 217.09 112.465 217.093 112.741L216.335 112.745Z" fill="#EA8D81"/>
<path d="M222.981 110.177C222.977 110.166 222.728 109.214 221.772 108.65C220.928 108.151 219.791 108.083 218.388 108.449L218.196 107.714C219.808 107.294 221.147 107.393 222.172 108.005C223.401 108.739 223.705 109.944 223.719 109.996L222.981 110.177Z" fill="#EA8D81"/>
<path d="M196.907 128.778L196.688 128.051C203.621 125.961 206.787 122.389 206.817 122.355L207.391 122.85C207.261 123.003 204.068 126.62 196.907 128.778Z" fill="#EA8D81"/>
<path d="M196.917 232.306L196.466 231.698C196.613 231.589 211.178 220.944 229.384 220.831C221.273 203.694 223.835 188.429 223.862 188.276L224.61 188.409C224.583 188.562 222.014 203.923 230.33 221.046L230.596 221.596L229.985 221.593C229.883 221.593 229.777 221.593 229.674 221.593C211.588 221.586 197.064 232.196 196.917 232.306Z" fill="#776E6D"/>
<path d="M178.667 195.734C178.64 195.577 176.14 179.789 187.731 155.935L188.414 156.266C176.939 179.881 179.388 195.45 179.415 195.608L178.667 195.734Z" fill="#776E6D"/>
<path d="M158.713 201.97C158.634 201.686 156.79 194.948 160.069 189.655L160.714 190.055C157.613 195.058 159.427 201.697 159.444 201.765L158.713 201.97Z" fill="#776E6D"/>
<path d="M238.857 223.468C238.789 223.447 231.962 221.497 229.398 221.586L229.374 220.828C232.061 220.729 238.782 222.655 239.069 222.737L238.857 223.468Z" fill="#776E6D"/>
<path d="M197.307 175.944C195.664 175.944 194.045 175.732 192.464 175.305C190.579 174.721 189.158 173.526 188.229 171.75C185.21 165.972 188.318 155.993 188.451 155.569L189.175 155.798C189.145 155.897 186.03 165.9 188.902 171.398C189.732 172.986 191.002 174.055 192.676 174.574C210.086 179.277 225.501 155.604 225.655 155.365L226.293 155.774C226.256 155.836 222.315 161.932 216.233 167.348C209.85 173.031 203.399 175.944 197.307 175.944Z" fill="#776E6D"/>
<path d="M202.948 213.065C195.507 213.065 190.234 210.2 190.152 210.152L190.521 209.49C190.651 209.562 203.546 216.552 217.404 208.236L217.793 208.885C212.503 212.065 207.347 213.065 202.948 213.065Z" fill="#776E6D"/>
<path d="M222.564 145.434C222.52 145.109 221.56 137.391 227.014 131.077C227.598 130.401 228.233 129.683 228.903 128.932C234.469 122.669 242.095 114.09 242.949 102.472C243.41 96.2261 240.784 91.4177 235.145 88.1802C230.897 85.7419 226.444 85.1545 226.399 85.1477L226.495 84.3964C226.679 84.4203 244.858 86.8962 243.707 102.53C242.833 114.404 235.111 123.092 229.47 129.438C228.804 130.185 228.172 130.899 227.588 131.572C222.363 137.62 223.305 145.256 223.316 145.331L222.564 145.434Z" fill="#C45639"/>
<path d="M218.866 134.324C218.835 134.116 218.152 129.205 224.982 123.915C231.682 118.725 237.42 107.356 236.785 100.526C236.153 93.7332 224.255 90.3864 224.135 90.3522L224.337 89.6215C224.849 89.7615 236.86 93.1458 237.539 100.454C238.205 107.626 232.444 119.093 225.447 124.513C218.968 129.533 219.61 134.157 219.617 134.205L218.866 134.324Z" fill="#C45639"/>
<path d="M217.78 125.141L217.1 124.803C217.199 124.605 219.573 119.903 221.796 119.298L221.994 120.029C220.42 120.459 218.418 123.864 217.78 125.141Z" fill="#C45639"/>
<path d="M230.518 109.22L229.961 108.705C229.968 108.694 231.174 107.24 230.904 102.045C230.641 96.9467 220.894 96.2466 220.795 96.2397L220.843 95.4816C221.273 95.5089 231.361 96.2329 231.659 102.004C231.952 107.602 230.576 109.155 230.518 109.22Z" fill="#C45639"/>
<path d="M161.886 115.32L161.305 114.831C164.064 111.543 164.157 106.341 164.262 100.321C164.348 95.5021 164.443 90.0415 165.973 84.6662C166.4 83.1704 169.255 77.3716 174.692 71.9246C179.289 67.3177 186.86 61.9321 196.821 62.4922C215.454 63.5236 219.996 80.9028 220.037 81.0769L219.299 81.2613C219.258 81.0906 214.839 64.2475 196.777 63.2503C178.192 62.2258 167.476 82.1527 166.701 84.8779C165.198 90.161 165.103 95.567 165.021 100.338C164.911 106.502 164.819 111.826 161.886 115.32Z" fill="#C45639"/>
<path d="M158.532 127.023L158.214 126.333C170.3 120.75 170.601 106.765 170.727 100.792L170.734 100.481C170.761 99.2381 171.632 70.0326 191.245 68.6563C208.88 67.4201 214.334 83.2488 214.385 83.4094L213.665 83.6484C213.613 83.4948 208.327 68.2226 191.296 69.4145C172.363 70.7463 171.516 99.2859 171.489 100.502L171.482 100.812C171.352 106.922 171.045 121.238 158.532 127.023Z" fill="#C45639"/>
<path d="M207.306 84.8574C207.214 84.4715 204.97 75.3704 195.24 75.005C185.484 74.6464 180.774 84.2666 180.726 84.3656L180.04 84.0412C180.088 83.9421 184.811 74.2366 194.697 74.2366C194.885 74.2366 195.077 74.24 195.268 74.2468C205.581 74.6327 208.02 84.5842 208.043 84.6832L207.306 84.8574Z" fill="#C45639"/>
<path d="M201.599 84.2495L200.848 84.1539L201.224 84.2017L200.848 84.1539C200.851 84.1334 201.094 81.9785 199.577 80.7457C198.065 79.5163 195.237 79.5572 191.395 80.8618L191.153 80.1446C195.319 78.7308 198.317 78.7342 200.066 80.1617C201.903 81.6677 201.613 84.147 201.599 84.2495Z" fill="#C45639"/>
<path d="M166.755 129.591L166.482 128.884C176.939 124.848 178.39 95.0104 178.404 94.7098L179.162 94.744C179.108 95.9939 177.67 125.38 166.755 129.591Z" fill="#C45639"/>
<path d="M175.539 132.146L175.235 131.452C178.459 130.039 179.132 124.977 179.138 124.926L179.89 125.022C179.862 125.244 179.152 130.561 175.539 132.146Z" fill="#C45639"/>
<path d="M179.016 143.859L178.558 143.255C181.969 140.67 184.674 129.827 184.702 129.718L185.439 129.899C185.323 130.356 182.635 141.11 179.016 143.859Z" fill="#C45639"/>
<path d="M175.553 158.971L175.221 158.288C187.918 152.1 190.234 131.958 190.254 131.756L191.009 131.838C190.985 132.047 188.625 152.602 175.553 158.971Z" fill="#C45639"/>
<path d="M160.865 177.528L160.11 177.467C160.117 177.368 160.994 167.375 168.449 161.368L168.924 161.959C161.718 167.765 160.871 177.433 160.865 177.528Z" fill="#C45639"/>
<path d="M157.484 165.22C157.456 165.002 156.883 159.825 161.339 155.822L161.845 156.386C157.678 160.129 158.228 165.08 158.235 165.128L157.484 165.22Z" fill="#C45639"/>
<path d="M101.487 236.236C100.162 226.203 110.527 217.741 116.824 213.588C128.223 206.071 133.503 196.287 132.96 183.675C132.601 175.305 130.952 172.023 129.043 168.226C127.414 164.981 125.566 161.307 124.054 153.869C121.574 141.677 126.506 133.46 138.718 129.444C145.5 127.214 154.352 120.47 154.441 120.401L154.902 121.002C154.813 121.071 145.859 127.894 138.957 130.165C127.004 134.096 122.373 141.8 124.798 153.715C126.29 161.054 128.114 164.684 129.723 167.884C131.669 171.76 133.353 175.107 133.718 183.641C134.265 196.362 128.722 206.648 117.241 214.22C111.093 218.273 100.968 226.51 102.238 236.134L101.487 236.236Z" fill="#C45639"/>
<path d="M113.624 235.775C112.565 229.294 117.534 225.175 123.821 219.96C126.82 217.474 130.218 214.653 133.442 211.187C142.201 201.761 140.637 188.542 139.493 178.887C139.356 177.73 139.227 176.64 139.124 175.616C138.714 171.559 137.202 166.887 135.74 162.372C133.814 156.423 131.823 150.269 132.202 145.188C132.878 136.165 151.231 130.534 152.013 130.298L152.231 131.026C152.043 131.08 133.595 136.739 132.96 145.246C132.591 150.177 134.558 156.259 136.464 162.14C137.939 166.696 139.462 171.405 139.882 175.541C139.985 176.555 140.115 177.644 140.251 178.799C141.409 188.6 142.997 202.021 134.002 211.703C130.744 215.207 127.325 218.044 124.31 220.544C117.971 225.803 113.388 229.601 114.375 235.656L113.624 235.775Z" fill="#C45639"/>
<path d="M126.871 235.84L126.157 235.584C126.181 235.516 128.643 228.747 134.121 223.492C141.064 216.829 144.633 210.06 144.667 209.992L145.34 210.344C145.305 210.412 141.686 217.286 134.647 224.038C129.296 229.174 126.895 235.775 126.871 235.84Z" fill="#C45639"/>
<path d="M138.636 236.291L137.905 236.086C138.028 235.656 140.955 225.472 147.437 220.896L147.874 221.518C141.617 225.933 138.667 236.189 138.636 236.291Z" fill="#C45639"/>
<path d="M149.916 235.83L149.195 235.594C149.366 235.065 153.464 222.631 158.313 219.557L158.72 220.199C154.096 223.126 149.957 235.704 149.916 235.83Z" fill="#C45639"/>
<path d="M160 235.512L159.427 235.014C159.505 234.925 167.145 226.036 168.859 216.023L169.607 216.152C167.855 226.377 160.079 235.424 160 235.512Z" fill="#C45639"/>
<path d="M172.25 235.915L171.608 235.509C171.683 235.386 179.268 223.191 178.404 207.762L179.162 207.721C180.04 223.403 172.329 235.792 172.25 235.915Z" fill="#C45639"/>
<path d="M186.416 227.921L185.699 227.675C187.642 221.989 186.935 214.776 186.928 214.705L187.683 214.626C187.71 214.927 188.41 222.078 186.416 227.921Z" fill="#C45639"/>
<path d="M266.697 173.478C261.971 166.525 257.162 159.381 255.106 151.229C254.201 147.64 253.877 143.75 255.25 140.314C256.623 136.879 260.044 134.075 263.736 134.348C266.666 134.567 269.207 136.64 270.72 139.16C272.233 141.68 272.882 144.611 273.431 147.496C275.211 156.802 276.235 166.248 276.498 175.718C276.563 178.017 276.601 180.318 276.553 182.617C276.505 184.932 276.734 186.988 274.606 185.123C271.451 182.364 269.071 176.968 266.697 173.478Z" fill="#00CECE"/>
<path d="M306.431 169.23C314.569 164.954 324.207 163.605 333.209 165.483C335.097 165.876 337.051 166.46 338.396 167.843C340.951 170.466 340.233 175.066 337.795 177.795C335.36 180.527 331.726 181.818 328.223 182.866C321.72 184.809 315.082 186.284 308.371 187.282C304.97 187.787 301.551 188.166 298.122 188.426C295.633 188.613 290.65 189.706 288.526 188.497C291.057 180.352 299.109 173.075 306.431 169.23Z" fill="#00CECE"/>
<path d="M284.486 137.876C287.375 128.929 292.061 120.685 296.739 112.53C298.693 109.125 300.721 105.638 303.771 103.169C306.821 100.7 311.175 99.4329 314.754 101.045C317.844 102.435 319.77 105.71 320.341 109.05C320.914 112.39 320.324 115.815 319.562 119.114C316.413 132.747 310.229 145.673 301.589 156.679C298.812 160.214 295.8 163.554 293.003 167.071C291.538 168.916 290.121 170.801 288.851 172.781C288.068 174.004 286.866 177.303 285.234 177.672C281.02 178.625 281.153 156.693 281.416 153.394C281.839 148.125 282.861 142.906 284.486 137.876Z" fill="#00CECE"/>
<path d="M282.034 214.735C278.878 195.239 285.603 168.625 285.671 168.359L286.986 168.697C286.918 168.96 280.262 195.304 283.376 214.52L282.034 214.735Z" fill="#00CECE"/>
<path d="M283.417 220.913C280.856 201.372 284.619 192.397 288.229 188.306C291.828 184.225 295.797 184.215 295.957 184.205L295.95 185.571L295.954 184.888V185.571C295.81 185.571 292.395 185.622 289.219 189.252C285.818 193.139 282.287 201.755 284.773 220.736L283.417 220.913Z" fill="#00CECE"/>
<path d="M285.736 177.771L284.735 177.569C291.729 142.879 311.943 102.527 312.144 102.124L313.056 102.582C312.855 102.985 292.703 143.217 285.736 177.771Z" fill="white"/>
<path d="M289.933 188.258L289.271 187.483C307.657 171.774 337.238 172.535 337.532 172.546L337.498 173.563C337.208 173.556 308.012 172.809 289.933 188.258Z" fill="white"/>
<path d="M275.955 184.703C275.624 184.782 275.293 184.871 274.965 184.963C276.048 189.392 278.65 200.949 278.12 207.68L279.135 207.762C279.688 200.788 277.055 189.167 275.955 184.703Z" fill="#00CECE"/>
<path d="M275.511 182.965C275.238 172.078 261.994 140.171 261.431 138.815L260.492 139.208C260.628 139.539 274.275 172.409 274.494 183.047L274.511 183.166C274.518 183.197 274.695 183.86 274.965 184.963C275.293 184.867 275.624 184.782 275.955 184.703C275.73 183.788 275.569 183.173 275.511 182.965Z" fill="white"/>
<path d="M269.456 236.462V201.97H295.954V239.115L269.456 236.462Z" fill="#4A5FB8"/>
<path d="M289.161 211.788H275.798C274.111 211.788 272.742 210.419 272.742 208.732C272.742 207.045 274.111 205.675 275.798 205.675H289.161C290.848 205.675 292.218 207.045 292.218 208.732C292.218 210.419 290.848 211.788 289.161 211.788Z" fill="#667ECC"/>
<path d="M289.161 221.979H275.798C274.111 221.979 272.742 220.609 272.742 218.922C272.742 217.235 274.111 215.866 275.798 215.866H289.161C290.848 215.866 292.218 217.235 292.218 218.922C292.218 220.609 290.848 221.979 289.161 221.979Z" fill="#667ECC"/>
<path d="M289.161 232.173H275.798C274.111 232.173 272.742 230.803 272.742 229.116C272.742 227.429 274.111 226.06 275.798 226.06H289.161C290.848 226.06 292.218 227.429 292.218 229.116C292.218 230.803 290.848 232.173 289.161 232.173Z" fill="#667ECC"/>
<path d="M109.324 195.399L125.877 233.522L160.632 233.856V238.04H122.978L104.54 193.692H106.722C107.849 193.688 108.874 194.361 109.324 195.399Z" fill="#FFD4CC"/>
<path d="M44.2881 193.688H104.536L122.974 238.036H60.3867L42.304 196.728C41.6722 195.297 42.724 193.688 44.2881 193.688Z" fill="#FFAD97"/>
<path d="M304.361 236.462H33.0117C31.5466 236.462 30.3582 237.65 30.3582 239.115C30.3582 240.58 31.5466 241.769 33.0117 241.769H304.361C305.827 241.769 307.015 240.58 307.015 239.115C307.015 237.647 305.827 236.462 304.361 236.462Z" fill="#4A5FB8"/>
<path d="M86.1783 222.283C89.2407 221.651 91.1426 218.329 90.4265 214.863C89.7103 211.398 86.6473 209.103 83.5849 209.735C80.5225 210.368 78.6205 213.69 79.3366 217.155C80.0528 220.621 83.1159 222.916 86.1783 222.283Z" fill="#FFD4CC"/>
<path d="M132.953 106.13C129.753 105.556 127.318 102.209 127.759 98.9888C128.199 95.7685 131.44 93.1969 134.678 93.5009C137.154 93.7365 139.285 95.3962 140.862 97.3223C142.423 99.2279 143.598 101.943 142.403 104.094C141.706 105.348 140.33 106.102 138.923 106.386C137.519 106.669 136.068 106.543 134.64 106.417L132.953 106.13Z" fill="#FFE8D9"/>
<path d="M96.9245 97.821C97.208 95.8779 98.7755 94.4128 100.247 93.1151C102.641 91.0046 105.035 88.8941 107.429 86.7836C108.826 85.5541 110.441 84.2428 112.296 84.393C113.826 84.516 115.123 85.6634 115.854 87.0158C116.582 88.3682 116.841 89.9152 117.09 91.4314C118.115 97.6844 118.152 106.71 110.445 108.934C104.899 110.532 96.0537 103.76 96.9245 97.821Z" fill="#FFE8D9"/>
<path d="M73.7088 99.9963C55.0728 104.378 21.4073 104.139 13.259 82.9928C11.5071 78.4507 9.17455 71.3098 10.2913 66.4502C11.3192 61.9833 14.4542 57.0691 16.1788 52.7456C18.3303 47.4489 20.5979 41.9814 24.7472 38.0507C31.4612 31.6884 41.4912 30.7219 50.7153 30.0902C60.0999 29.4481 69.481 28.8061 78.8656 28.1606C82.1064 27.9387 85.501 27.7406 88.4687 29.0656C94.1275 31.5928 96.1252 38.4673 97.4776 44.5153C99.192 52.189 100.92 59.9855 100.445 67.8333C99.5505 82.6308 88.0896 96.6154 73.7088 99.9963Z" fill="#FFE8D9"/>
</svg>
