<svg width="350" height="256" viewBox="0 0 350 256" fill="none" xmlns="http://www.w3.org/2000/svg">
<path d="M349.687 139.826C349.054 115.719 347.65 91.541 347.62 67.4702C347.603 58.8991 347.764 50.2563 346.665 41.7748C346.42 39.8456 346.115 37.9223 345.721 36.011C343.595 25.6958 338.828 15.5479 330.532 9.07325C327.844 6.97676 324.935 5.35811 321.859 4.1038C321.609 3.99629 321.352 3.90072 321.101 3.81113C311.717 0.185582 300.907 -0.136954 290.472 0.0362599C290.221 0.0362599 289.964 0.0422328 289.713 0.0541785C288.495 0.0720972 287.282 0.101962 286.082 0.131826C277.087 0.358796 268.08 0.508118 259.084 0.603685C258.828 0.609657 258.577 0.609657 258.326 0.609657C248.112 0.723142 237.904 0.770926 227.697 0.776898C227.446 0.782871 227.189 0.782871 226.938 0.776898C216.731 0.794817 206.517 0.770926 196.309 0.741061H194.768C184.817 0.705224 174.873 0.681332 164.928 0.651468H164.169C153.961 0.627576 143.754 0.603685 133.546 0.57382H132.788C122.58 0.549929 112.366 0.520064 102.159 0.496173H101.4C91.1924 0.472281 80.9787 0.442417 70.7711 0.418525H70.0125C68.1131 0.412552 66.2197 0.412552 64.3203 0.400606C56.006 0.376715 47.4469 0.418525 39.3775 2.13872C39.1207 2.19247 38.8698 2.24623 38.619 2.30596C34.7605 3.18995 31.0214 4.46815 27.4855 6.33766C24.7738 7.76518 22.2771 9.50329 19.9955 11.4743C11.6991 18.6657 6.15631 29.0645 3.31321 39.7978C-0.318304 53.4877 -0.121195 67.8644 0.105775 82.0202C0.679172 117.899 1.24659 153.778 1.81401 189.658C2.0589 204.793 2.38741 212.05 8.38419 225.949C14.6318 240.433 26.7389 249.9 42.2923 252.003C61.9491 254.667 83.117 252.964 103.019 253.197C144.966 253.681 186.914 254.165 228.862 254.649C232.212 254.685 235.575 254.726 238.926 254.762C261.7 255.025 284.248 255.945 306.718 252.266C318.706 250.306 332.957 251.722 339.826 241.705C343.565 236.258 343.308 231.056 344.461 224.551C349.454 196.27 350.452 168.603 349.687 139.826Z" fill="white"/>
<path d="M321.86 4.10382V63.9104C321.86 64.1135 321.692 64.2867 321.483 64.2867C321.274 64.2867 321.107 64.1135 321.107 63.9104V3.80518C321.352 3.89477 321.609 3.99631 321.86 4.10382Z" fill="#FFE1C7"/>
<path d="M290.472 0.0302734V63.9104C290.472 64.1134 290.305 64.2866 290.096 64.2866C289.887 64.2866 289.719 64.1134 289.719 63.9104V0.0481921C289.964 0.0362463 290.227 0.0302734 290.472 0.0302734Z" fill="#FFE1C7"/>
<path d="M259.084 0.591675V63.9103C259.084 64.1134 258.917 64.2866 258.708 64.2866C258.505 64.2866 258.332 64.1134 258.332 63.9103V0.597648C258.583 0.597648 258.828 0.597648 259.084 0.591675Z" fill="#FFE1C7"/>
<path d="M227.697 0.764893V63.9103C227.697 64.1134 227.53 64.2866 227.321 64.2866C227.118 64.2866 226.944 64.1134 226.944 63.9103V0.764893C227.195 0.770865 227.452 0.770865 227.697 0.764893Z" fill="#FFE1C7"/>
<path d="M196.309 0.729126V63.9104C196.309 64.1135 196.142 64.2867 195.933 64.2867C195.73 64.2867 195.557 64.1135 195.557 63.9104V0.729126H196.309Z" fill="#FFE1C7"/>
<path d="M164.928 0.651611V63.9105C164.928 64.1136 164.76 64.2868 164.551 64.2868C164.348 64.2868 164.175 64.1136 164.175 63.9105V0.651611H164.928Z" fill="#FFE1C7"/>
<path d="M133.546 0.573853V63.9104C133.546 64.1135 133.373 64.2867 133.17 64.2867C132.961 64.2867 132.794 64.1135 132.794 63.9104V0.573853H133.546Z" fill="#FFE1C7"/>
<path d="M102.159 0.502197V63.9104C102.159 64.1135 101.985 64.2867 101.782 64.2867C101.573 64.2867 101.406 64.1135 101.406 63.9104V0.502197H102.159Z" fill="#FFE1C7"/>
<path d="M70.7711 0.424438V63.9103C70.7711 64.1134 70.5979 64.2866 70.3948 64.2866C70.1858 64.2866 70.0186 64.1134 70.0186 63.9103V0.424438H70.7711Z" fill="#FFE1C7"/>
<path d="M39.3835 2.15063V63.9103C39.3835 64.1134 39.2163 64.2866 39.0073 64.2866C38.7982 64.2866 38.631 64.1134 38.631 63.9103V2.31788C38.8759 2.25815 39.1267 2.20439 39.3835 2.15063Z" fill="#FFE1C7"/>
<path d="M345.142 225.579C344.479 229.342 343.702 233.146 342.448 236.742C341.534 239.37 341.397 239.418 339.826 241.717C332.963 251.734 318.706 250.318 306.718 252.277C284.242 255.963 261.7 255.043 238.926 254.774C235.575 254.738 232.212 254.696 228.862 254.661C186.908 254.177 144.966 253.693 103.019 253.209C83.117 252.976 61.9551 254.679 42.2923 252.015C26.7449 249.912 14.6378 240.445 8.38419 225.961C2.39338 212.062 2.0589 204.805 1.81401 189.67C1.24659 153.79 0.679172 117.911 0.105775 82.0322C-0.121195 67.8764 -0.318304 53.4997 3.31321 39.8098C6.15631 29.0825 11.7051 18.6777 19.9955 11.4863L346.659 41.7749C347.758 50.2564 347.597 58.8991 347.615 67.4702C347.632 78.6157 347.931 89.785 348.325 100.966C348.779 113.921 349.341 126.883 349.681 139.82C350.452 168.603 350.141 197.285 345.142 225.579Z" fill="#D5E2ED"/>
<path d="M349.986 158.354C349.986 156.335 349.962 154.31 349.932 152.291C349.878 148.146 349.789 143.983 349.681 139.826C349.568 135.507 349.43 131.183 349.275 126.859C349.215 124.87 349.138 122.881 349.066 120.886C348.821 114.25 348.564 107.608 348.331 100.972C324.171 97.6273 299.79 96.3192 275.432 95.3516C249.014 94.3004 130.363 81.0346 117.348 79.6489C110.658 78.9381 103.962 78.3767 97.2488 77.8988C93.91 77.6659 82.7526 75.1155 82.7526 75.1155C82.7526 75.1155 79.0375 84.3555 77.7712 86.8343C76.8693 88.5963 75.9615 90.3583 75.0596 92.1263C74.4682 93.279 73.8709 94.4258 73.2796 95.5786C73.184 95.7757 73.0766 95.9728 72.975 96.1699C70.0602 101.784 67.1156 107.381 64.1351 112.966C63.938 113.336 63.7349 113.712 63.5378 114.083C63.06 114.973 62.5822 115.863 62.0984 116.747C58.3295 123.759 54.5068 130.735 50.6185 137.682C50.051 138.703 49.4777 139.724 48.8983 140.746C43.4869 150.38 37.9739 159.942 32.3414 169.445C31.5649 170.759 30.7825 172.079 29.9941 173.393C28.4949 175.914 26.9837 178.423 25.4666 180.937C23.7763 183.738 17.8094 194.233 18.0363 194.287C54.5486 202.422 83.0752 206.866 115.102 211.351C148.03 215.974 181.102 219.767 214.12 223.679C247.969 227.687 281.841 231.438 315.797 234.484C324.219 235.243 332.647 235.959 341.08 236.628C341.534 236.664 341.982 236.694 342.436 236.736C343.69 233.14 344.467 229.336 345.13 225.573C345.554 223.16 345.948 220.735 346.312 218.316C346.677 215.855 347.011 213.388 347.31 210.933C348.367 202.332 349.048 193.701 349.46 185.047C349.556 183.123 349.633 181.2 349.705 179.283C349.95 172.318 350.028 165.342 349.986 158.354Z" fill="#625DA8"/>
<path d="M349.932 152.291C343.977 151.772 338.052 151.061 332.187 149.902C327.122 148.905 322.128 147.573 317.302 145.763C312.631 144.007 308.164 141.618 303.242 140.62C298.249 139.605 293.124 139.886 288.065 139.957C282.743 140.035 277.427 139.76 272.129 139.258C261.175 138.207 250.346 136.194 239.493 134.414C229.053 132.712 218.606 131.404 208.04 130.878C197.128 130.341 186.203 130.341 175.291 129.72C164.426 129.099 153.717 127.587 143.061 125.371C132.823 123.239 122.675 120.683 112.414 118.634C101.137 116.388 89.9082 115.122 78.4104 114.979C73.4529 114.919 68.4476 114.847 63.5438 114.089C63.066 114.979 62.5882 115.869 62.1044 116.753C98.1388 119.058 133.026 129.768 168.715 134.821C188.246 137.58 207.939 138.9 227.601 140.405C247.533 141.934 267.428 143.923 287.282 146.193C308.522 148.624 329.367 152.781 349.992 158.354C349.986 156.329 349.962 154.31 349.932 152.291ZM349.066 120.886C313.163 113.647 276.304 111.717 239.81 109.627C230.289 109.083 220.774 108.576 211.247 108.068C201.948 107.566 192.618 107.047 183.402 105.649C174.437 104.281 165.859 101.432 156.984 99.688C148.168 97.9499 139.149 97.8962 130.195 97.938C111.739 98.0216 92.59 98.6786 75.0656 92.1263C74.4742 93.2791 73.8769 94.4259 73.2856 95.5787C73.19 95.7758 73.0825 95.9729 72.981 96.17C80.5009 99.1982 88.8211 99.6044 96.9203 99.5686C102.081 99.5447 107.247 99.3476 112.408 99.5327C118.393 99.7358 124.354 100.387 130.267 101.325C152.385 104.813 173.738 112.094 195.969 114.991C219.795 118.108 243.913 115.158 267.793 117.601C279.565 118.801 291.248 120.569 303.087 120.952C315.307 121.346 327.277 121.519 339.247 124.296C342.532 125.061 345.882 125.945 349.275 126.859C349.215 124.87 349.138 122.881 349.066 120.886Z" fill="white"/>
<path d="M290.806 176.643C268.294 174.66 245.771 172.725 223.289 170.413C211.922 169.242 200.568 167.833 189.327 165.7C178.361 163.61 167.693 160.51 156.924 157.613C146.573 154.83 136.198 152.972 125.56 151.736C114.218 150.41 103.132 148.833 92.1241 145.721C86.0496 144.001 80.011 142.125 73.853 140.728C68.1548 139.444 62.3671 138.601 56.5495 138.1C54.5844 137.927 52.6074 137.789 50.6304 137.694C50.0629 138.715 49.4895 139.736 48.9102 140.758C49.4238 140.835 49.9315 140.907 50.4452 141.003C60.7843 142.765 70.6395 146.456 80.5306 149.801C90.6607 153.223 100.803 155.935 111.47 157.004C122.992 158.157 134.561 158.342 146.053 159.931C168.111 162.983 189.602 168.986 211.415 173.28C222.094 175.383 232.869 177.079 243.734 177.79C255.166 178.548 266.652 178.035 278.072 178.984C290.83 180.041 303.14 183.757 315.821 185.315C327.002 186.695 338.327 186.582 349.472 185.053C349.568 183.129 349.645 181.206 349.717 179.289C330.054 179.743 310.391 178.369 290.806 176.643Z" fill="white"/>
<path d="M293.757 206.758C270.534 204.459 247.336 201.938 224.149 199.238C201.243 196.568 178.02 194.645 155.705 188.559C144.9 185.614 134.209 182.239 123.189 180.101C112.121 177.951 100.892 176.756 89.6811 175.562C76.714 174.176 63.7468 172.802 50.7857 171.417L32.3473 169.457C31.5709 170.771 30.7884 172.091 30 173.405C49.2745 175.329 68.5431 177.348 87.7041 180.262C98.1865 181.851 108.621 183.697 118.978 185.937C129.461 188.2 139.841 190.93 150.348 193.08C160.747 195.207 171.253 196.491 181.789 197.709C192.546 198.958 203.309 200.2 214.067 201.448C236.089 203.999 258.105 206.543 280.127 209.093C292.383 210.515 304.651 211.937 316.908 213.352C326.781 214.493 336.762 215.514 346.312 218.322C346.677 215.861 347.011 213.394 347.31 210.939C329.433 210.079 311.58 208.52 293.757 206.758Z" fill="white"/>
<path d="M240.879 245.701C240.879 247.433 238.466 248.843 235.485 248.843C232.505 248.843 230.092 247.439 230.092 245.701C230.092 243.969 232.505 242.56 235.485 242.56C238.466 242.56 240.879 243.969 240.879 245.701Z" fill="white"/>
<path d="M240.879 238.008C240.879 239.74 238.466 241.15 235.485 241.15C232.505 241.15 230.092 239.746 230.092 238.008C230.092 236.276 232.505 234.867 235.485 234.867C238.466 234.867 240.879 236.276 240.879 238.008Z" fill="white"/>
<path d="M235.187 231.826C235.139 231.79 235.091 231.767 235.043 231.743C234.9 231.683 234.715 231.707 234.613 231.826C234.512 231.952 234.542 232.137 234.566 232.298C234.667 232.937 234.643 233.672 234.47 234.335C234.291 235.046 234.004 235.774 234.189 236.515C234.434 237.483 235.802 238.259 236.489 237.232C236.662 236.975 236.722 236.658 236.758 236.354C236.925 234.807 236.417 233.206 235.396 232.029C235.336 231.964 235.27 231.886 235.187 231.826Z" fill="#EB8181"/>
<path d="M240.873 238.008H230.092V245.701H240.873V238.008Z" fill="white"/>
<path d="M235.838 240.66C235.718 240.66 235.599 240.66 235.473 240.654C231.74 240.529 230.653 238.821 230.612 238.749C230.504 238.57 230.558 238.337 230.737 238.229C230.916 238.122 231.143 238.175 231.257 238.355C231.275 238.384 232.236 239.794 235.497 239.902C238.878 240.003 239.661 238.462 239.69 238.396C239.78 238.211 240.001 238.122 240.192 238.211C240.383 238.295 240.467 238.516 240.383 238.707C240.347 238.791 239.475 240.66 235.838 240.66Z" fill="#FFE1C7"/>
<path d="M212.956 244.537C215.935 244.537 218.349 243.13 218.349 241.395C218.349 239.66 215.935 238.253 212.956 238.253C209.977 238.253 207.562 239.66 207.562 241.395C207.562 243.13 209.977 244.537 212.956 244.537Z" fill="white"/>
<path d="M218.349 237.829C218.349 239.561 215.936 240.971 212.956 240.971C209.975 240.971 207.562 239.567 207.562 237.829C207.562 236.097 209.975 234.687 212.956 234.687C215.93 234.687 218.349 236.097 218.349 237.829Z" fill="white"/>
<path d="M213.105 233.302C212.992 233.176 212.854 233.093 212.711 233.164C212.615 233.212 212.568 233.314 212.52 233.409C212.197 234.084 211.773 235.649 211.69 236.39C211.594 237.262 212.597 238.719 213.75 237.459C214.061 237.112 214.126 236.611 214.091 236.145C214.025 235.243 213.643 234.395 213.272 233.564C213.237 233.475 213.177 233.379 213.105 233.302Z" fill="#EB8181"/>
<path d="M218.343 237.829H207.562V241.395H218.343V237.829Z" fill="white"/>
<path d="M213.248 240.362C213.147 240.362 213.045 240.362 212.944 240.356C209.211 240.23 208.124 238.522 208.082 238.45C207.974 238.271 208.028 238.038 208.207 237.931C208.387 237.823 208.613 237.877 208.727 238.056C208.745 238.086 209.707 239.496 212.968 239.603C216.378 239.711 217.429 237.745 217.471 237.662C217.567 237.477 217.794 237.405 217.979 237.495C218.164 237.59 218.242 237.811 218.152 238.002C218.104 238.098 216.94 240.362 213.248 240.362Z" fill="#FFE1C7"/>
<path d="M240.025 14.5324C239.147 12.2269 236.919 9.79593 235.109 8.34452C233.419 6.98867 231.436 6.94686 229.429 7.07826C227.416 5.00567 224.907 3.64983 222.136 3.31534C220.135 3.07045 218.051 3.44077 216.05 3.55426C214.306 3.64983 212.968 4.76078 211.289 5.1968C208.315 5.97328 206.105 7.22161 204.307 10.0289C203.077 11.9581 201.936 14.3951 201.207 16.8738C200.879 17.9907 200.024 18.9106 199.857 20.2127C199.69 21.5267 200.072 22.7332 200.341 23.9995C200.616 25.2896 200.717 26.6096 201.082 27.8759C201.667 29.9305 202.742 31.9673 204.301 33.3052C206.075 34.8283 208.458 35.2404 210.644 35.4973C216.504 36.1722 222.309 34.685 228.151 34.4819C229.71 34.4281 231.119 34.6312 232.636 34.9776C233.526 35.1807 234.458 35.4017 235.36 35.1389C236.632 34.7686 237.433 33.7413 237.474 32.4451C237.755 32.0688 238.012 31.6746 238.263 31.2685C238.4 31.6388 238.998 31.591 238.986 31.1192C238.944 29.4706 239.732 28.1805 239.983 26.6036C240.21 25.1582 239.899 23.7367 239.899 22.2912C239.911 19.5258 241.064 17.262 240.025 14.5324Z" fill="#964A35"/>
<path d="M310.135 165.163C307.614 153.54 299.861 144.341 290.341 136.487C284.684 131.822 278.353 127.838 272.111 124.016C265.917 120.217 259.544 116.717 253.052 113.473C253.446 113.193 253.07 112.536 252.67 112.822C252.538 112.918 252.395 113.002 252.257 113.091C252.09 113.008 251.923 112.918 251.756 112.84C251.32 112.625 250.937 113.276 251.373 113.491C251.421 113.515 251.469 113.539 251.517 113.563C249.092 114.991 246.386 115.749 243.68 116.567C240.61 117.493 237.636 118.652 234.721 119.978C228.587 122.761 222.279 125.784 216.701 129.57C214.604 130.992 212.585 132.599 211.027 134.611C209.151 137.031 208.428 139.736 207.95 142.711C206.786 150.022 205.729 157.344 204.618 164.661C204.588 164.864 204.665 165.061 204.88 165.127C218.642 169.165 232.511 172.999 246.506 176.123C256.289 178.303 266.389 179.856 276.322 181.457C283.956 182.687 295.352 184.246 302.543 180.316C313.916 174.092 311.12 169.726 310.135 165.163Z" fill="#3B251D"/>
<path d="M233.401 159.381C232.35 156 231.287 152.626 230.218 149.251C229.662 147.507 229.107 145.763 228.551 144.019C228.139 142.729 227.888 141.158 227.171 139.999C226.042 138.177 223.396 138.004 221.467 138.124C219.042 138.273 216.731 139.079 214.509 140.041C214.801 137.98 215.154 135.92 214.831 133.829C214.354 130.807 212.663 128.113 210.519 125.981C205.245 120.742 197.719 119.273 191.071 116.484C191.089 116.448 191.101 116.412 191.119 116.376C191.328 115.94 190.677 115.558 190.468 115.994C190.438 116.06 190.414 116.125 190.384 116.191C190.336 116.173 190.289 116.155 190.247 116.131C189.805 115.934 189.423 116.585 189.865 116.782C189.942 116.818 190.014 116.848 190.092 116.878C190.056 116.974 190.008 117.069 189.972 117.165C189.9 117.129 189.811 117.117 189.709 117.153C183.492 119.321 177.375 121.77 171.39 124.523C165.513 127.229 159.481 130.03 154.266 133.907C145.755 140.244 133.086 148.839 130.052 159.017C128.684 163.61 128.195 169.666 131.223 173.722C139.244 184.479 158.202 180.878 169.216 178.548C175.918 177.133 182.584 175.562 189.208 173.83C204.086 169.947 218.756 165.264 233.144 159.847C233.323 159.775 233.467 159.59 233.401 159.381Z" fill="#3B251D"/>
<path d="M199.845 140.495C199.845 140.495 195.025 141.038 191.519 143.027C188.551 144.706 186.603 144.264 181.962 143.595C177.333 142.932 175.44 144.258 173.929 144.538C172.418 144.819 165.226 141.134 163.626 140.489C162.945 140.214 162.312 139.611 161.774 138.906C161.565 138.619 161.356 138.309 161.171 138.004C160.741 137.287 160.412 136.565 160.227 136.045C159.749 134.743 161.792 133.202 161.792 133.202C161.792 133.202 164.856 131.774 168.93 131.607C172.991 131.446 178.946 134.982 182.076 134.803C185.2 134.606 188.509 132.909 192.857 133.668C197.199 134.426 199.845 140.495 199.845 140.495Z" fill="#FFA280"/>
<path d="M164.474 135.979C162.73 135.693 160.98 135.555 159.558 134.396C159.182 134.092 158.644 134.623 159.021 134.934C160.568 136.194 162.359 136.391 164.271 136.708C164.749 136.792 164.952 136.063 164.474 135.979Z" fill="#DB7753"/>
<path d="M164.181 139.157C163.369 139.139 162.562 139.061 161.768 138.912C161.559 138.625 161.35 138.315 161.165 138.01C162.156 138.243 163.16 138.374 164.181 138.398C164.677 138.404 164.677 139.163 164.181 139.157Z" fill="#DB7753"/>
<path d="M161.786 133.208C161.786 133.208 150.175 132.963 145.116 131.362C145.128 131.332 145.146 131.302 145.158 131.273C145.361 130.866 144.751 130.508 144.548 130.914C142.535 134.994 140.314 138.966 137.894 142.818C137.817 142.944 137.835 143.147 137.948 143.248C140.732 145.667 145.158 152.895 145.158 152.895L161.786 133.208Z" fill="#FFA280"/>
<path d="M262.955 66.5565C264.902 63.0385 267.405 58.9291 265.559 54.9034C263.833 51.1345 260.799 47.6822 257.788 44.8988C251.009 38.6272 242.45 35.3959 233.473 33.7952C224.573 32.2064 214.807 31.2209 206.176 34.4462C206.075 34.4462 205.973 34.4821 205.896 34.5478C205.209 34.8106 204.528 35.0973 203.859 35.4138C203.417 35.6229 203.775 36.2918 204.217 36.0828C204.707 35.8499 205.197 35.6348 205.693 35.4377C205.693 35.4736 205.693 35.5094 205.693 35.5512C198.125 38.5078 192.511 39.6725 185.672 44.0686C183.115 45.7111 177.1 50.1609 176.539 53.4997C175.846 57.6091 177.327 62.3277 178.104 66.3295C178.534 68.5694 178.934 70.8271 179.089 73.1088C179.251 75.4382 179.155 77.7855 179.484 80.097C180.063 84.2243 182.446 87.8558 182.936 91.995C183.408 96.0028 181.897 99.8972 183.868 103.684C184.375 104.658 185.062 105.595 185.349 106.67C185.731 108.092 185.128 109.143 184.423 110.332C183.742 111.467 183.157 112.584 183.468 113.951C183.945 116.078 185.713 117.446 185.761 119.745C185.803 121.579 185.606 123.132 186.341 124.882C187.063 126.608 188.294 128.041 189.817 129.039C192.666 131.751 197.289 132.82 200.944 133.459C208.369 134.761 216.05 135.454 223.593 135.125C229.495 134.868 235.527 134.761 241.267 133.232C245.645 132.061 250.34 130.078 253.494 126.709C256.182 123.842 256.014 119.375 255.763 115.6C255.59 113.008 256.671 110.923 257.609 108.51C258.308 106.706 258.738 105.064 258.505 103.117C258.182 100.423 257.131 97.95 257.125 95.2025C257.119 92.9149 258.302 90.6511 258.397 88.3695C258.505 85.8609 258.003 83.5076 257.579 81.0467C257.066 78.0483 257.95 75.4262 259.347 72.6966C260.398 70.5643 261.802 68.6291 262.955 66.5565Z" fill="#FFC080"/>
<path d="M247.013 44.4148C243.788 41.4403 240.449 39.1049 236.137 38.0597C230.964 36.8054 225.194 36.1245 219.878 36.2379C214.198 36.3574 208.721 37.9761 203.411 39.8754C203.333 39.8575 203.25 39.8575 203.166 39.8934C199.565 41.506 195.151 43.3337 192.833 46.7443C189.829 51.1702 198.848 56.7907 201.643 58.2719C208.691 62.0169 216.014 64.3105 224.233 63.8387C233.025 63.331 240.867 58.9051 246.762 52.5081C247.76 51.427 248.871 50.0891 249.11 48.6018C249.396 46.8458 248.22 45.5318 247.013 44.4148Z" fill="#FFA280"/>
<path d="M205.776 38.3583C205.86 42.3064 206.033 46.3022 207.114 50.101C209.438 58.2779 216.737 64.0656 225.457 62.6441C228.121 62.208 230.713 61.109 232.666 59.2455C236.202 55.8827 238.221 49.7307 237.887 44.9165C237.731 42.6946 236.907 40.4548 235.294 38.9138C233.783 37.4683 231.705 36.7456 229.626 36.5127C227.548 36.2797 225.451 36.5067 223.378 36.7396C217.519 37.3907 211.666 38.1074 205.776 38.3583Z" fill="#DB7753"/>
<path d="M233.622 19.9916C231.209 16.9156 227.93 16.2406 224.185 16.6289C220.076 17.0529 215.972 18.1759 212.382 20.2544C209.163 22.118 205.024 25.3911 204.761 29.3989C204.755 29.4646 204.767 29.5184 204.791 29.5662C204.683 29.6199 204.6 29.7215 204.594 29.8708C204.235 38.1313 206.433 50.6027 213.213 56.6353C215.315 58.5108 217.292 60.661 220.488 60.9597C223.14 61.2105 224.579 60.6192 226.646 58.905C228.987 56.9638 231.854 54.7061 233.019 52.4722C236.728 45.3406 237.415 36.6918 237.582 28.8016C237.66 25.3075 235.838 22.8168 233.622 19.9916Z" fill="#FFA280"/>
<path d="M240.449 31.2265C239.248 28.7179 237.331 30.2828 236.113 31.8238C235.91 31.6207 235.462 31.7043 235.462 32.0806C235.462 32.3315 235.438 32.5764 235.426 32.8213C235.396 32.8989 235.39 32.9706 235.414 33.0363C235.312 35.0492 234.954 36.9963 234.601 38.9972C234.392 40.1978 233.831 42.4914 234.649 43.5486C235.999 45.2986 238.729 42.0255 239.29 40.8727C240.449 38.4776 241.673 33.7889 240.449 31.2265Z" fill="#FFA280"/>
<path d="M202.402 41.6315C202.963 42.7903 205.693 46.0634 207.043 44.3074C207.861 43.2502 207.299 40.9566 207.09 39.756C206.744 37.7551 206.386 35.8079 206.278 33.7951C206.302 33.7294 206.296 33.6577 206.266 33.5801C206.254 33.3352 206.23 33.0903 206.23 32.8394C206.23 32.4631 205.782 32.3795 205.579 32.5826C204.355 31.0416 202.444 29.4767 201.243 31.9853C200.019 34.5477 201.237 39.2364 202.402 41.6315Z" fill="#FFA280"/>
<path d="M188.598 71.9678C188.15 69.8773 187.475 67.8405 186.544 65.9173C185.54 63.8447 184.232 61.8736 183.796 59.574C183.42 57.6149 183.527 55.7096 182.661 53.858C181.951 52.3349 180.863 51.1105 179.537 50.119C180.051 49.677 180.577 49.2469 181.12 48.8288C181.503 48.5361 181.126 47.8791 180.738 48.1778C174.771 52.7411 170.369 58.7677 167.675 65.7799C166.164 69.716 165.501 73.8254 164.277 77.8332C163.124 81.608 159.773 83.5194 158.053 86.9836C156.793 89.5281 156.972 93.2612 155.771 96.1222C154.26 99.7179 151.775 101.647 151.142 105.386C150.527 109.024 147.792 111.568 146.615 114.961C146.173 116.239 146.089 117.493 146.334 118.819C146.782 121.256 145.815 121.704 144.041 123.55C142.637 125.007 141.419 132.061 142.183 132.533C144.041 133.674 146.221 134.444 148.198 135.358C150.139 136.254 150.7 137.15 152.642 138.046C154.033 138.685 155.73 139.826 157.342 139.611C160.335 139.211 162.801 135.4 164.456 133.22C167.006 129.863 168.744 125.987 171.594 122.857C173.851 120.378 175.846 118.162 176.342 114.734C176.659 112.548 178.152 110.547 179.597 108.755C180.756 107.315 182.291 106.264 183.647 105.028C186.036 102.848 187.553 100.04 188.395 96.9345C189.399 93.2193 189.512 89.319 189.542 85.4964C189.578 80.9749 189.548 76.3997 188.598 71.9678Z" fill="#FFC080"/>
<path d="M295.919 151.539C295.919 151.539 300.459 144.485 303.278 142.293C303.391 142.203 303.421 142.006 303.356 141.88C301.217 138.034 299.282 134.08 297.544 130.036C297.371 129.63 296.761 129.947 296.935 130.347C296.947 130.377 296.959 130.407 296.971 130.43C292.001 131.715 280.766 131.344 280.766 131.344L295.919 151.539Z" fill="#FFA280"/>
<path d="M299.509 129.6C299.109 129.075 298.631 128.752 298.147 128.322C296.905 127.241 296.307 126.381 296.552 124.78C296.588 124.529 296.648 124.278 296.678 124.028C296.923 122.068 296.122 120.474 295.256 118.777C293.297 114.943 293.028 110.768 291.977 106.664C291.547 104.98 290.956 103.296 289.994 101.838C288.752 99.9568 286.846 98.8399 286.38 96.4865C285.968 94.408 285.867 92.3593 285.228 90.3165C284.571 88.2141 283.603 86.2609 282.468 84.3795C281.208 82.2949 279.954 80.3 279.088 78.0064C278.174 75.5814 277.588 73.0489 276.824 70.5761C275.641 66.7535 274.011 63.0742 271.974 59.6338C267.411 51.9228 260.942 45.49 252.741 40.9805C252.311 40.7475 251.923 58.2421 250.902 66.0248C249.964 73.1743 249.635 80.5509 251.678 87.5511C252.598 90.7107 253.995 93.7509 255.949 96.4149C256.994 97.8304 258.242 99.0967 259.228 100.554C260.213 102.017 260.745 103.648 261.247 105.32C262.053 108.008 261.605 111.323 263.899 113.085C265.135 114.035 266.533 114.764 267.721 115.779C269.107 116.968 270.009 118.515 270.779 120.145C272.219 123.197 273.736 125.616 275.886 128.238C278.281 131.153 280.897 133.972 281.626 137.801C281.656 137.956 281.835 138.088 281.99 138.082C284.857 137.962 304.986 136.768 299.509 129.6Z" fill="#FFC080"/>
<path d="M313.712 162.953C314.172 163.437 314.644 163.98 315.152 164.458C315.158 164.464 315.176 164.476 315.182 164.488C315.498 164.775 315.827 165.037 316.191 165.252C319.052 166.961 321.728 163.359 319.202 161.472C319.219 161.466 319.231 161.448 319.255 161.442C320.36 160.528 319.106 158.64 318.718 157.679C317.792 155.355 315.056 146.701 312.572 144.974C308.994 142.49 307.387 142.514 303.027 141.916C302.991 141.797 302.89 141.689 302.734 141.671C300.22 141.415 298.022 142.43 295.883 143.648C295.268 144.007 294.468 144.359 294.175 145.064C293.757 146.038 294.378 147.238 294.683 148.146C295.25 149.842 295.812 151.545 296.373 153.247C296.72 154.292 297.06 155.337 297.412 156.377C298.302 159.065 299.216 161.74 300.184 164.398C300.698 165.808 304.18 176.541 306.593 174.755C307.835 173.847 306.169 170.921 305.882 169.917C305.589 168.896 305.338 167.869 305.112 166.829C305.643 168.364 306.27 169.869 307.017 171.327C308.074 173.394 309.89 177.383 312.607 177.586C312.727 177.592 312.852 177.527 312.912 177.425C313.736 176.189 312.261 173.686 311.7 172.521C310.935 170.927 309.991 168.227 309.418 166.578C310.63 168.884 312.5 171.948 314.256 173.812C314.901 174.498 317.021 176.846 318.079 175.556C319.034 174.373 316.669 171.643 316.161 170.604C314.967 168.173 312.703 162.093 312.44 161.358L312.416 161.304C312.41 161.286 312.41 161.28 312.41 161.28L312.416 161.286C312.476 161.4 313.073 162.272 313.712 162.953Z" fill="#FFA280"/>
<path d="M318.049 160.319C317.822 160.116 317.541 159.966 317.23 159.865C315.91 158.581 315.026 157.034 314.208 155.391C313.736 154.436 313.312 152.924 312.351 152.315C311.371 151.688 309.932 152.214 308.839 152.154C306.485 152.023 304.287 151.103 302.298 149.884C301.88 149.627 301.498 150.284 301.916 150.535C302.8 151.073 303.714 151.551 304.67 151.933C304.622 153.002 303.899 153.922 303.284 154.758C302.597 155.684 301.826 156.484 300.829 157.07C300.411 157.315 300.787 157.972 301.211 157.721C302.322 157.07 303.182 156.168 303.941 155.134C304.598 154.238 305.279 153.307 305.416 152.202C305.667 152.291 305.924 152.381 306.181 152.453C306.838 152.632 307.519 152.769 308.193 152.841C309.125 152.942 310.135 152.68 311.037 152.799C312.787 153.038 313.36 155.445 314.101 156.825C314.656 157.864 315.277 158.826 316.042 159.698C315.516 159.728 315.003 159.871 314.62 160.158C313.569 160.94 313.886 162.451 314.567 163.371C314.853 163.759 315.51 163.383 315.218 162.989C314.758 162.368 314.328 161.227 315.158 160.701C315.582 160.432 316.299 160.379 316.872 160.534C316.902 160.546 316.938 160.558 316.968 160.558C317.177 160.624 317.362 160.719 317.505 160.845C317.876 161.173 318.413 160.641 318.049 160.319Z" fill="#DB7753"/>
<path d="M309.818 166.089C309.376 164.942 308.934 163.801 308.486 162.654C308.313 162.206 307.578 162.398 307.757 162.857C308.199 164.004 308.641 165.145 309.089 166.292C309.263 166.74 309.997 166.543 309.818 166.089Z" fill="#DB7753"/>
<path d="M305.577 166.244C305.327 165.521 305.07 164.793 304.819 164.07C304.658 163.616 303.929 163.807 304.09 164.273C304.341 164.996 304.598 165.724 304.849 166.447C305.01 166.901 305.739 166.704 305.577 166.244Z" fill="#DB7753"/>
<path d="M147.194 146.617C146.925 145.876 146.119 145.458 145.51 145.064C143.378 143.684 141.156 142.52 138.551 142.645C138.384 142.651 138.283 142.753 138.235 142.878C133.701 143.26 129.419 144.682 125.817 147.382C123.297 149.275 122.024 155.839 120.943 158.186C120.495 159.16 119.098 161.03 120.185 162.039C120.203 162.051 120.215 162.063 120.233 162.075C117.521 163.885 120.083 167.749 123.129 166.148C124.151 165.611 124.987 164.691 125.811 163.903C126.558 163.192 127.83 161.567 127.83 161.567C127.83 161.567 127.215 162.965 126.892 163.664C125.698 166.393 124.545 169.171 123.094 171.769C122.514 172.808 119.922 175.496 120.848 176.768C121.863 178.166 124.509 176.159 125.214 175.484C127.131 173.656 128.768 171.488 130.148 169.165C129.455 170.837 128.469 172.384 127.597 173.985C126.952 175.161 125.292 177.658 126.074 178.984C126.134 179.092 126.253 179.163 126.379 179.157C129.192 179.104 131.288 175.084 132.501 173.011C133.355 171.554 134.09 170.037 134.717 168.478C134.424 169.535 134.108 170.586 133.749 171.625C133.397 172.641 131.521 175.568 132.746 176.577C135.141 178.554 139.334 167.665 139.937 166.238C142.249 160.803 144.333 155.26 146.501 149.771C146.86 148.851 147.571 147.65 147.194 146.617Z" fill="#FFA280"/>
<path d="M125.035 160.82C123.882 159.865 122.293 160.158 121.266 161.137C120.913 161.478 121.451 162.009 121.803 161.675C122.508 161 123.548 160.725 124.408 161.292C125.274 161.86 125.381 163.036 124.658 163.759C124.312 164.106 124.85 164.637 125.196 164.297C126.176 163.305 126.116 161.71 125.035 160.82Z" fill="#DB7753"/>
<path d="M138.749 152.464C136.951 153.229 135.075 153.42 133.134 153.33C131.963 153.277 130.524 152.829 129.377 153.205C128.547 153.474 128.135 154.107 127.657 154.788C126.665 156.209 125.692 157.643 124.706 159.076C124.432 159.477 125.083 159.859 125.357 159.459C126.146 158.318 126.928 157.171 127.717 156.03C128.087 155.493 128.457 154.716 128.971 154.292C129.825 153.581 131.157 153.94 132.131 154.017C134.556 154.22 136.867 154.071 139.125 153.115C139.579 152.93 139.191 152.273 138.749 152.464Z" fill="#DB7753"/>
<path d="M140.098 157.983C138.647 156.663 137.345 155.206 136.198 153.611C135.917 153.217 135.26 153.593 135.547 153.994C136.73 155.642 138.068 157.153 139.567 158.521C139.919 158.844 140.457 158.312 140.098 157.983Z" fill="#DB7753"/>
<path d="M131.384 165.444C131.038 166.429 130.584 167.361 130.028 168.251C129.771 168.663 130.422 169.045 130.679 168.633C131.265 167.689 131.742 166.692 132.113 165.647C132.274 165.181 131.545 164.984 131.384 165.444Z" fill="#DB7753"/>
<path d="M135.183 166.495C134.944 167.134 134.627 167.737 134.251 168.311C133.982 168.717 134.639 169.099 134.902 168.693C135.314 168.066 135.643 167.397 135.905 166.698C136.085 166.244 135.356 166.047 135.183 166.495Z" fill="#DB7753"/>
<path d="M276.46 139.623C276.31 140.142 275.946 140.674 275.307 141.134C273.342 142.549 266.622 145.775 256.97 149.46C247.324 153.145 234.082 159.017 234.082 159.017L228.784 146.713C229.447 146.713 235.683 146.151 237.015 144.162C238.329 142.173 236.638 137.281 240.509 135.191C244.385 133.094 247.7 135.651 251.29 136.218C254.885 136.786 265.29 138.124 268.038 137.359C270.779 136.594 273.963 137.18 275.301 137.359C275.964 137.449 276.454 138.022 276.537 138.757C276.579 139.031 276.561 139.324 276.46 139.623Z" fill="#FFA280"/>
<path d="M245.89 143.565C245.215 145.554 243.071 146.133 241.243 146.599C240.772 146.719 240.969 147.447 241.446 147.328C243.567 146.79 245.848 146.038 246.619 143.768C246.774 143.302 246.046 143.105 245.89 143.565Z" fill="#DB7753"/>
<path d="M276.459 139.623C275.259 140.136 273.945 140.423 272.577 140.465C272.093 140.483 272.093 139.724 272.577 139.706C273.993 139.671 275.325 139.348 276.543 138.763C276.579 139.031 276.561 139.324 276.459 139.623Z" fill="#DB7753"/>
<path d="M215.703 41.3209C215.005 41.2253 214.425 41.6972 213.756 41.7987C213.344 41.8584 212.944 41.8047 212.58 41.6135C212.215 41.4224 211.928 41.0401 211.463 41.1895C211.116 41.297 211.039 41.6972 211.188 41.9779C211.636 42.8201 212.884 43.1904 213.923 43.1605C214.64 43.1366 215.357 42.8977 215.823 42.4497C215.99 42.2944 216.121 42.1033 216.151 41.8943C216.205 41.518 215.996 41.3567 215.703 41.3209Z" fill="#3B251D"/>
<path d="M226.759 41.3209C227.458 41.2253 228.037 41.6972 228.706 41.7987C229.118 41.8584 229.519 41.8047 229.883 41.6135C230.247 41.4224 230.534 41.0401 231 41.1895C231.346 41.297 231.424 41.6972 231.275 41.9779C230.827 42.8201 229.578 43.1904 228.539 43.1605C227.822 43.1366 227.106 42.8977 226.64 42.4497C226.472 42.2944 226.341 42.1033 226.311 41.8943C226.257 41.518 226.466 41.3567 226.759 41.3209Z" fill="#3B251D"/>
<path d="M216.94 37.3728C216.755 37.2533 216.546 37.1578 216.342 37.0921C214.085 36.3275 211.534 36.4709 209.372 37.4743C209.091 37.6057 208.805 37.761 208.631 38.0179C207.909 39.0811 209.707 39.1348 210.292 39.1348C212.114 39.1348 213.935 39.1229 215.757 39.1109C216.115 39.1109 216.486 39.1049 216.814 38.9676C217.143 38.8302 217.435 38.5256 217.441 38.1672C217.453 37.8267 217.232 37.5639 216.94 37.3728Z" fill="#964A35"/>
<path d="M224.041 38.1672C224.047 38.5256 224.34 38.8302 224.669 38.9676C224.997 39.1049 225.367 39.1109 225.726 39.1109C227.548 39.1229 229.369 39.1348 231.191 39.1348C231.776 39.1348 233.574 39.087 232.851 38.0179C232.678 37.761 232.391 37.6057 232.111 37.4743C229.949 36.4709 227.398 36.3275 225.14 37.0921C224.937 37.1578 224.728 37.2533 224.543 37.3728C224.256 37.5639 224.035 37.8267 224.041 38.1672Z" fill="#964A35"/>
<path d="M223.259 50.2026C222.53 50.4833 221.796 50.776 221.013 50.8417C220.392 50.8954 219.98 50.9074 219.52 50.4534C219.018 49.9577 219.126 49.5814 219.132 48.8885C219.156 47.2221 219.317 45.5556 219.514 43.9071C219.574 43.4233 218.815 43.4293 218.755 43.9071C218.582 45.3765 218.451 46.8518 218.391 48.333C218.361 49.0916 218.188 50.1189 218.636 50.7998C219.657 52.3528 222.148 51.433 223.456 50.9253C223.91 50.758 223.713 50.0293 223.259 50.2026Z" fill="#DB7753"/>
<path d="M226.174 52.3707C224.77 53.0935 223.283 53.6848 221.652 53.7326C220.446 53.7684 219.269 53.4817 218.17 53.0337C217.662 52.8247 217.137 52.5201 216.641 52.311C216.336 52.1796 215.679 51.9944 215.99 52.538C218.039 56.0918 224.477 56.3248 226.61 52.6156C226.759 52.3289 226.496 52.2035 226.174 52.3707Z" fill="#DB7753"/>
<path d="M205.478 39.8695C204.056 38.663 204.868 37.3012 205.37 35.8736C205.531 35.4137 204.803 35.2166 204.641 35.6706C204.325 36.5605 203.805 37.4027 203.877 38.3823C203.937 39.1826 204.343 39.8874 204.946 40.4011C205.31 40.7177 205.848 40.1861 205.478 39.8695Z" fill="#DB7753"/>
<path d="M238.024 34.924C237.845 34.476 237.116 34.6731 237.295 35.127C237.773 36.3455 237.618 37.5998 236.853 38.657C236.567 39.0512 237.224 39.4275 237.504 39.0393C238.37 37.8328 238.568 36.3037 238.024 34.924Z" fill="#DB7753"/>
<path d="M231.346 16.5334C228.677 15.4881 225.636 15.1297 222.835 15.3388C219.932 15.5538 216.516 17.268 213.732 18.1759C208.321 19.9498 204.516 24.3638 204.212 30.0978C204.17 30.1515 204.14 30.2173 204.14 30.3068C204.116 32.045 204.194 34.2728 205.938 35.2405C206.601 35.6108 207.264 35.6287 207.992 35.4615C209.527 35.115 210.77 34.8403 212.347 34.8821C214.993 34.9478 217.107 34.0937 218.875 32.6542C218.463 33.7233 218.212 34.9119 219.114 35.3778C220.661 36.1782 222.566 33.4844 223.402 32.5765C224.973 30.8623 226.329 28.9809 227.482 26.9919C227.392 27.84 227.261 28.6822 227.064 29.5184C226.837 30.5099 225.983 31.9554 226.162 32.9708C226.484 34.8343 228.736 32.8274 229.776 33.0783C230.17 33.1738 230.546 33.5621 230.958 33.6994C231.454 33.8607 231.968 33.9145 232.487 33.9204C233.413 33.9324 234.655 33.8547 235.515 33.4785C237.343 32.6721 237.791 29.9365 237.881 28.1805C238.132 23.4559 235.695 18.2356 231.346 16.5334Z" fill="#964A35"/>
<path d="M184.28 102.752C182.392 99.0788 183.157 94.9814 183.145 91.0273C183.133 86.8642 181.282 83.1013 181.216 78.9501C181.186 76.8775 181.329 74.793 181.078 72.7323C180.851 70.8509 180.29 69.0351 179.699 67.2373C178.361 63.1518 176.981 59.0843 175.619 55.0048C175.464 54.5449 174.735 54.742 174.891 55.2079C176.252 59.2874 177.632 63.3549 178.97 67.4404C179.693 69.6503 180.314 71.8543 180.445 74.1897C180.571 76.5072 180.32 78.8307 180.583 81.1362C180.666 81.8589 180.816 82.5637 180.989 83.2626C177.692 76.8596 175.058 70.1521 173.123 63.2056C172.991 62.7397 172.262 62.9368 172.394 63.4087C174.598 71.3108 177.692 78.9083 181.64 86.1056C181.682 86.1773 181.735 86.2191 181.789 86.249C181.825 86.3924 181.867 86.5357 181.903 86.6791C182.41 88.7457 182.422 90.8302 182.345 92.9446C182.219 96.4507 181.974 99.9329 183.623 103.14C183.85 103.57 184.501 103.188 184.28 102.752Z" fill="#EDA458"/>
<path d="M248.011 120.934C239.368 126.829 227.822 128.101 217.603 127.725C207.138 127.336 196.799 124.499 187.995 118.747C187.589 118.479 187.207 119.136 187.613 119.398C196.524 125.222 207.013 128.083 217.603 128.477C227.942 128.86 239.649 127.551 248.393 121.585C248.787 121.31 248.411 120.653 248.011 120.934Z" fill="#EDA458"/>
<path d="M255.847 108.731C251.505 113.037 246.32 116.257 240.527 118.222C240.067 118.377 240.264 119.106 240.73 118.951C246.643 116.944 251.947 113.665 256.385 109.268C256.731 108.928 256.193 108.39 255.847 108.731Z" fill="#EDA458"/>
<path d="M266.706 55.6557C264.89 58.5048 264.06 61.7301 263.062 64.9256C262.489 66.7593 261.838 68.587 260.864 70.2475C260.07 71.6033 259.019 72.8218 258.451 74.3031C257.902 75.7366 258.003 77.188 258.206 78.6872C258.499 80.8434 258.714 82.9399 258.565 85.1259C258.296 89.0621 256.546 92.8429 256.988 96.8268C257.042 97.3047 257.8 97.3106 257.746 96.8268C257.34 93.1834 258.846 89.743 259.234 86.1652C259.431 84.3256 259.431 82.468 259.234 80.6343C259.001 78.4901 258.386 76.3757 259.287 74.3031C259.939 72.7979 261.044 71.5436 261.82 70.1041C262.519 68.808 263.044 67.4223 263.51 66.0246C264.639 62.6201 265.41 59.114 267.363 56.0499C267.626 55.6258 266.969 55.2495 266.706 55.6557Z" fill="#EDA458"/>
<path d="M297.442 131.392C292.873 134.355 287.486 135.525 282.104 134.683C281.626 134.611 281.423 135.34 281.901 135.412C287.485 136.29 293.076 135.125 297.819 132.043C298.231 131.786 297.854 131.129 297.442 131.392Z" fill="#EDA458"/>
<path d="M157.844 137.484C153.048 134.922 148.162 132.557 143.18 130.383C142.738 130.192 142.35 130.843 142.798 131.034C147.78 133.202 152.671 135.573 157.462 138.135C157.892 138.368 158.274 137.711 157.844 137.484Z" fill="#EDA458"/>
<path d="M232.78 159.96C226.807 162.624 220.643 164.787 214.318 166.459C213.846 166.584 214.049 167.313 214.521 167.188C220.906 165.503 227.129 163.305 233.162 160.611C233.604 160.414 233.222 159.763 232.78 159.96Z" fill="#544743"/>
<path d="M228.001 144.455C227.123 142.43 225.959 139.103 223.629 138.267C222.93 138.016 222.315 138.088 221.634 138.315C219.789 138.936 218.827 140.035 216.701 139.629C214.264 139.163 212.49 138.225 210.023 138.996C208.852 139.36 208.231 139.545 206.971 139.378C206.248 139.282 205.549 139.157 204.815 139.157C203.411 139.157 202.073 139.467 200.765 139.975C200.317 140.148 200.514 140.883 200.968 140.704C202.42 140.142 203.925 139.832 205.49 139.939C206.672 140.017 207.849 140.441 209.038 140.178C210.166 139.927 211.056 139.288 212.281 139.342C213.547 139.402 214.748 139.933 215.966 140.232C217.627 140.644 218.976 140.578 220.494 139.772C221.497 139.234 222.363 138.44 223.743 139.151C224.519 139.551 225.128 140.519 225.588 141.229C226.311 142.352 226.831 143.613 227.362 144.837C227.542 145.285 228.193 144.897 228.001 144.455Z" fill="#544743"/>
<path d="M171.779 144.945C169.401 145.225 167.066 145.691 164.778 146.306C164.719 146.199 164.623 146.115 164.474 146.097C160.932 145.715 157.414 145.41 153.872 145.978C153.394 146.056 153.597 146.784 154.075 146.707C157.133 146.217 160.185 146.414 163.237 146.724C158.716 148.098 154.409 150.123 150.432 152.781C150.031 153.05 150.408 153.707 150.814 153.432C157.109 149.227 164.253 146.581 171.773 145.697C172.256 145.643 172.262 144.885 171.779 144.945Z" fill="#544743"/>
<path d="M296.875 160.492C292.449 153.808 285.777 148.928 278.126 146.707C282.636 147.077 287.008 148.188 290.836 150.935C291.231 151.222 291.613 150.565 291.219 150.284C284.147 145.207 275.247 145.566 266.969 146.073C266.485 146.103 266.479 146.862 266.969 146.832C269.555 146.671 272.201 146.527 274.835 146.557C274.877 146.641 274.948 146.713 275.074 146.736C283.711 148.445 291.35 153.534 296.218 160.88C296.487 161.274 297.144 160.898 296.875 160.492Z" fill="#544743"/>
<path d="M228.324 14.2158C228.222 13.738 227.494 13.941 227.595 14.4189C228.336 17.8891 228.294 21.3415 227.482 24.7938C227.368 25.2656 228.097 25.4687 228.211 24.9969C229.053 21.4131 229.089 17.8115 228.324 14.2158Z" fill="#73301E"/>
<path d="M224.776 21.682C223.474 25.4509 221.366 28.7659 218.516 31.5493C218.17 31.8897 218.702 32.4273 219.054 32.0868C221.999 29.2079 224.161 25.7735 225.505 21.8851C225.666 21.4252 224.937 21.2281 224.776 21.682Z" fill="#73301E"/>
<path d="M233.27 9.04944C232.893 8.74483 232.356 9.27641 232.732 9.587C237.54 13.4813 237.636 19.8843 237.558 25.5645C237.552 26.0543 238.311 26.0543 238.317 25.5645C238.4 19.6872 238.239 13.0692 233.27 9.04944Z" fill="#73301E"/>
<path d="M223.247 18.7433C222.262 22.6436 218.146 24.4235 215.966 27.5533C215.237 28.5926 214.7 29.5184 213.446 29.9066C212.777 30.1097 212.09 30.0559 211.439 30.3008C209.945 30.8563 209.157 32.4929 207.503 32.7258C207.025 32.7915 207.228 33.5202 207.706 33.4545C209.503 33.1977 210.399 31.4357 212.09 30.9817C213.959 30.48 214.819 30.4681 216.038 28.7957C217.483 26.8067 219.06 25.3493 220.852 23.6888C222.297 22.3509 223.492 20.8756 223.982 18.9344C224.095 18.4685 223.367 18.2655 223.247 18.7433Z" fill="#73301E"/>
<path d="M226.747 7.22163C223.51 5.15501 218.015 4.57564 214.634 6.54669C214.216 6.79158 214.592 7.4486 215.016 7.19774C218.146 5.376 223.372 5.96135 226.365 7.87267C226.777 8.14145 227.159 7.48443 226.747 7.22163Z" fill="#73301E"/>
<path d="M131.139 206.286L99.5306 242.183L86.4022 236.419L30.4242 211.817L43.1465 196.807L49.0357 189.861L59.0224 178.07C59.2733 177.784 59.6735 177.676 60.0199 177.813L130.781 204.865C131.366 205.086 131.545 205.82 131.139 206.286Z" fill="white"/>
<path d="M98.1748 239.985C98.0852 239.985 97.9955 239.955 97.9239 239.896C97.7686 239.758 97.7507 239.519 97.888 239.364L126.397 206.477L60.4081 180.639L43.1764 200.725C43.039 200.887 42.8001 200.905 42.6448 200.767C42.4835 200.63 42.4656 200.391 42.6029 200.236L60.008 179.946C60.1155 179.826 60.2827 179.778 60.432 179.838L127.167 205.976C127.281 206.017 127.37 206.119 127.394 206.238C127.424 206.358 127.394 206.483 127.311 206.579L98.4495 239.866C98.3838 239.943 98.2823 239.985 98.1748 239.985Z" fill="#FFE1C7"/>
<path d="M15.7846 181.451L30.4242 211.817L99.5365 242.183L80.7697 206.65C80.6741 206.465 80.5129 206.322 80.3217 206.244L16.9135 180.25C16.1669 179.946 15.4322 180.722 15.7846 181.451Z" fill="white"/>
<path d="M98.8975 241.359C98.7601 241.359 98.6287 241.287 98.563 241.156L80.9071 207.732C80.6383 207.224 80.2023 206.824 79.6707 206.603L47.005 192.996C46.8138 192.919 46.7183 192.692 46.8019 192.501C46.8855 192.31 47.1065 192.22 47.2976 192.298L79.9634 205.904C80.6562 206.191 81.2296 206.716 81.5761 207.379L99.2319 240.804C99.3275 240.989 99.2618 241.216 99.0766 241.317C99.0169 241.347 98.9572 241.359 98.8975 241.359Z" fill="#FFE1C7"/>
<path d="M94.3521 204.082L73.6859 195.29L77.8789 189.496L98.5391 198.294L94.3521 204.082Z" fill="#FFE1C7"/>
<path d="M315.337 19.6871C315.319 19.6154 314.931 18.5164 314.895 18.4208C314.865 18.3372 312.118 8.54164 307.077 7.68751C305.123 7.359 303.379 8.2848 301.552 8.77458C299.133 9.41965 297.251 8.62526 294.904 8.36245C293.172 8.16534 291.828 8.07575 290.239 7.2933C288.967 6.66018 287.79 6.09275 286.38 5.818C284.827 5.51338 282.51 5.17292 281.495 6.71393C280.623 8.03394 280.611 10.2857 281.536 11.5759C282.886 13.4573 285.461 13.081 287.468 13.0691C289.104 13.0571 290.741 13.1826 292.353 13.4693C293.321 13.6425 294.002 13.8575 294.742 14.5265C295.232 14.9685 295.531 15.5896 296.045 16.0078C298.464 17.9489 301.468 15.3089 303.953 15.0581C306.157 14.8371 308.522 15.0581 310.589 15.8823C311.604 16.2885 313.927 18.7075 314.226 18.8867C314.59 19.1017 315.504 20.356 315.337 19.6871ZM310.32 12.6928C307.913 11.4922 305.07 12.1433 302.561 11.2772C301.57 10.9368 300.626 10.4769 299.676 10.0169C299.682 10.011 299.694 10.011 299.7 10.005C301.193 9.66454 302.686 9.33006 304.227 9.27033C307.662 9.13892 310.063 11.0741 311.777 13.6783C311.335 13.2961 310.851 12.9556 310.32 12.6928Z" fill="#D5E2ED"/>
<path d="M299.7 57.7046C299.7 57.7046 299.575 62.3336 301.922 65.5052C304.269 68.6768 310.869 70.3074 317.129 70.4746C323.389 70.6478 328.818 68.0078 330.245 66.0189C332.647 62.674 332.647 57.7046 332.647 57.7046H299.7Z" fill="#544743"/>
<path d="M316.173 66.9625C325.271 66.9625 332.647 62.8176 332.647 57.7045C332.647 52.5915 325.271 48.4465 316.173 48.4465C307.075 48.4465 299.7 52.5915 299.7 57.7045C299.7 62.8176 307.075 66.9625 316.173 66.9625Z" fill="white"/>
<path d="M316.173 65.1706C323.51 65.1706 329.457 61.8279 329.457 57.7045C329.457 53.5811 323.51 50.2384 316.173 50.2384C308.837 50.2384 302.89 53.5811 302.89 57.7045C302.89 61.8279 308.837 65.1706 316.173 65.1706Z" fill="#FFE1C7"/>
<path d="M327.779 57.1431C327.462 57.1431 327.169 56.946 327.062 56.6354L314.961 21.6701C314.823 21.2759 315.032 20.8458 315.427 20.7085C315.821 20.5711 316.251 20.7801 316.388 21.1744L328.489 56.1397C328.627 56.5339 328.418 56.9639 328.024 57.1013C327.94 57.1312 327.856 57.1431 327.779 57.1431Z" fill="#544743"/>
<path d="M82.4422 44.7029C84.1473 33.5412 74.71 22.8401 61.3636 20.8013C48.0171 18.7626 35.8155 26.1582 34.1104 37.3199C32.4054 48.4816 41.8426 59.1828 55.1891 61.2215C68.5356 63.2603 80.7372 55.8646 82.4422 44.7029Z" fill="white"/>
<path d="M81.5474 62.3129C83.633 50.5652 74.5444 39.128 61.2473 36.7673C47.9503 34.4066 35.4802 42.0164 33.3945 53.7642C31.3089 65.5119 40.3976 76.9491 53.6946 79.3098C66.9917 81.6705 79.4618 74.0607 81.5474 62.3129Z" fill="white"/>
<path d="M34.0854 37.1996L33.1895 55.405C33.1895 55.405 48.3248 64.8362 49.7165 65.093C51.1082 65.3499 63.3765 68.7962 66.0643 68.3602C68.758 67.9242 81.779 60.6791 81.779 60.6791L82.6749 42.4737C82.6749 42.4737 50.8274 32.8633 50.2063 32.8753C49.5851 32.8872 34.0854 37.1996 34.0854 37.1996Z" fill="white"/>
<path d="M78.9097 42.8112C80.1603 33.8301 71.9546 25.2657 60.582 23.6822C49.2093 22.0987 38.9762 28.0957 37.7257 37.0769C36.4752 46.0581 44.6808 54.6224 56.0535 56.2059C67.4261 57.7894 77.6592 51.7924 78.9097 42.8112Z" fill="#C7916D"/>
<path d="M59.2314 60.9299C45.8162 60.9299 39.3297 53.7684 36.6419 49.4739C36.5762 49.3664 36.5284 49.2828 36.4985 49.2469C36.3731 49.1215 36.3492 48.9184 36.4567 48.7691C36.5762 48.5959 36.8091 48.5541 36.9823 48.6676C37.0719 48.7273 37.1138 48.793 37.287 49.0737C39.915 53.2786 46.306 60.2968 59.6256 60.1714C77.598 59.9802 81.2236 45.8125 81.2594 45.6692C81.3072 45.4661 81.5162 45.3407 81.7133 45.3884C81.9164 45.4362 82.0418 45.6393 81.994 45.8424C81.9582 45.9917 78.1833 60.7328 59.6315 60.9239C59.5001 60.9239 59.3628 60.9299 59.2314 60.9299Z" fill="#FFE1C7"/>
<path d="M63.0958 100.512C63.0361 101.062 62.9525 101.611 62.845 102.155C62.2955 104.926 61.1965 107.596 59.6375 109.985C58.0308 112.452 55.9522 114.608 53.575 116.418C53.0972 113.27 52.5238 110.147 51.383 107.154C50.1884 104.03 47.1303 98.3084 43.3853 97.4602C42.3699 97.2392 41.7129 97.508 41.2888 98.4577C40.4645 100.351 42.1907 102.549 43.3256 103.827C45.4579 106.211 47.5604 108.217 48.8624 111.234C49.848 113.509 50.3318 115.94 50.6424 118.383C48.8266 119.458 46.9033 120.348 44.9084 121.053C42.782 121.8 40.6019 122.331 38.3919 122.809C38.3919 120.85 38.2725 118.897 37.8305 116.968C37.5737 115.869 37.1556 114.537 36.5045 113.372C35.74 111.98 34.641 110.822 33.1239 110.565C30.878 110.194 30.6391 112.136 30.8661 113.916C31.0154 115.05 31.2304 116.131 31.3738 117.231C31.5351 118.312 31.6247 119.411 31.5649 120.569C31.5052 121.836 31.332 123.096 31.117 124.344C30.5555 124.476 29.9881 124.607 29.4207 124.75C25.9385 125.658 21.2856 126.68 18.4485 124.81C18.2394 124.673 18.0423 124.517 17.8571 124.35C17.0329 123.61 16.4296 122.54 16.125 121.053C15.9577 120.277 15.8025 119.488 15.6472 118.706C17.3196 117.063 19.0696 115.492 20.9571 113.916C21.7993 113.217 23.4717 111.825 24.5886 110.344C25.3472 109.334 25.8429 108.295 25.6398 107.399C25.4965 106.784 25.0545 106.432 24.4811 106.258C23.179 105.852 21.184 106.306 20.2881 106.503C18.0662 106.987 15.6591 107.865 13.7418 109.281C13.2102 106.414 12.7862 103.547 12.6309 100.662C16.2564 98.5055 20.5449 97.1377 24.3079 96.409C26.8224 95.9192 34.8739 95.1965 34.0138 90.8005C33.4643 87.9574 28.0887 88.8533 26.2371 89.4386C22.6713 90.5556 19.7446 92.9567 16.3878 94.5037C15.1454 95.089 13.8852 95.5549 12.6667 96.1163C12.9892 91.4933 14.3152 86.93 17.1404 83.2328C17.4629 82.8028 17.8213 82.3847 18.1916 81.9845C18.992 81.8232 19.7864 81.6799 20.5688 81.5664C23.394 81.1184 26.3864 81.3872 29.2116 80.9452C30.5734 80.7361 31.8875 80.3599 33.1418 79.667C33.3508 79.5475 33.4643 79.1832 33.3508 78.9682C33.2971 78.8547 33.2314 78.7472 33.1716 78.6516C33.1716 78.6516 33.1716 78.6456 33.1657 78.6456C31.8397 76.6268 28.7636 76.794 26.5955 76.9075C26.3386 76.9135 26.0818 76.9553 25.819 76.9672C30.5197 75.2112 35.9072 75.038 40.6557 76.8299C41.9936 77.3316 43.2718 77.8035 44.55 78.2514C44.7949 78.335 45.0278 78.4246 45.2608 78.5023C46.6106 78.9562 47.9605 79.3743 49.4 79.7506C55.6058 81.3752 60.5991 86.4641 62.4149 92.3713C62.6658 93.1837 62.8509 94.0079 62.9883 94.8441C62.5403 94.2707 62.0745 93.7093 61.5787 93.1657C59.4763 90.8483 55.7611 85.7474 52.0818 85.8549C51.8907 85.8549 51.7055 85.8788 51.5204 85.9087C47.9127 86.5537 51.9146 89.8747 53.133 90.8064C54.8413 92.1026 56.9437 93.5779 58.8371 95.2622C60.5932 96.8331 62.164 98.5652 63.0958 100.512Z" fill="#4E8271"/>
<path d="M45.2608 78.5081C47.638 72.7025 50.057 66.9326 52.3447 61.0912C55.0086 54.3239 57.3858 47.4431 58.9029 40.3115C59.0104 39.8336 58.2578 39.7142 58.1563 40.192C55.4685 52.7888 50.1347 64.6391 45.2608 76.5132C45.0279 77.0985 44.783 77.6779 44.55 78.2632C43.8632 79.9535 43.1703 81.6439 42.4834 83.3402C40.9603 82.934 39.7896 81.9425 38.4278 81.166C36.8629 80.2761 35.0293 79.3204 33.1717 78.6634C33.2314 78.759 33.3031 78.8665 33.3509 78.98C33.4643 79.189 33.3509 79.5534 33.1418 79.6788C31.8935 80.3776 30.5794 80.7479 29.2117 80.957C30.8661 81.8708 33.2433 82.2352 34.6171 83.0535C37.0003 84.475 37.1735 87.7004 39.6164 88.9427C39.7538 89.0084 39.9031 89.0622 40.0525 89.116C39.3118 90.8421 38.5473 92.5504 37.7469 94.2467C35.9968 97.9379 34.0258 101.504 31.8815 104.974C30.7407 104.711 29.5461 104.484 28.4232 104.616C27.1211 104.765 26.1177 105.559 24.959 106.085C24.7977 106.151 24.6483 106.222 24.4871 106.276C25.0605 106.449 25.5025 106.808 25.6458 107.417C25.8489 108.313 25.3532 109.352 24.5946 110.362C25.7235 110.415 26.7508 110.738 27.6228 111.431C24.5289 115.857 21.2199 120.133 17.8632 124.368C18.0423 124.535 18.2394 124.691 18.4545 124.828C21.8053 120.623 25.0963 116.352 28.1843 111.944C28.2082 111.974 28.2381 111.998 28.2679 112.028C29.4864 113.42 30.2629 115.534 31.3798 117.248C31.2365 116.149 31.0214 115.068 30.8721 113.933C30.6451 112.153 30.8781 110.212 33.1299 110.583C34.653 110.839 35.746 111.998 36.5105 113.39C36.5344 112.464 36.5583 111.538 36.5762 110.612C36.6061 109.489 37.0481 107.662 36.4866 106.623C35.9371 105.577 34.1393 105.47 33.1896 105.267C33.0164 105.231 32.8432 105.189 32.658 105.147C34.2647 102.561 35.7759 99.909 37.1616 97.1794C38.4577 94.617 39.6463 91.9949 40.7871 89.3549C41.5636 89.552 42.3819 89.6655 43.1345 89.8566C45.0279 90.3285 46.8675 90.9855 48.6116 91.8336C51.1859 93.07 53.1988 94.8619 56.1195 95.1008C57.0812 95.1844 58.1085 95.3576 58.8491 95.274C56.9557 93.5837 54.8533 92.1084 53.145 90.8182C51.9266 89.8865 47.9247 86.5655 51.5323 85.9205C51.7115 85.8906 51.9027 85.8667 52.0938 85.8667C50.959 84.7378 49.394 84.1047 47.7455 83.83C46.2642 83.5791 44.7173 83.7105 43.236 83.4895C43.8273 82.0441 44.4186 80.6046 44.998 79.1591C45.0816 78.9441 45.1712 78.7172 45.2608 78.5081Z" fill="#366657"/>
<path d="M49.6628 50.794C49.4716 54.4494 47.5902 57.5613 44.9263 59.837C45.2189 56.0621 45.4997 52.2155 44.4663 48.59C44.2454 47.8255 43.7377 46.0993 42.9015 45.3049C42.4475 44.8749 41.904 44.7076 41.2529 45.1018C40.4944 45.5558 40.2376 46.6906 40.2316 48.0226V48.0285C40.2256 50.2027 40.8587 52.9024 40.9662 54.0134C41.247 56.7729 41.3664 59.4905 41.3127 62.1903C40.793 62.4531 40.2555 62.692 39.706 62.8951C36.4687 64.1076 33.0761 64.4779 29.6655 64.4779C30.7227 59.9743 29.6835 55.1423 30.7944 50.4356C31.1886 48.811 32.8969 44.1402 30.1493 43.6206C28.1305 43.2443 27.1928 44.7793 26.7806 46.6369C26.3924 48.375 26.4701 50.4117 26.5358 51.4331C26.5955 52.3469 26.6731 53.2668 26.7448 54.1806C27.0315 57.5911 27.36 61.0315 27.2584 64.4122C24.1346 64.2688 21.0168 63.8985 17.9766 63.6118C16.2385 63.4506 14.4884 63.3012 12.7503 63.1579C13.2102 61.9872 13.6283 60.7866 14.0046 59.616C14.4287 58.2482 15.7965 54.7301 14.2555 53.5535C13.4014 52.8964 12.6069 53.207 11.9559 53.8581C11.2272 54.5689 10.6837 55.7216 10.4448 56.4085C10.182 57.185 9.99084 57.9674 9.84749 58.7559C9.6026 60.1177 9.50703 61.4855 9.39355 62.8473C8.37218 62.7577 7.35082 62.6502 6.33543 62.5307C4.32256 62.3038 3.48037 61.5273 3.22354 60.1416C3.16381 59.825 3.13396 59.4846 3.12799 59.1142C3.12201 58.7917 3.13395 58.4333 3.15784 58.0451C3.30119 55.9008 3.70734 53.8163 4.34047 51.7855C4.56744 51.0269 4.83024 50.2803 5.11693 49.5397C5.32001 49.4919 5.53507 49.4501 5.74412 49.4023C6.81924 49.1933 7.93017 49.1455 9.00529 48.9125C9.30991 48.8528 9.6922 48.7632 10.0745 48.6258C11.0779 48.2794 12.0813 47.6403 11.6095 46.5055C11.0958 45.281 9.16657 45.0361 7.14773 45.2093C7.20149 45.1138 7.2433 45.0182 7.29705 44.9286C7.9481 43.3458 8.76041 41.8347 9.68621 40.3892C10.2775 39.4574 10.9106 38.5555 11.5856 37.6775C13.6223 37.5103 15.689 37.6238 17.8273 37.9881C18.8546 38.1613 19.8879 38.3584 20.9212 38.5257C22.8505 38.8303 24.7857 39.0035 26.7269 38.6033C27.0494 38.5376 27.2465 38.2031 27.1868 37.8925C26.6791 35.2764 23.6389 34.6015 21.3632 34.2909C19.5534 34.058 17.6959 34.058 15.8861 34.261C15.3127 34.3208 14.7572 34.4342 14.2137 34.5716C17.3076 31.173 20.6584 28.1448 24.6244 26.1498C26.9479 27.1593 29.1817 28.4494 31.6904 28.8675C32.2757 28.975 32.873 29.0168 33.4941 29.0109C33.8047 29.0049 34.1094 28.7839 34.1094 28.4434C34.1153 27.9417 34.0258 27.4818 33.8525 27.0517C33.3628 25.7676 32.1562 24.7761 30.7108 24.1011C30.9378 24.0534 31.1707 24.0115 31.4096 23.9697C33.8167 23.6054 36.4388 23.6353 38.6667 24.7462C41.1932 26.0005 42.4595 28.4614 43.0926 31.1073C43.5167 32.8275 43.9945 34.5059 44.544 36.1544C44.6276 36.4113 44.7172 36.6621 44.8068 36.919C45.2787 38.2509 45.8222 39.5769 46.4434 40.879C46.5808 41.1717 46.7301 41.4763 46.8734 41.7809C48.2711 44.63 49.824 47.5567 49.6628 50.794Z" fill="#4E8271"/>
<path d="M57.3977 38.1911C53.2226 36.8293 48.8803 36.1484 44.544 36.1603C42.7043 36.1603 40.8766 36.2977 39.0489 36.5485C38.2366 35.4913 37.4721 34.4461 37.496 32.9588C37.5199 31.7702 37.8663 31.0415 37.1735 29.9425C36.5403 28.9391 35.4951 28.1327 34.5275 27.4757C34.3065 27.3264 34.0795 27.183 33.8525 27.0516C34.0257 27.4817 34.1153 27.9476 34.1094 28.4433C34.1094 28.7838 33.8047 29.0048 33.4941 29.0107C32.8729 29.0167 32.2757 28.9749 31.6903 28.8674C31.9711 29.1481 32.198 29.4647 32.3354 29.8529C32.8132 31.1789 32.6758 32.4631 33.4881 33.7174C33.8226 34.2311 34.2766 34.5894 34.6529 35.0553C35.3517 35.9094 35.3577 36.4351 35.4652 37.1996C32.0308 37.988 28.6859 39.2065 25.5323 40.8849C25.365 40.9744 25.1978 41.076 25.0306 41.1716C24.4333 40.4847 23.5672 40.0367 22.7429 39.6365C22.1098 39.32 21.5185 38.9317 20.9272 38.5315C19.8879 38.3643 18.8606 38.1672 17.8332 37.994C15.689 37.6296 13.6283 37.5161 11.5915 37.6834C10.9166 38.5614 10.2835 39.4633 9.69217 40.3951C10.9106 40.5265 12.2725 40.7355 12.9832 41.2193C13.9508 41.8764 13.9508 43.0232 14.7512 43.7518C15.3843 44.3252 16.2444 44.4686 17.0448 44.6119C17.7615 44.7433 18.323 44.8628 18.8546 45.1435C16.5072 46.8697 14.2614 48.7273 12.0753 50.6386C11.8125 50.8715 11.5378 51.1104 11.275 51.3434C10.8808 50.1608 10.4447 49.1872 10.1521 48.7332C10.1282 48.6974 10.1043 48.6675 10.0744 48.6257C9.69815 48.7631 9.30989 48.8527 9.00527 48.9124C7.93015 49.1454 6.81922 49.1931 5.7441 49.4022C5.53505 49.45 5.31999 49.4918 5.11692 49.5396C4.83022 50.2802 4.56742 51.0328 4.34045 51.7854C5.31403 52.1736 6.3175 52.5141 7.23732 53.0934C7.58375 53.3144 7.94212 53.637 8.2766 54.0073C6.4907 55.6319 4.74062 57.3163 3.13391 59.1081C3.13988 59.4785 3.16977 59.8189 3.2295 60.1355C4.93774 58.1764 6.81322 56.3666 8.73649 54.6046C9.13667 55.1899 9.44729 55.8231 9.59064 56.3965C9.76386 57.167 9.53688 58.0211 9.84747 58.7498C9.99082 57.9614 10.182 57.1849 10.4448 56.4024C10.6896 55.7155 11.2332 54.5628 11.9559 53.852C11.8364 53.2607 11.6811 52.6694 11.5199 52.1139C11.6991 51.9526 11.8902 51.7914 12.0694 51.6301C14.4764 49.5276 16.9253 47.473 19.5176 45.5915C19.6132 45.6811 19.7206 45.7707 19.8282 45.8782C20.2821 46.3321 20.6704 46.8398 21.1243 47.2938C22.0919 48.2554 23.2148 48.9005 24.2541 49.7546C25.6697 50.9193 26.2132 52.5141 26.7507 54.1805C26.6731 53.2667 26.6014 52.3468 26.5417 51.433C26.476 50.4116 26.3983 48.3749 26.7866 46.6367C26.1594 45.7946 25.7174 45.1077 25.6756 43.8235C25.6517 43.2322 25.8369 42.7783 25.6398 42.181C25.586 42.0436 25.5263 41.9062 25.4606 41.7868C28.674 40.0248 32.1024 38.7585 35.6205 37.9522C35.9311 39.1467 36.606 39.7739 37.4064 40.6818C38.6069 42.0376 39.479 43.6204 39.8553 45.4063C39.9628 45.914 39.9449 47.1624 40.2316 48.0225C40.2375 46.6905 40.4944 45.5557 41.2529 45.1017C41.904 44.7075 42.4475 44.8747 42.9014 45.3048C42.6745 43.9669 42.1071 42.605 41.8024 41.7987C41.3246 40.5743 40.8408 39.3319 40.1957 38.1791C40.0046 37.8447 39.7895 37.5341 39.5685 37.2354C41.3067 37.0144 43.0567 36.9129 44.8068 36.9189C48.9699 36.9368 53.139 37.5938 57.1587 38.9019C57.6186 39.0631 57.8576 38.3404 57.3977 38.1911Z" fill="#366657"/>
<path d="M149.768 31.4835C149.733 31.7284 149.679 31.9613 149.607 32.1644C149.589 32.2182 149.53 32.3018 149.44 32.3973C148.849 33.0484 146.86 34.4998 145.163 34.6969C144.291 33.8189 143.413 32.9349 142.547 32.0629C141.359 30.8683 140.176 29.7155 139.286 28.288C139.053 27.9177 138.856 27.5712 138.629 27.2666C138.366 26.8903 138.056 26.5678 137.572 26.305C137.172 26.1019 136.688 26.305 136.646 26.7828C136.401 29.9664 138.187 32.7915 140.522 35.0612C139.113 35.1389 137.602 35.1927 136.037 35.2285C134.006 35.2882 131.892 35.3181 129.837 35.336C128.786 31.812 128.768 27.8699 127.281 24.2205C127.101 23.7844 126.492 23.8501 126.253 24.1727C124.109 27.0277 124.873 31.6806 126.331 35.3479C122.986 35.3539 120.065 35.342 118.279 35.33C118.005 35.33 117.73 35.336 117.455 35.336C116.595 35.342 115.735 35.3539 114.881 35.3599C114.588 34.8283 114.319 34.2907 114.08 33.7353C112.892 30.9579 113.196 28.497 112.981 25.636C112.916 24.7819 112.665 23.0378 111.876 22.4525C111.53 22.1777 111.076 22.1419 110.479 22.5122C108.8 23.5395 109.296 27.7564 109.44 29.2616C109.631 31.3581 110.043 33.5621 110.981 35.4734C109.995 35.5212 109.015 35.563 108.024 35.6346C104.996 35.8258 101.872 36.3693 98.8555 35.9154C98.4374 34.6073 98.1806 33.2515 98.1388 31.812C98.109 30.7608 98.1328 29.6558 98.2582 28.5747C98.3658 27.6907 98.5509 26.8246 98.8496 26.0243C99.2438 24.9253 99.7933 24.0711 99.8709 22.8825C99.9008 22.548 99.6201 22.2972 99.3095 22.2613C99.1721 22.2434 99.0467 22.2315 98.9153 22.2315C94.6566 22.1359 94.1788 29.4646 95.0628 34.5655C92.5422 32.9827 91.0908 30.259 91.5925 26.8903C91.9808 24.2742 93.4083 21.9926 94.9971 19.9379C95.9288 18.7373 97.0099 17.6085 97.8521 16.3362C97.9178 16.2227 97.9895 16.1152 98.0552 16.0017C98.2284 15.6971 98.3897 15.4045 98.5091 15.0998C99.0407 13.8814 99.2259 12.6151 99.3274 11.2234C99.4767 8.98957 99.6918 6.80947 101.263 5.08928C102.499 3.73343 104.243 2.90917 106.029 2.52691C105.396 3.54827 104.894 4.65325 104.631 5.89562C104.422 6.91101 103.819 9.51519 105.444 9.73021C105.587 9.7541 105.73 9.74813 105.868 9.71229C106.889 9.52116 107.57 8.09364 108 7.03644C108.114 6.75571 108.209 6.49888 108.293 6.30177C108.866 4.92204 109.493 3.54827 110.288 2.30591C111.894 2.44926 113.483 2.75985 115.054 3.04655C116.505 3.3213 117.969 3.608 119.426 3.93651C117.318 5.26249 115.484 7.13201 114.26 9.26433C113.573 10.4589 113.071 11.7311 112.814 13.0392C112.737 13.4454 113.035 13.9351 113.513 13.8037C114.367 13.5768 115.072 13.075 115.717 12.4658C116.822 11.3907 117.706 9.9751 118.787 9.01347C120.394 7.59789 122.126 6.20621 124.007 5.0833C127.591 6.08675 131.115 7.353 134.418 9.04333C132.955 9.18071 131.503 9.51519 130.1 10.1185C129.335 10.4529 127.806 11.1219 127.066 12.0477C126.749 12.4419 126.576 12.872 126.659 13.3498C126.743 13.8276 126.94 14.1143 127.197 14.2756C127.961 14.7534 129.299 14.0546 130.058 13.6186C132.178 12.3881 134.711 11.2294 137.297 10.662C137.865 11.0084 138.42 11.3608 138.969 11.7371C141.156 13.2363 143.079 14.9386 144.62 16.9275C145.026 17.4352 145.408 17.9788 145.755 18.5343C144.62 18.3849 143.545 18.3551 142.774 18.5701C142.774 18.5701 142.774 18.5701 142.768 18.5701C142.069 18.7672 141.627 19.1734 141.615 19.8722C141.598 20.8697 142.643 21.228 143.569 21.3654C143.891 21.4192 144.196 21.4311 144.441 21.449C145.372 21.4849 146.304 21.3714 147.224 21.3714C147.559 22.2076 150.222 28.2103 149.768 31.4835Z" fill="#4E8271"/>
<path d="M141.466 23.3843C142.171 22.6974 142.918 22.0762 143.563 21.3714C142.637 21.2341 141.598 20.8817 141.609 19.8782C141.615 19.1794 142.063 18.7732 142.762 18.5761C140.725 18.4626 138.599 17.5906 136.58 17.5607C134.34 17.5249 131.551 17.1367 129.371 17.6742C129.252 17.7041 129.144 17.8116 129.114 17.9311C129.096 17.9848 129.09 18.0386 129.084 18.0804C127.466 17.6264 125.829 17.2322 124.198 16.8798C124.503 16.3184 124.915 15.7987 125.554 15.303C126.068 14.9028 126.623 14.5743 127.197 14.2816C126.94 14.1204 126.743 13.8337 126.659 13.3558C126.576 12.878 126.749 12.4479 127.065 12.0537C126.516 12.2628 125.966 12.4898 125.489 12.6391C124.037 13.087 122.52 13.4514 121.116 14.0188C120.227 14.3772 119.605 14.867 119.008 15.5957C118.93 15.6912 118.859 15.7689 118.775 15.8585C117.127 15.5777 115.484 15.309 113.841 15.07C114.499 14.5564 115.06 13.9292 115.454 13.093C115.532 12.9258 115.621 12.7167 115.717 12.4718C115.072 13.087 114.367 13.5828 113.513 13.8098C113.035 13.9412 112.742 13.4514 112.814 13.0452C113.071 11.7372 113.573 10.4649 114.26 9.27037C114.182 9.2644 114.098 9.24648 114.027 9.23453C112.211 8.87616 110.455 8.32068 108.8 7.4785C108.52 7.33515 108.257 7.1918 108 7.04248C107.57 8.09968 106.889 9.53318 105.868 9.71834C106.172 11.3012 106.375 12.9019 106.148 14.425C103.622 14.3951 101.077 14.5743 98.515 15.1059C98.4852 15.1119 98.4613 15.1238 98.4314 15.1238C91.706 16.5334 85.3986 19.484 79.2883 22.5003C72.294 25.9527 65.9927 30.1815 60.6051 35.8557C60.2826 36.2021 60.7783 36.7636 61.1128 36.4172C65.5686 31.7284 70.6993 27.858 76.4034 24.8238C82.3345 21.6701 88.5463 18.6657 94.997 16.7663C96.0244 16.4737 97.0457 16.2228 98.0611 16.0078C100.719 15.4643 103.341 15.2313 105.993 15.2313C105.742 16.193 105.288 17.1128 104.53 17.955C103.287 19.3407 101.639 20.0335 100.146 21.0728C99.6439 21.4192 99.2557 21.8134 98.9212 22.2375C99.0526 22.2375 99.178 22.2554 99.3154 22.2674C99.626 22.3032 99.9067 22.5541 99.8769 22.8886C99.7992 24.0772 99.2497 24.9313 98.8555 26.0303C98.5628 26.8307 98.3717 27.6967 98.2642 28.5807C100.158 28.9152 102.284 27.4578 103.347 26.0303C104.094 25.0209 104.446 23.8502 104.906 22.7034C105.7 20.7503 106.967 19.2332 108.687 18.0266C109.995 17.1128 111.572 16.5334 112.934 15.7091C113.615 15.7987 114.295 15.8883 114.982 16.0018C116.034 16.1691 117.091 16.3423 118.154 16.5155C117.019 17.6205 115.884 18.1939 114.272 18.9465C112.969 19.5617 112.318 20.9593 111.882 22.4585C112.671 23.0498 112.922 24.7879 112.987 25.6421C113.196 28.5031 112.898 30.9639 114.086 33.7413C114.331 34.3028 114.594 34.8403 114.887 35.3659C115.741 35.36 116.595 35.348 117.461 35.342C117.634 34.8343 117.712 34.2669 117.754 33.7234C118.005 30.7131 117.521 27.4041 119.11 24.6804C120.322 22.6078 122.831 22.0046 123.38 19.5019C123.541 18.7912 123.685 18.1461 123.9 17.5667C125.656 17.9311 127.406 18.3372 129.126 18.815C129.461 20.0992 130.972 21.5029 131.503 22.5063C132.799 24.9731 132.316 27.8281 133.241 30.4084C133.869 32.1645 134.884 33.7712 136.043 35.2286C137.608 35.1927 139.125 35.139 140.528 35.0613C138.199 32.7916 136.413 29.9664 136.652 26.7829C136.688 26.3051 137.172 26.102 137.578 26.3051C138.062 26.5679 138.372 26.8904 138.635 27.2667C138.975 26.0004 140.176 24.77 140.952 23.9159C144.345 26.1199 147.314 28.9331 149.452 32.3974C149.541 32.3018 149.601 32.2182 149.619 32.1645C149.685 31.9614 149.739 31.7284 149.78 31.4836C147.576 28.1029 144.721 25.4689 141.466 23.3843Z" fill="#366657"/>
<path d="M130.942 71.6214C130.799 71.8424 130.619 72.0216 130.404 72.141C130.148 72.3083 129.819 72.3919 129.437 72.3978C128.051 72.4038 126.564 72.0395 125.16 71.9439C123.739 71.8364 122.299 71.7767 120.872 71.7468C120.692 71.7468 120.513 71.7408 120.34 71.7408C120.34 71.7408 120.34 71.7408 120.34 71.7349C120.364 70.4865 120.633 69.2442 120.549 67.9898C120.549 67.954 120.543 67.9242 120.543 67.8823C120.436 66.7714 119.808 65.1229 118.363 65.6126C118.345 65.6186 118.327 65.6306 118.309 65.6365C117.013 66.1263 116.714 68.3243 116.517 69.4532C116.38 70.164 116.261 70.9345 116.177 71.711C115.102 71.705 114.027 71.711 112.952 71.705C110.706 71.6871 108.436 71.6453 106.184 71.5079C106.358 69.5488 106.883 67.5837 107.707 65.5828C107.869 65.1886 108.179 64.5256 108.466 63.767C108.872 62.6799 109.224 61.4018 108.968 60.4998C108.836 60.016 108.544 59.6457 107.994 59.4546C105.927 58.7558 103.903 62.3813 103.293 63.8208C102.386 66.0248 101.866 68.5632 101.812 71.0838C100.51 70.9106 99.2259 70.6896 97.9536 70.3969C97.7207 70.3432 97.4818 70.2894 97.2488 70.2297C95.457 69.7757 93.701 69.1008 92.3093 68.0496C92.7991 66.1144 93.9638 64.2867 95.2599 62.6859C96.5321 61.0971 97.9059 59.4546 97.7625 57.2984C97.7625 57.2625 97.7565 57.2207 97.7386 57.1849C97.6789 56.8624 97.4161 56.6234 97.0398 56.6951C94.6029 57.1311 93.241 59.5502 92.1062 61.5093C91.3118 62.895 90.6548 64.3165 90.3203 65.7918C89.9559 65.1348 89.6752 64.4061 89.5319 63.5819C88.3791 57.1789 93.6651 51.648 99.6321 50.5191C99.7694 50.4893 99.9127 50.4654 100.05 50.4415C100.02 50.2444 99.9964 50.0413 99.9844 49.8442C99.7216 46.9055 100.414 44.1461 103.538 42.5394C105.115 41.7211 106.835 41.3089 108.585 41.2134C107.074 42.1272 105.838 43.3158 105.491 45.2749C105.432 45.5915 105.766 45.8782 106.053 45.9021C106.137 45.9081 106.22 45.9081 106.298 45.9081C107.904 45.8722 109.254 44.4925 110.383 43.495C111.1 42.8619 111.853 42.181 112.659 41.5419C113.644 41.7509 114.606 42.0436 115.526 42.4139C115.771 42.5035 116.01 42.611 116.243 42.7185C117.288 43.1785 118.238 43.7339 119.134 44.3432C117.383 45.2809 115.765 46.4755 114.331 47.915C113.429 48.8049 111.13 50.9492 111.894 52.5081C112.181 53.0994 112.641 53.3264 113.167 53.3324C114.14 53.3383 115.317 52.5858 115.95 52.084C118.124 50.3877 120.256 48.6914 122.974 47.915C123.01 47.897 123.04 47.8911 123.082 47.8791C124.019 48.9602 124.862 50.1369 125.608 51.3673C127.03 53.6848 128.141 56.2113 129.031 58.7976C126.701 58.7378 123.846 59.3172 123.279 61.0075C123.273 61.0255 123.273 61.0374 123.273 61.0553C122.843 62.4171 124.043 62.9786 125.19 63.0742C125.244 63.0801 125.304 63.0921 125.357 63.0921C126.355 63.1458 127.4 62.9965 128.386 62.8352C129.031 62.7397 129.634 62.6979 130.231 62.7038C130.267 62.8532 130.315 63.0085 130.351 63.1578C130.757 64.7287 132.202 69.6981 130.942 71.6214Z" fill="#4E8271"/>
<path d="M123.822 64.1912C123.846 64.1613 123.876 64.1255 123.906 64.0956C124.139 63.8388 124.641 63.4804 125.184 63.0743C124.043 62.9787 122.837 62.4172 123.267 61.0554C122.783 61.2525 122.311 61.4735 121.851 61.7065C121.642 61.814 121.415 61.9275 121.188 62.0469C119.767 60.9479 118.303 59.9027 116.798 58.9171C117.001 58.7797 117.192 58.6245 117.348 58.4273C118.029 57.5732 117.802 56.4503 118.291 55.5126C118.895 54.3419 120.382 53.6132 121.469 52.9801C122.753 52.2335 124.103 51.5406 125.602 51.3734C124.856 50.137 124.013 48.9663 123.076 47.8852C123.04 47.9031 123.01 47.9091 122.968 47.921C120.25 48.6975 118.118 50.3938 115.944 52.0901C115.311 52.5918 114.134 53.3444 113.161 53.3384C112.796 54.1687 112.534 55.0766 112.319 56.08C112.319 56.1039 112.313 56.1278 112.313 56.1457C110.789 55.2677 109.254 54.4195 107.695 53.6132C108 53.0756 108.311 52.544 108.771 52.0841C109.726 51.1464 110.126 50.7223 110.359 49.3067C110.568 48.0584 110.754 47.1147 111.715 46.2128C112.39 45.5617 113.274 45.1377 113.985 44.5165C114.463 44.0984 115.066 43.298 115.52 42.42C114.594 42.0497 113.639 41.763 112.653 41.548C111.841 42.1811 111.094 42.862 110.377 43.5011C109.248 44.4986 107.893 45.8783 106.292 45.9141C106.292 45.9321 106.286 45.938 106.286 45.95C105.868 47.9927 106.704 50.6745 104.948 52.2155C104.088 51.7855 103.216 51.3614 102.35 50.9433C101.561 50.573 100.767 50.2027 99.9785 49.8383C87.7042 44.2178 74.6116 39.989 60.9875 40.216C60.5037 40.2339 60.4678 40.9865 60.9516 40.9746C74.4743 40.7536 87.4593 44.9525 99.6321 50.5133C100.247 50.8 100.868 51.0807 101.472 51.3674C102.398 51.7974 103.317 52.2454 104.243 52.6993C103.084 53.3265 101.633 53.5236 100.528 54.2702C99.3753 55.0467 98.6226 56.1636 97.7387 57.173C97.7566 57.2089 97.7626 57.2507 97.7626 57.2865C97.9059 59.4427 96.5262 61.0853 95.2599 62.6741C93.9638 64.2808 92.7991 66.1025 92.3093 68.0377C93.701 69.089 95.457 69.7639 97.2489 70.2178C97.4818 70.2776 97.7207 70.3313 97.9537 70.3851C97.9835 69.8714 97.9895 69.3936 98.0015 69.0352C98.1329 65.1827 97.1175 60.1834 101.185 57.9256C102.768 57.0476 104.625 56.7908 106.113 55.6918C106.662 55.2856 107.027 54.7839 107.337 54.2523C108.962 55.0945 110.568 55.9785 112.151 56.8983C112.032 57.4299 111.876 57.9555 111.62 58.4273C111.118 59.3352 110.306 59.6936 109.457 60.1774C109.29 60.273 109.123 60.3745 108.974 60.482C109.231 61.3839 108.884 62.6621 108.472 63.7492C109.84 62.9787 111.357 62.4232 112.641 61.4556C113.639 60.715 114.421 60.0639 115.562 59.5502C115.729 59.4726 115.902 59.4009 116.069 59.3233C117.575 60.3088 119.044 61.3421 120.466 62.4352C119.767 62.8413 119.116 63.349 118.769 64.018C118.632 64.2748 118.453 64.902 118.315 65.6307C118.333 65.6247 118.351 65.6127 118.369 65.6068C119.814 65.117 120.442 66.7655 120.549 67.8765C120.549 67.9123 120.555 67.9422 120.555 67.984C120.788 67.7331 121.003 67.5002 121.146 67.3508C121.923 66.5326 122.61 65.6247 123.327 64.7526C125.907 66.9746 128.296 69.4115 130.41 72.1351C130.619 72.0157 130.805 71.8305 130.948 71.6155C128.822 68.8799 126.415 66.425 123.822 64.1912Z" fill="#366657"/>
</svg>
